%TF.GenerationSoftware,KiCad,Pcbnew,7.0.9-1.fc38*%
%TF.CreationDate,2023-12-23T08:54:25+10:00*%
%TF.ProjectId,LogicAnalyserSMD,4c6f6769-6341-46e6-916c-79736572534d,0.3*%
%TF.SameCoordinates,Original*%
%TF.FileFunction,Soldermask,Top*%
%TF.FilePolarity,Negative*%
%FSLAX46Y46*%
G04 Gerber Fmt 4.6, Leading zero omitted, Abs format (unit mm)*
G04 Created by KiCad (PCBNEW 7.0.9-1.fc38) date 2023-12-23 08:54:25*
%MOMM*%
%LPD*%
G01*
G04 APERTURE LIST*
G04 Aperture macros list*
%AMRoundRect*
0 Rectangle with rounded corners*
0 $1 Rounding radius*
0 $2 $3 $4 $5 $6 $7 $8 $9 X,Y pos of 4 corners*
0 Add a 4 corners polygon primitive as box body*
4,1,4,$2,$3,$4,$5,$6,$7,$8,$9,$2,$3,0*
0 Add four circle primitives for the rounded corners*
1,1,$1+$1,$2,$3*
1,1,$1+$1,$4,$5*
1,1,$1+$1,$6,$7*
1,1,$1+$1,$8,$9*
0 Add four rect primitives between the rounded corners*
20,1,$1+$1,$2,$3,$4,$5,0*
20,1,$1+$1,$4,$5,$6,$7,0*
20,1,$1+$1,$6,$7,$8,$9,0*
20,1,$1+$1,$8,$9,$2,$3,0*%
G04 Aperture macros list end*
%ADD10RoundRect,0.254000X-1.397000X-3.810000X1.397000X-3.810000X1.397000X3.810000X-1.397000X3.810000X0*%
%ADD11RoundRect,0.254000X-0.889000X-3.810000X0.889000X-3.810000X0.889000X3.810000X-0.889000X3.810000X0*%
%ADD12C,4.572000*%
%ADD13RoundRect,0.504000X0.262500X0.450000X-0.262500X0.450000X-0.262500X-0.450000X0.262500X-0.450000X0*%
%ADD14RoundRect,0.504000X-0.250000X-0.475000X0.250000X-0.475000X0.250000X0.475000X-0.250000X0.475000X0*%
%ADD15RoundRect,0.504000X-0.262500X-0.450000X0.262500X-0.450000X0.262500X0.450000X-0.262500X0.450000X0*%
%ADD16RoundRect,0.504000X0.250000X0.475000X-0.250000X0.475000X-0.250000X-0.475000X0.250000X-0.475000X0*%
%ADD17RoundRect,0.478118X0.537882X-0.537882X0.537882X0.537882X-0.537882X0.537882X-0.537882X-0.537882X0*%
%ADD18C,2.032000*%
%ADD19RoundRect,0.254000X0.850000X-0.850000X0.850000X0.850000X-0.850000X0.850000X-0.850000X-0.850000X0*%
%ADD20O,2.208000X2.208000*%
%ADD21RoundRect,0.404000X-0.825000X-0.150000X0.825000X-0.150000X0.825000X0.150000X-0.825000X0.150000X0*%
G04 APERTURE END LIST*
D10*
%TO.C,P1*%
X53467000Y-175641000D03*
D11*
X57150000Y-175641000D03*
X60325000Y-175641000D03*
X63500000Y-175641000D03*
X66675000Y-175641000D03*
X69850000Y-175641000D03*
X73025000Y-175641000D03*
X76200000Y-175641000D03*
X79375000Y-175641000D03*
X82550000Y-175641000D03*
X85725000Y-175641000D03*
X88900000Y-175641000D03*
X92075000Y-175641000D03*
X95250000Y-175641000D03*
X98425000Y-175641000D03*
X101600000Y-175641000D03*
X104775000Y-175641000D03*
X107950000Y-175641000D03*
X111125000Y-175641000D03*
X114300000Y-175641000D03*
X117475000Y-175641000D03*
X120650000Y-175641000D03*
X123825000Y-175641000D03*
X127000000Y-175641000D03*
X130175000Y-175641000D03*
X133350000Y-175641000D03*
X136525000Y-175641000D03*
X139700000Y-175641000D03*
X142875000Y-175641000D03*
X146050000Y-175641000D03*
X149225000Y-175641000D03*
X152400000Y-175641000D03*
X155575000Y-175641000D03*
X158750000Y-175641000D03*
X161925000Y-175641000D03*
X165100000Y-175641000D03*
X168275000Y-175641000D03*
X171450000Y-175641000D03*
X174625000Y-175641000D03*
X177800000Y-175641000D03*
X180975000Y-175641000D03*
X184150000Y-175641000D03*
X187325000Y-175641000D03*
X190500000Y-175641000D03*
X193675000Y-175641000D03*
X196850000Y-175641000D03*
X200025000Y-175641000D03*
X203200000Y-175641000D03*
X206375000Y-175641000D03*
D10*
X210058000Y-175641000D03*
%TD*%
D12*
%TO.C,P35*%
X260350000Y-52070000D03*
%TD*%
%TO.C,P34*%
X19050000Y-52070000D03*
%TD*%
D13*
%TO.C,R1*%
X43180000Y-157734000D03*
X41355000Y-157734000D03*
%TD*%
D14*
%TO.C,C41*%
X117602000Y-154940000D03*
X119502000Y-154940000D03*
%TD*%
D15*
%TO.C,R146*%
X184912000Y-152146000D03*
X186737000Y-152146000D03*
%TD*%
D13*
%TO.C,R173*%
X217217000Y-157734000D03*
X215392000Y-157734000D03*
%TD*%
D15*
%TO.C,R8*%
X49022000Y-139446000D03*
X50847000Y-139446000D03*
%TD*%
D16*
%TO.C,C100*%
X103378000Y-104394000D03*
X101478000Y-104394000D03*
%TD*%
D15*
%TO.C,R24*%
X64262000Y-139446000D03*
X66087000Y-139446000D03*
%TD*%
D13*
%TO.C,R93*%
X137207000Y-157734000D03*
X135382000Y-157734000D03*
%TD*%
D15*
%TO.C,R14*%
X52832000Y-152146000D03*
X54657000Y-152146000D03*
%TD*%
%TO.C,R142*%
X181102000Y-152146000D03*
X182927000Y-152146000D03*
%TD*%
D13*
%TO.C,R103*%
X148637000Y-145034000D03*
X146812000Y-145034000D03*
%TD*%
D14*
%TO.C,C35*%
X106172000Y-154940000D03*
X108072000Y-154940000D03*
%TD*%
%TO.C,C43*%
X125222000Y-154940000D03*
X127122000Y-154940000D03*
%TD*%
D15*
%TO.C,R116*%
X158242000Y-139446000D03*
X160067000Y-139446000D03*
%TD*%
D13*
%TO.C,R85*%
X127047000Y-157734000D03*
X125222000Y-157734000D03*
%TD*%
%TO.C,R137*%
X179117000Y-157734000D03*
X177292000Y-157734000D03*
%TD*%
%TO.C,R179*%
X224837000Y-145034000D03*
X223012000Y-145034000D03*
%TD*%
D14*
%TO.C,C29*%
X94742000Y-154940000D03*
X96642000Y-154940000D03*
%TD*%
D13*
%TO.C,R153*%
X194357000Y-157734000D03*
X192532000Y-157734000D03*
%TD*%
%TO.C,R49*%
X88947000Y-157734000D03*
X87122000Y-157734000D03*
%TD*%
D15*
%TO.C,R38*%
X75692000Y-152146000D03*
X77517000Y-152146000D03*
%TD*%
D14*
%TO.C,C48*%
X139192000Y-142240000D03*
X141092000Y-142240000D03*
%TD*%
%TO.C,C91*%
X223012000Y-154940000D03*
X224912000Y-154940000D03*
%TD*%
D13*
%TO.C,R51*%
X92757000Y-145034000D03*
X90932000Y-145034000D03*
%TD*%
D14*
%TO.C,C16*%
X71882000Y-142240000D03*
X73782000Y-142240000D03*
%TD*%
%TO.C,C79*%
X196342000Y-154940000D03*
X198242000Y-154940000D03*
%TD*%
D15*
%TO.C,R46*%
X83312000Y-152146000D03*
X85137000Y-152146000D03*
%TD*%
%TO.C,R199*%
X101553000Y-101600000D03*
X103378000Y-101600000D03*
%TD*%
%TO.C,R18*%
X56642000Y-152146000D03*
X58467000Y-152146000D03*
%TD*%
D14*
%TO.C,C74*%
X188722000Y-142240000D03*
X190622000Y-142240000D03*
%TD*%
%TO.C,C73*%
X184912000Y-154940000D03*
X186812000Y-154940000D03*
%TD*%
D13*
%TO.C,R135*%
X179117000Y-145034000D03*
X177292000Y-145034000D03*
%TD*%
D14*
%TO.C,C39*%
X113792000Y-154940000D03*
X115692000Y-154940000D03*
%TD*%
D16*
%TO.C,C103*%
X103754000Y-86106000D03*
X101854000Y-86106000D03*
%TD*%
D13*
%TO.C,R201*%
X228647000Y-157734000D03*
X226822000Y-157734000D03*
%TD*%
D15*
%TO.C,R26*%
X64262000Y-152146000D03*
X66087000Y-152146000D03*
%TD*%
D13*
%TO.C,R17*%
X58467000Y-157734000D03*
X56642000Y-157734000D03*
%TD*%
D15*
%TO.C,R114*%
X154432000Y-152146000D03*
X156257000Y-152146000D03*
%TD*%
D13*
%TO.C,R99*%
X144827000Y-145034000D03*
X143002000Y-145034000D03*
%TD*%
D15*
%TO.C,R84*%
X122682000Y-139446000D03*
X124507000Y-139446000D03*
%TD*%
D13*
%TO.C,R194*%
X32258000Y-90932000D03*
X30433000Y-90932000D03*
%TD*%
D14*
%TO.C,C15*%
X68072000Y-154940000D03*
X69972000Y-154940000D03*
%TD*%
%TO.C,C21*%
X79502000Y-154940000D03*
X81402000Y-154940000D03*
%TD*%
%TO.C,C17*%
X71882000Y-154940000D03*
X73782000Y-154940000D03*
%TD*%
%TO.C,C2*%
X45212000Y-142240000D03*
X47112000Y-142240000D03*
%TD*%
D17*
%TO.C,J3*%
X114300000Y-58420000D03*
D18*
X114300000Y-55880000D03*
X116840000Y-58420000D03*
X116840000Y-55880000D03*
X119380000Y-58420000D03*
X119380000Y-55880000D03*
X121920000Y-58420000D03*
X121920000Y-55880000D03*
X124460000Y-58420000D03*
X124460000Y-55880000D03*
X127000000Y-58420000D03*
X127000000Y-55880000D03*
X129540000Y-58420000D03*
X129540000Y-55880000D03*
X132080000Y-58420000D03*
X132080000Y-55880000D03*
X134620000Y-58420000D03*
X134620000Y-55880000D03*
X137160000Y-58420000D03*
X137160000Y-55880000D03*
X139700000Y-58420000D03*
X139700000Y-55880000D03*
X142240000Y-58420000D03*
X142240000Y-55880000D03*
X144780000Y-58420000D03*
X144780000Y-55880000D03*
X147320000Y-58420000D03*
X147320000Y-55880000D03*
X149860000Y-58420000D03*
X149860000Y-55880000D03*
X152400000Y-58420000D03*
X152400000Y-55880000D03*
X154940000Y-58420000D03*
X154940000Y-55880000D03*
X157480000Y-58420000D03*
X157480000Y-55880000D03*
X160020000Y-58420000D03*
X160020000Y-55880000D03*
X162560000Y-58420000D03*
X162560000Y-55880000D03*
%TD*%
D13*
%TO.C,R67*%
X107997000Y-145034000D03*
X106172000Y-145034000D03*
%TD*%
%TO.C,R189*%
X254047000Y-96520000D03*
X252222000Y-96520000D03*
%TD*%
D14*
%TO.C,C54*%
X150622000Y-142240000D03*
X152522000Y-142240000D03*
%TD*%
%TO.C,C96*%
X254000000Y-87122000D03*
X255900000Y-87122000D03*
%TD*%
%TO.C,C49*%
X139192000Y-154940000D03*
X141092000Y-154940000D03*
%TD*%
D13*
%TO.C,R35*%
X77517000Y-145034000D03*
X75692000Y-145034000D03*
%TD*%
D15*
%TO.C,R128*%
X169672000Y-139446000D03*
X171497000Y-139446000D03*
%TD*%
%TO.C,R132*%
X173482000Y-139446000D03*
X175307000Y-139446000D03*
%TD*%
D13*
%TO.C,R197*%
X123237000Y-157734000D03*
X121412000Y-157734000D03*
%TD*%
%TO.C,R61*%
X100377000Y-157734000D03*
X98552000Y-157734000D03*
%TD*%
D15*
%TO.C,R74*%
X109982000Y-152146000D03*
X111807000Y-152146000D03*
%TD*%
%TO.C,R32*%
X71882000Y-139446000D03*
X73707000Y-139446000D03*
%TD*%
D14*
%TO.C,C18*%
X75692000Y-142240000D03*
X77592000Y-142240000D03*
%TD*%
D13*
%TO.C,R121*%
X163877000Y-157734000D03*
X162052000Y-157734000D03*
%TD*%
D14*
%TO.C,C56*%
X154432000Y-142240000D03*
X156332000Y-142240000D03*
%TD*%
D13*
%TO.C,R25*%
X66087000Y-157734000D03*
X64262000Y-157734000D03*
%TD*%
D14*
%TO.C,C31*%
X98552000Y-154940000D03*
X100452000Y-154940000D03*
%TD*%
D15*
%TO.C,R134*%
X173482000Y-152146000D03*
X175307000Y-152146000D03*
%TD*%
D13*
%TO.C,R39*%
X81327000Y-145034000D03*
X79502000Y-145034000D03*
%TD*%
D15*
%TO.C,R22*%
X60452000Y-152146000D03*
X62277000Y-152146000D03*
%TD*%
%TO.C,R44*%
X83312000Y-139446000D03*
X85137000Y-139446000D03*
%TD*%
D17*
%TO.C,J6*%
X187960000Y-114300000D03*
D18*
X187960000Y-111760000D03*
X190500000Y-114300000D03*
X190500000Y-111760000D03*
X193040000Y-114300000D03*
X193040000Y-111760000D03*
X195580000Y-114300000D03*
X195580000Y-111760000D03*
X198120000Y-114300000D03*
X198120000Y-111760000D03*
X200660000Y-114300000D03*
X200660000Y-111760000D03*
X203200000Y-114300000D03*
X203200000Y-111760000D03*
X205740000Y-114300000D03*
X205740000Y-111760000D03*
X208280000Y-114300000D03*
X208280000Y-111760000D03*
X210820000Y-114300000D03*
X210820000Y-111760000D03*
X213360000Y-114300000D03*
X213360000Y-111760000D03*
X215900000Y-114300000D03*
X215900000Y-111760000D03*
X218440000Y-114300000D03*
X218440000Y-111760000D03*
X220980000Y-114300000D03*
X220980000Y-111760000D03*
X223520000Y-114300000D03*
X223520000Y-111760000D03*
X226060000Y-114300000D03*
X226060000Y-111760000D03*
X228600000Y-114300000D03*
X228600000Y-111760000D03*
X231140000Y-114300000D03*
X231140000Y-111760000D03*
X233680000Y-114300000D03*
X233680000Y-111760000D03*
X236220000Y-114300000D03*
X236220000Y-111760000D03*
%TD*%
D15*
%TO.C,R184*%
X242824000Y-89916000D03*
X244649000Y-89916000D03*
%TD*%
D14*
%TO.C,C44*%
X131572000Y-142240000D03*
X133472000Y-142240000D03*
%TD*%
D15*
%TO.C,R66*%
X102362000Y-152146000D03*
X104187000Y-152146000D03*
%TD*%
%TO.C,R204*%
X203962000Y-152146000D03*
X205787000Y-152146000D03*
%TD*%
D14*
%TO.C,C101*%
X226822000Y-154940000D03*
X228722000Y-154940000D03*
%TD*%
%TO.C,C83*%
X207772000Y-154940000D03*
X209672000Y-154940000D03*
%TD*%
%TO.C,C13*%
X64262000Y-154940000D03*
X66162000Y-154940000D03*
%TD*%
%TO.C,C34*%
X106172000Y-142240000D03*
X108072000Y-142240000D03*
%TD*%
D15*
%TO.C,R98*%
X139192000Y-152146000D03*
X141017000Y-152146000D03*
%TD*%
D13*
%TO.C,R79*%
X119427000Y-145034000D03*
X117602000Y-145034000D03*
%TD*%
D15*
%TO.C,R2*%
X41402000Y-152146000D03*
X43227000Y-152146000D03*
%TD*%
%TO.C,R144*%
X184912000Y-139446000D03*
X186737000Y-139446000D03*
%TD*%
D13*
%TO.C,R95*%
X141017000Y-145034000D03*
X139192000Y-145034000D03*
%TD*%
%TO.C,R83*%
X124507000Y-145034000D03*
X122682000Y-145034000D03*
%TD*%
D14*
%TO.C,C95*%
X252222000Y-99314000D03*
X254122000Y-99314000D03*
%TD*%
D13*
%TO.C,R155*%
X198167000Y-145034000D03*
X196342000Y-145034000D03*
%TD*%
D15*
%TO.C,R102*%
X143002000Y-152146000D03*
X144827000Y-152146000D03*
%TD*%
%TO.C,R80*%
X117602000Y-139446000D03*
X119427000Y-139446000D03*
%TD*%
D14*
%TO.C,C58*%
X158242000Y-142240000D03*
X160142000Y-142240000D03*
%TD*%
%TO.C,C36*%
X109982000Y-142240000D03*
X111882000Y-142240000D03*
%TD*%
D13*
%TO.C,R23*%
X66040000Y-145034000D03*
X64215000Y-145034000D03*
%TD*%
%TO.C,R111*%
X156257000Y-145034000D03*
X154432000Y-145034000D03*
%TD*%
D15*
%TO.C,R60*%
X98552000Y-139446000D03*
X100377000Y-139446000D03*
%TD*%
D14*
%TO.C,C24*%
X87122000Y-142240000D03*
X89022000Y-142240000D03*
%TD*%
D15*
%TO.C,R30*%
X68072000Y-152146000D03*
X69897000Y-152146000D03*
%TD*%
D14*
%TO.C,C32*%
X102362000Y-142240000D03*
X104262000Y-142240000D03*
%TD*%
D15*
%TO.C,R12*%
X52832000Y-139446000D03*
X54657000Y-139446000D03*
%TD*%
%TO.C,R122*%
X162052000Y-152146000D03*
X163877000Y-152146000D03*
%TD*%
D14*
%TO.C,C7*%
X52832000Y-154940000D03*
X54732000Y-154940000D03*
%TD*%
%TO.C,C30*%
X98552000Y-142240000D03*
X100452000Y-142240000D03*
%TD*%
%TO.C,C61*%
X162052000Y-154940000D03*
X163952000Y-154940000D03*
%TD*%
D13*
%TO.C,R81*%
X119427000Y-157734000D03*
X117602000Y-157734000D03*
%TD*%
D17*
%TO.C,J5*%
X180340000Y-58420000D03*
D18*
X180340000Y-55880000D03*
X182880000Y-58420000D03*
X182880000Y-55880000D03*
X185420000Y-58420000D03*
X185420000Y-55880000D03*
X187960000Y-58420000D03*
X187960000Y-55880000D03*
X190500000Y-58420000D03*
X190500000Y-55880000D03*
X193040000Y-58420000D03*
X193040000Y-55880000D03*
X195580000Y-58420000D03*
X195580000Y-55880000D03*
X198120000Y-58420000D03*
X198120000Y-55880000D03*
X200660000Y-58420000D03*
X200660000Y-55880000D03*
X203200000Y-58420000D03*
X203200000Y-55880000D03*
X205740000Y-58420000D03*
X205740000Y-55880000D03*
X208280000Y-58420000D03*
X208280000Y-55880000D03*
X210820000Y-58420000D03*
X210820000Y-55880000D03*
X213360000Y-58420000D03*
X213360000Y-55880000D03*
X215900000Y-58420000D03*
X215900000Y-55880000D03*
X218440000Y-58420000D03*
X218440000Y-55880000D03*
X220980000Y-58420000D03*
X220980000Y-55880000D03*
X223520000Y-58420000D03*
X223520000Y-55880000D03*
X226060000Y-58420000D03*
X226060000Y-55880000D03*
X228600000Y-58420000D03*
X228600000Y-55880000D03*
%TD*%
D13*
%TO.C,R77*%
X115617000Y-157734000D03*
X113792000Y-157734000D03*
%TD*%
D15*
%TO.C,R186*%
X246634000Y-102108000D03*
X248459000Y-102108000D03*
%TD*%
D14*
%TO.C,C99*%
X121412000Y-154940000D03*
X123312000Y-154940000D03*
%TD*%
D13*
%TO.C,R9*%
X50800000Y-157734000D03*
X48975000Y-157734000D03*
%TD*%
D14*
%TO.C,C26*%
X90932000Y-142240000D03*
X92832000Y-142240000D03*
%TD*%
%TO.C,C75*%
X188722000Y-154940000D03*
X190622000Y-154940000D03*
%TD*%
%TO.C,C86*%
X215392000Y-142240000D03*
X217292000Y-142240000D03*
%TD*%
%TO.C,C38*%
X113792000Y-142240000D03*
X115692000Y-142240000D03*
%TD*%
D15*
%TO.C,R110*%
X150622000Y-152146000D03*
X152447000Y-152146000D03*
%TD*%
D14*
%TO.C,C84*%
X211582000Y-142240000D03*
X213482000Y-142240000D03*
%TD*%
%TO.C,C11*%
X60452000Y-154940000D03*
X62352000Y-154940000D03*
%TD*%
D15*
%TO.C,R138*%
X177292000Y-152146000D03*
X179117000Y-152146000D03*
%TD*%
D14*
%TO.C,C66*%
X173482000Y-142240000D03*
X175382000Y-142240000D03*
%TD*%
D13*
%TO.C,R183*%
X244649000Y-84328000D03*
X242824000Y-84328000D03*
%TD*%
D15*
%TO.C,R56*%
X94742000Y-139446000D03*
X96567000Y-139446000D03*
%TD*%
D13*
%TO.C,R97*%
X141017000Y-157734000D03*
X139192000Y-157734000D03*
%TD*%
D15*
%TO.C,R6*%
X45212000Y-152146000D03*
X47037000Y-152146000D03*
%TD*%
%TO.C,R188*%
X248412000Y-89916000D03*
X250237000Y-89916000D03*
%TD*%
D13*
%TO.C,R27*%
X69897000Y-145034000D03*
X68072000Y-145034000D03*
%TD*%
%TO.C,R7*%
X50847000Y-145034000D03*
X49022000Y-145034000D03*
%TD*%
D14*
%TO.C,C59*%
X158242000Y-154940000D03*
X160142000Y-154940000D03*
%TD*%
D15*
%TO.C,R50*%
X87122000Y-152146000D03*
X88947000Y-152146000D03*
%TD*%
%TO.C,R198*%
X121412000Y-152146000D03*
X123237000Y-152146000D03*
%TD*%
%TO.C,R16*%
X56642000Y-139446000D03*
X58467000Y-139446000D03*
%TD*%
%TO.C,R156*%
X196342000Y-139446000D03*
X198167000Y-139446000D03*
%TD*%
D13*
%TO.C,R129*%
X171497000Y-157734000D03*
X169672000Y-157734000D03*
%TD*%
D15*
%TO.C,R86*%
X125222000Y-152146000D03*
X127047000Y-152146000D03*
%TD*%
D13*
%TO.C,R33*%
X73707000Y-157734000D03*
X71882000Y-157734000D03*
%TD*%
%TO.C,R57*%
X96567000Y-157734000D03*
X94742000Y-157734000D03*
%TD*%
D17*
%TO.C,J1*%
X48276803Y-58436803D03*
D18*
X48276803Y-55896803D03*
X50816803Y-58436803D03*
X50816803Y-55896803D03*
X53356803Y-58436803D03*
X53356803Y-55896803D03*
X55896803Y-58436803D03*
X55896803Y-55896803D03*
X58436803Y-58436803D03*
X58436803Y-55896803D03*
X60976803Y-58436803D03*
X60976803Y-55896803D03*
X63516803Y-58436803D03*
X63516803Y-55896803D03*
X66056803Y-58436803D03*
X66056803Y-55896803D03*
X68596803Y-58436803D03*
X68596803Y-55896803D03*
X71136803Y-58436803D03*
X71136803Y-55896803D03*
X73676803Y-58436803D03*
X73676803Y-55896803D03*
X76216803Y-58436803D03*
X76216803Y-55896803D03*
X78756803Y-58436803D03*
X78756803Y-55896803D03*
X81296803Y-58436803D03*
X81296803Y-55896803D03*
X83836803Y-58436803D03*
X83836803Y-55896803D03*
X86376803Y-58436803D03*
X86376803Y-55896803D03*
X88916803Y-58436803D03*
X88916803Y-55896803D03*
X91456803Y-58436803D03*
X91456803Y-55896803D03*
X93996803Y-58436803D03*
X93996803Y-55896803D03*
X96536803Y-58436803D03*
X96536803Y-55896803D03*
%TD*%
D15*
%TO.C,R70*%
X106172000Y-152146000D03*
X107997000Y-152146000D03*
%TD*%
%TO.C,R112*%
X154432000Y-139446000D03*
X156257000Y-139446000D03*
%TD*%
D14*
%TO.C,C93*%
X246634000Y-99314000D03*
X248534000Y-99314000D03*
%TD*%
D15*
%TO.C,R72*%
X109982000Y-139446000D03*
X111807000Y-139446000D03*
%TD*%
D13*
%TO.C,R19*%
X62230000Y-145034000D03*
X60405000Y-145034000D03*
%TD*%
%TO.C,R109*%
X152447000Y-157734000D03*
X150622000Y-157734000D03*
%TD*%
%TO.C,R15*%
X58467000Y-145034000D03*
X56642000Y-145034000D03*
%TD*%
D15*
%TO.C,R96*%
X139192000Y-139446000D03*
X141017000Y-139446000D03*
%TD*%
D13*
%TO.C,R177*%
X221027000Y-157734000D03*
X219202000Y-157734000D03*
%TD*%
%TO.C,R65*%
X104187000Y-157734000D03*
X102362000Y-157734000D03*
%TD*%
D15*
%TO.C,R28*%
X68072000Y-139446000D03*
X69897000Y-139446000D03*
%TD*%
D13*
%TO.C,R43*%
X85137000Y-145034000D03*
X83312000Y-145034000D03*
%TD*%
D14*
%TO.C,C94*%
X248412000Y-87122000D03*
X250312000Y-87122000D03*
%TD*%
D15*
%TO.C,R154*%
X192532000Y-152146000D03*
X194357000Y-152146000D03*
%TD*%
D13*
%TO.C,R3*%
X47037000Y-145034000D03*
X45212000Y-145034000D03*
%TD*%
D15*
%TO.C,R48*%
X87122000Y-139446000D03*
X88947000Y-139446000D03*
%TD*%
D13*
%TO.C,R53*%
X92757000Y-157734000D03*
X90932000Y-157734000D03*
%TD*%
%TO.C,R187*%
X250237000Y-84328000D03*
X248412000Y-84328000D03*
%TD*%
%TO.C,R73*%
X111807000Y-157734000D03*
X109982000Y-157734000D03*
%TD*%
D14*
%TO.C,C10*%
X60452000Y-142240000D03*
X62352000Y-142240000D03*
%TD*%
D19*
%TO.C,J8*%
X27178000Y-76153000D03*
D20*
X29718000Y-76153000D03*
%TD*%
D15*
%TO.C,R4*%
X45212000Y-139446000D03*
X47037000Y-139446000D03*
%TD*%
D14*
%TO.C,C65*%
X169672000Y-154940000D03*
X171572000Y-154940000D03*
%TD*%
%TO.C,C50*%
X143002000Y-142240000D03*
X144902000Y-142240000D03*
%TD*%
%TO.C,C67*%
X173482000Y-154940000D03*
X175382000Y-154940000D03*
%TD*%
D13*
%TO.C,R29*%
X69897000Y-157734000D03*
X68072000Y-157734000D03*
%TD*%
%TO.C,R45*%
X85137000Y-157734000D03*
X83312000Y-157734000D03*
%TD*%
D15*
%TO.C,R136*%
X177292000Y-139446000D03*
X179117000Y-139446000D03*
%TD*%
D13*
%TO.C,R113*%
X156257000Y-157734000D03*
X154432000Y-157734000D03*
%TD*%
D19*
%TO.C,J7*%
X245110000Y-74422000D03*
D20*
X247650000Y-74422000D03*
X250190000Y-74422000D03*
X252730000Y-74422000D03*
X255270000Y-74422000D03*
%TD*%
D14*
%TO.C,C102*%
X203962000Y-154940000D03*
X205862000Y-154940000D03*
%TD*%
D15*
%TO.C,R126*%
X165862000Y-152146000D03*
X167687000Y-152146000D03*
%TD*%
D17*
%TO.C,J2*%
X40640000Y-114300000D03*
D18*
X40640000Y-111760000D03*
X43180000Y-114300000D03*
X43180000Y-111760000D03*
X45720000Y-114300000D03*
X45720000Y-111760000D03*
X48260000Y-114300000D03*
X48260000Y-111760000D03*
X50800000Y-114300000D03*
X50800000Y-111760000D03*
X53340000Y-114300000D03*
X53340000Y-111760000D03*
X55880000Y-114300000D03*
X55880000Y-111760000D03*
X58420000Y-114300000D03*
X58420000Y-111760000D03*
X60960000Y-114300000D03*
X60960000Y-111760000D03*
X63500000Y-114300000D03*
X63500000Y-111760000D03*
X66040000Y-114300000D03*
X66040000Y-111760000D03*
X68580000Y-114300000D03*
X68580000Y-111760000D03*
X71120000Y-114300000D03*
X71120000Y-111760000D03*
X73660000Y-114300000D03*
X73660000Y-111760000D03*
X76200000Y-114300000D03*
X76200000Y-111760000D03*
X78740000Y-114300000D03*
X78740000Y-111760000D03*
X81280000Y-114300000D03*
X81280000Y-111760000D03*
X83820000Y-114300000D03*
X83820000Y-111760000D03*
X86360000Y-114300000D03*
X86360000Y-111760000D03*
X88900000Y-114300000D03*
X88900000Y-111760000D03*
%TD*%
D13*
%TO.C,R181*%
X224837000Y-157734000D03*
X223012000Y-157734000D03*
%TD*%
%TO.C,R161*%
X201977000Y-157734000D03*
X200152000Y-157734000D03*
%TD*%
D14*
%TO.C,C1*%
X41402000Y-154940000D03*
X43302000Y-154940000D03*
%TD*%
D13*
%TO.C,R171*%
X217217000Y-145034000D03*
X215392000Y-145034000D03*
%TD*%
%TO.C,R91*%
X137207000Y-145034000D03*
X135382000Y-145034000D03*
%TD*%
D14*
%TO.C,C37*%
X109982000Y-154940000D03*
X111882000Y-154940000D03*
%TD*%
%TO.C,C71*%
X181102000Y-154940000D03*
X183002000Y-154940000D03*
%TD*%
D15*
%TO.C,R168*%
X211582000Y-139446000D03*
X213407000Y-139446000D03*
%TD*%
D14*
%TO.C,C51*%
X143002000Y-154940000D03*
X144902000Y-154940000D03*
%TD*%
D15*
%TO.C,R10*%
X49022000Y-152146000D03*
X50847000Y-152146000D03*
%TD*%
%TO.C,R130*%
X169672000Y-152146000D03*
X171497000Y-152146000D03*
%TD*%
D13*
%TO.C,R141*%
X182927000Y-157734000D03*
X181102000Y-157734000D03*
%TD*%
D14*
%TO.C,C12*%
X64262000Y-142240000D03*
X66162000Y-142240000D03*
%TD*%
D15*
%TO.C,R180*%
X223012000Y-139446000D03*
X224837000Y-139446000D03*
%TD*%
D13*
%TO.C,R117*%
X160067000Y-157734000D03*
X158242000Y-157734000D03*
%TD*%
D15*
%TO.C,R34*%
X71882000Y-152146000D03*
X73707000Y-152146000D03*
%TD*%
%TO.C,R178*%
X219202000Y-152146000D03*
X221027000Y-152146000D03*
%TD*%
%TO.C,R160*%
X200152000Y-139446000D03*
X201977000Y-139446000D03*
%TD*%
D13*
%TO.C,R107*%
X152447000Y-145034000D03*
X150622000Y-145034000D03*
%TD*%
D14*
%TO.C,C9*%
X56642000Y-154940000D03*
X58542000Y-154940000D03*
%TD*%
D13*
%TO.C,R159*%
X201977000Y-145034000D03*
X200152000Y-145034000D03*
%TD*%
D15*
%TO.C,R64*%
X102362000Y-139446000D03*
X104187000Y-139446000D03*
%TD*%
D14*
%TO.C,C25*%
X87122000Y-154940000D03*
X89022000Y-154940000D03*
%TD*%
%TO.C,C55*%
X150622000Y-154940000D03*
X152522000Y-154940000D03*
%TD*%
D13*
%TO.C,R37*%
X77517000Y-157734000D03*
X75692000Y-157734000D03*
%TD*%
D15*
%TO.C,R68*%
X106172000Y-139446000D03*
X107997000Y-139446000D03*
%TD*%
D13*
%TO.C,R167*%
X213407000Y-145034000D03*
X211582000Y-145034000D03*
%TD*%
%TO.C,R145*%
X186737000Y-157734000D03*
X184912000Y-157734000D03*
%TD*%
%TO.C,R11*%
X54657000Y-145034000D03*
X52832000Y-145034000D03*
%TD*%
D15*
%TO.C,R164*%
X207772000Y-139446000D03*
X209597000Y-139446000D03*
%TD*%
D13*
%TO.C,R5*%
X46990000Y-157734000D03*
X45165000Y-157734000D03*
%TD*%
D14*
%TO.C,C23*%
X83312000Y-154940000D03*
X85212000Y-154940000D03*
%TD*%
D13*
%TO.C,R147*%
X190547000Y-145034000D03*
X188722000Y-145034000D03*
%TD*%
D14*
%TO.C,C20*%
X79502000Y-142240000D03*
X81402000Y-142240000D03*
%TD*%
D13*
%TO.C,R165*%
X209597000Y-157734000D03*
X207772000Y-157734000D03*
%TD*%
D15*
%TO.C,R54*%
X90932000Y-152146000D03*
X92757000Y-152146000D03*
%TD*%
D13*
%TO.C,R71*%
X111807000Y-145034000D03*
X109982000Y-145034000D03*
%TD*%
%TO.C,R123*%
X167687000Y-145034000D03*
X165862000Y-145034000D03*
%TD*%
%TO.C,R169*%
X213407000Y-157734000D03*
X211582000Y-157734000D03*
%TD*%
%TO.C,R21*%
X62277000Y-157734000D03*
X60452000Y-157734000D03*
%TD*%
D14*
%TO.C,C57*%
X154432000Y-154940000D03*
X156332000Y-154940000D03*
%TD*%
D15*
%TO.C,R94*%
X135382000Y-152146000D03*
X137207000Y-152146000D03*
%TD*%
D13*
%TO.C,R185*%
X248459000Y-96520000D03*
X246634000Y-96520000D03*
%TD*%
D15*
%TO.C,R100*%
X143002000Y-139446000D03*
X144827000Y-139446000D03*
%TD*%
D14*
%TO.C,C63*%
X165862000Y-154940000D03*
X167762000Y-154940000D03*
%TD*%
D15*
%TO.C,R106*%
X146812000Y-152146000D03*
X148637000Y-152146000D03*
%TD*%
%TO.C,R158*%
X196342000Y-152146000D03*
X198167000Y-152146000D03*
%TD*%
D13*
%TO.C,R131*%
X175307000Y-145034000D03*
X173482000Y-145034000D03*
%TD*%
D15*
%TO.C,R88*%
X131572000Y-139446000D03*
X133397000Y-139446000D03*
%TD*%
D14*
%TO.C,C3*%
X45212000Y-154940000D03*
X47112000Y-154940000D03*
%TD*%
D13*
%TO.C,R75*%
X115617000Y-145034000D03*
X113792000Y-145034000D03*
%TD*%
%TO.C,R87*%
X133397000Y-145034000D03*
X131572000Y-145034000D03*
%TD*%
%TO.C,R101*%
X144827000Y-157734000D03*
X143002000Y-157734000D03*
%TD*%
D14*
%TO.C,C88*%
X219202000Y-142240000D03*
X221102000Y-142240000D03*
%TD*%
D15*
%TO.C,R120*%
X162052000Y-139446000D03*
X163877000Y-139446000D03*
%TD*%
%TO.C,R182*%
X223012000Y-152146000D03*
X224837000Y-152146000D03*
%TD*%
D13*
%TO.C,R191*%
X255825000Y-84328000D03*
X254000000Y-84328000D03*
%TD*%
D15*
%TO.C,R192*%
X254000000Y-89916000D03*
X255825000Y-89916000D03*
%TD*%
D14*
%TO.C,C77*%
X192532000Y-154940000D03*
X194432000Y-154940000D03*
%TD*%
%TO.C,C60*%
X162052000Y-142240000D03*
X163952000Y-142240000D03*
%TD*%
D13*
%TO.C,R143*%
X186737000Y-145034000D03*
X184912000Y-145034000D03*
%TD*%
D14*
%TO.C,C22*%
X83312000Y-142240000D03*
X85212000Y-142240000D03*
%TD*%
D15*
%TO.C,R62*%
X98552000Y-152146000D03*
X100377000Y-152146000D03*
%TD*%
D14*
%TO.C,C53*%
X146812000Y-154940000D03*
X148712000Y-154940000D03*
%TD*%
D13*
%TO.C,R157*%
X198167000Y-157734000D03*
X196342000Y-157734000D03*
%TD*%
D15*
%TO.C,R193*%
X30433000Y-85344000D03*
X32258000Y-85344000D03*
%TD*%
D13*
%TO.C,R63*%
X104187000Y-145034000D03*
X102362000Y-145034000D03*
%TD*%
D15*
%TO.C,R162*%
X200152000Y-152146000D03*
X201977000Y-152146000D03*
%TD*%
D13*
%TO.C,R13*%
X54610000Y-157734000D03*
X52785000Y-157734000D03*
%TD*%
D14*
%TO.C,C82*%
X207772000Y-142240000D03*
X209672000Y-142240000D03*
%TD*%
%TO.C,C14*%
X68072000Y-142240000D03*
X69972000Y-142240000D03*
%TD*%
D15*
%TO.C,R174*%
X215392000Y-152146000D03*
X217217000Y-152146000D03*
%TD*%
D14*
%TO.C,C47*%
X135382000Y-154940000D03*
X137282000Y-154940000D03*
%TD*%
%TO.C,C8*%
X56642000Y-142240000D03*
X58542000Y-142240000D03*
%TD*%
D13*
%TO.C,R139*%
X182927000Y-145034000D03*
X181102000Y-145034000D03*
%TD*%
D15*
%TO.C,R166*%
X207772000Y-152146000D03*
X209597000Y-152146000D03*
%TD*%
D13*
%TO.C,R133*%
X175307000Y-157734000D03*
X173482000Y-157734000D03*
%TD*%
D15*
%TO.C,R108*%
X150622000Y-139446000D03*
X152447000Y-139446000D03*
%TD*%
%TO.C,R190*%
X252222000Y-102108000D03*
X254047000Y-102108000D03*
%TD*%
D13*
%TO.C,R69*%
X107997000Y-157734000D03*
X106172000Y-157734000D03*
%TD*%
D14*
%TO.C,C98*%
X24638000Y-88138000D03*
X26538000Y-88138000D03*
%TD*%
%TO.C,C52*%
X146812000Y-142240000D03*
X148712000Y-142240000D03*
%TD*%
%TO.C,C42*%
X122682000Y-142240000D03*
X124582000Y-142240000D03*
%TD*%
D15*
%TO.C,R140*%
X181102000Y-139446000D03*
X182927000Y-139446000D03*
%TD*%
D14*
%TO.C,C92*%
X242824000Y-87122000D03*
X244724000Y-87122000D03*
%TD*%
%TO.C,C45*%
X131572000Y-154940000D03*
X133472000Y-154940000D03*
%TD*%
D15*
%TO.C,R150*%
X188722000Y-152146000D03*
X190547000Y-152146000D03*
%TD*%
D13*
%TO.C,R203*%
X205787000Y-157734000D03*
X203962000Y-157734000D03*
%TD*%
D14*
%TO.C,C28*%
X94742000Y-142240000D03*
X96642000Y-142240000D03*
%TD*%
D13*
%TO.C,R163*%
X209597000Y-145034000D03*
X207772000Y-145034000D03*
%TD*%
D15*
%TO.C,R42*%
X79502000Y-152146000D03*
X81327000Y-152146000D03*
%TD*%
%TO.C,R92*%
X135382000Y-139446000D03*
X137207000Y-139446000D03*
%TD*%
D14*
%TO.C,C72*%
X184912000Y-142240000D03*
X186812000Y-142240000D03*
%TD*%
D13*
%TO.C,R195*%
X26463000Y-85344000D03*
X24638000Y-85344000D03*
%TD*%
D15*
%TO.C,R52*%
X90932000Y-139446000D03*
X92757000Y-139446000D03*
%TD*%
D14*
%TO.C,C33*%
X102362000Y-154940000D03*
X104262000Y-154940000D03*
%TD*%
D15*
%TO.C,R78*%
X113792000Y-152146000D03*
X115617000Y-152146000D03*
%TD*%
D13*
%TO.C,R127*%
X171497000Y-145034000D03*
X169672000Y-145034000D03*
%TD*%
D15*
%TO.C,R82*%
X117602000Y-152146000D03*
X119427000Y-152146000D03*
%TD*%
%TO.C,R90*%
X131572000Y-152146000D03*
X133397000Y-152146000D03*
%TD*%
D13*
%TO.C,R151*%
X194357000Y-145034000D03*
X192532000Y-145034000D03*
%TD*%
D15*
%TO.C,R118*%
X158242000Y-152146000D03*
X160067000Y-152146000D03*
%TD*%
D13*
%TO.C,R149*%
X190547000Y-157734000D03*
X188722000Y-157734000D03*
%TD*%
%TO.C,R175*%
X221027000Y-145034000D03*
X219202000Y-145034000D03*
%TD*%
%TO.C,R47*%
X88947000Y-145034000D03*
X87122000Y-145034000D03*
%TD*%
%TO.C,R89*%
X133397000Y-157734000D03*
X131572000Y-157734000D03*
%TD*%
%TO.C,R41*%
X81327000Y-157734000D03*
X79502000Y-157734000D03*
%TD*%
D15*
%TO.C,R104*%
X146812000Y-139446000D03*
X148637000Y-139446000D03*
%TD*%
D14*
%TO.C,C4*%
X49022000Y-142240000D03*
X50922000Y-142240000D03*
%TD*%
%TO.C,C80*%
X200152000Y-142240000D03*
X202052000Y-142240000D03*
%TD*%
%TO.C,C85*%
X211582000Y-154940000D03*
X213482000Y-154940000D03*
%TD*%
D15*
%TO.C,R40*%
X79502000Y-139446000D03*
X81327000Y-139446000D03*
%TD*%
%TO.C,R36*%
X75692000Y-139446000D03*
X77517000Y-139446000D03*
%TD*%
D17*
%TO.C,J4*%
X114300000Y-114300000D03*
D18*
X114300000Y-111760000D03*
X116840000Y-114300000D03*
X116840000Y-111760000D03*
X119380000Y-114300000D03*
X119380000Y-111760000D03*
X121920000Y-114300000D03*
X121920000Y-111760000D03*
X124460000Y-114300000D03*
X124460000Y-111760000D03*
X127000000Y-114300000D03*
X127000000Y-111760000D03*
X129540000Y-114300000D03*
X129540000Y-111760000D03*
X132080000Y-114300000D03*
X132080000Y-111760000D03*
X134620000Y-114300000D03*
X134620000Y-111760000D03*
X137160000Y-114300000D03*
X137160000Y-111760000D03*
X139700000Y-114300000D03*
X139700000Y-111760000D03*
X142240000Y-114300000D03*
X142240000Y-111760000D03*
X144780000Y-114300000D03*
X144780000Y-111760000D03*
X147320000Y-114300000D03*
X147320000Y-111760000D03*
X149860000Y-114300000D03*
X149860000Y-111760000D03*
X152400000Y-114300000D03*
X152400000Y-111760000D03*
X154940000Y-114300000D03*
X154940000Y-111760000D03*
X157480000Y-114300000D03*
X157480000Y-111760000D03*
X160020000Y-114300000D03*
X160020000Y-111760000D03*
X162560000Y-114300000D03*
X162560000Y-111760000D03*
%TD*%
D13*
%TO.C,R115*%
X160067000Y-145034000D03*
X158242000Y-145034000D03*
%TD*%
D14*
%TO.C,C78*%
X196342000Y-142240000D03*
X198242000Y-142240000D03*
%TD*%
D15*
%TO.C,R58*%
X94742000Y-152146000D03*
X96567000Y-152146000D03*
%TD*%
D14*
%TO.C,C69*%
X177292000Y-154940000D03*
X179192000Y-154940000D03*
%TD*%
D13*
%TO.C,R105*%
X148637000Y-157734000D03*
X146812000Y-157734000D03*
%TD*%
D14*
%TO.C,C87*%
X215392000Y-154940000D03*
X217292000Y-154940000D03*
%TD*%
%TO.C,C40*%
X117602000Y-142240000D03*
X119502000Y-142240000D03*
%TD*%
D15*
%TO.C,R76*%
X113792000Y-139446000D03*
X115617000Y-139446000D03*
%TD*%
D14*
%TO.C,C19*%
X75692000Y-154940000D03*
X77592000Y-154940000D03*
%TD*%
D13*
%TO.C,R31*%
X73660000Y-145034000D03*
X71835000Y-145034000D03*
%TD*%
%TO.C,R119*%
X163877000Y-145034000D03*
X162052000Y-145034000D03*
%TD*%
D14*
%TO.C,C46*%
X135382000Y-142240000D03*
X137282000Y-142240000D03*
%TD*%
D13*
%TO.C,R125*%
X167687000Y-157734000D03*
X165862000Y-157734000D03*
%TD*%
D14*
%TO.C,C27*%
X90932000Y-154940000D03*
X92832000Y-154940000D03*
%TD*%
%TO.C,C5*%
X49022000Y-154940000D03*
X50922000Y-154940000D03*
%TD*%
D15*
%TO.C,R152*%
X192532000Y-139446000D03*
X194357000Y-139446000D03*
%TD*%
%TO.C,R148*%
X188722000Y-139446000D03*
X190547000Y-139446000D03*
%TD*%
%TO.C,R196*%
X24638000Y-90932000D03*
X26463000Y-90932000D03*
%TD*%
D21*
%TO.C,U1*%
X100330000Y-88900000D03*
X100330000Y-90170000D03*
X100330000Y-91440000D03*
X100330000Y-92710000D03*
X100330000Y-93980000D03*
X100330000Y-95250000D03*
X100330000Y-96520000D03*
X105280000Y-96520000D03*
X105280000Y-95250000D03*
X105280000Y-93980000D03*
X105280000Y-92710000D03*
X105280000Y-91440000D03*
X105280000Y-90170000D03*
X105280000Y-88900000D03*
%TD*%
D14*
%TO.C,C70*%
X181102000Y-142240000D03*
X183002000Y-142240000D03*
%TD*%
%TO.C,C62*%
X165862000Y-142240000D03*
X167762000Y-142240000D03*
%TD*%
D15*
%TO.C,R172*%
X215392000Y-139446000D03*
X217217000Y-139446000D03*
%TD*%
%TO.C,R20*%
X60452000Y-139446000D03*
X62277000Y-139446000D03*
%TD*%
D14*
%TO.C,C64*%
X169672000Y-142240000D03*
X171572000Y-142240000D03*
%TD*%
D15*
%TO.C,R202*%
X226822000Y-152146000D03*
X228647000Y-152146000D03*
%TD*%
%TO.C,R170*%
X211582000Y-152146000D03*
X213407000Y-152146000D03*
%TD*%
D13*
%TO.C,R200*%
X103378000Y-107188000D03*
X101553000Y-107188000D03*
%TD*%
D14*
%TO.C,C89*%
X219202000Y-154940000D03*
X221102000Y-154940000D03*
%TD*%
%TO.C,C90*%
X223012000Y-142240000D03*
X224912000Y-142240000D03*
%TD*%
D13*
%TO.C,R59*%
X100377000Y-145034000D03*
X98552000Y-145034000D03*
%TD*%
D16*
%TO.C,C97*%
X32258000Y-88138000D03*
X30358000Y-88138000D03*
%TD*%
D14*
%TO.C,C76*%
X192532000Y-142240000D03*
X194432000Y-142240000D03*
%TD*%
D13*
%TO.C,R55*%
X96567000Y-145034000D03*
X94742000Y-145034000D03*
%TD*%
D15*
%TO.C,R124*%
X165862000Y-139446000D03*
X167687000Y-139446000D03*
%TD*%
%TO.C,R176*%
X219202000Y-139446000D03*
X221027000Y-139446000D03*
%TD*%
D14*
%TO.C,C81*%
X200152000Y-154940000D03*
X202052000Y-154940000D03*
%TD*%
%TO.C,C68*%
X177292000Y-142240000D03*
X179192000Y-142240000D03*
%TD*%
%TO.C,C6*%
X52832000Y-142240000D03*
X54732000Y-142240000D03*
%TD*%
M02*
