M48
; DRILL file {KiCad 7.0.9-1.fc38} date Tue 19 Dec 2023 06:42:32
; FORMAT={-:-/ absolute / inch / decimal}
; #@! TF.CreationDate,2023-12-19T06:42:32+10:00
; #@! TF.GenerationSoftware,Kicad,Pcbnew,7.0.9-1.fc38
; #@! TF.FileFunction,Plated,1,2,PTH
FMAT,2
INCH
; #@! TA.AperFunction,Plated,PTH,ViaDrill
T1C0.0250
; #@! TA.AperFunction,Plated,PTH,ComponentDrill
T2C0.0394
; #@! TA.AperFunction,Plated,PTH,ComponentDrill
T3C0.0400
; #@! TA.AperFunction,Plated,PTH,ComponentDrill
T4C0.1200
%
G90
G05
T1
X1.7Y-5.9
X1.85Y-5.8
X1.85Y-5.9
X2.0Y-5.8
X2.0Y-5.9
X2.15Y-5.8
X2.15Y-5.9
X2.3Y-5.8
X2.3Y-5.9
X2.45Y-5.8
X2.45Y-5.9
X2.6Y-5.8
X2.6Y-5.9
X2.75Y-5.8
X2.75Y-5.9
X2.9Y-5.8
X2.9Y-5.9
X3.05Y-5.8
X3.05Y-5.9
X3.2Y-5.8
X3.2Y-5.9
X3.35Y-5.8
X3.35Y-5.9
X3.5Y-5.8
X3.5Y-5.9
X3.65Y-5.8
X3.65Y-5.9
X3.8Y-5.8
X3.8Y-5.9
X3.95Y-5.8
X3.95Y-5.9
X4.05Y-3.55
X4.05Y-3.8
X4.1Y-5.8
X4.1Y-5.9
X4.25Y-5.8
X4.25Y-5.9
X4.3Y-3.7
X4.3Y-3.9
X4.4Y-5.8
X4.4Y-5.9
X4.5Y-4.2
X4.55Y-5.8
X4.55Y-5.9
X4.7Y-5.8
X4.7Y-5.9
X4.9Y-5.8
X5.0Y-5.9
X5.05Y-4.2
X5.1Y-3.9
X5.2Y-3.7
X5.25Y-5.8
X5.25Y-5.9
X5.4Y-5.8
X5.4Y-5.9
X5.55Y-5.8
X5.55Y-5.9
X5.7Y-5.8
X5.7Y-5.9
X5.85Y-5.8
X5.85Y-5.9
X6.0Y-5.8
X6.0Y-5.9
X6.15Y-5.8
X6.15Y-5.9
X6.3Y-5.8
X6.3Y-5.9
X6.45Y-5.8
X6.45Y-5.9
X6.6Y-5.8
X6.6Y-5.9
X6.75Y-5.8
X6.75Y-5.9
X6.9Y-5.8
X6.9Y-5.9
X7.05Y-5.8
X7.05Y-5.9
X7.2Y-2.9
X7.2Y-5.8
X7.2Y-5.9
X7.35Y-5.8
X7.35Y-5.9
X7.5Y-5.8
X7.5Y-5.9
X7.65Y-5.8
X7.65Y-5.9
X7.8Y-5.8
X7.8Y-5.9
X7.95Y-5.8
X7.95Y-5.9
X8.15Y-4.2
X8.25Y-5.8
X8.25Y-5.9
X8.4Y-5.8
X8.4Y-5.9
X8.55Y-5.8
X8.55Y-5.9
X8.7Y-2.9
X8.7Y-5.8
X8.7Y-5.9
X8.85Y-5.8
X8.85Y-5.9
X9.63Y-3.22
X9.78Y-3.7
X9.85Y-3.22
X10.0Y-3.7
X10.07Y-3.22
T2
X1.07Y-2.9981
X1.17Y-2.9981
X9.65Y-2.93
X9.75Y-2.93
X9.85Y-2.93
X9.95Y-2.93
X10.05Y-2.93
T3
X1.6Y-4.4
X1.6Y-4.5
X1.7Y-4.4
X1.7Y-4.5
X1.8Y-4.4
X1.8Y-4.5
X1.9Y-4.4
X1.9Y-4.5
X1.9007Y-2.2007
X1.9007Y-2.3007
X2.0Y-4.4
X2.0Y-4.5
X2.0007Y-2.2007
X2.0007Y-2.3007
X2.1Y-4.4
X2.1Y-4.5
X2.1007Y-2.2007
X2.1007Y-2.3007
X2.2Y-4.4
X2.2Y-4.5
X2.2007Y-2.2007
X2.2007Y-2.3007
X2.3Y-4.4
X2.3Y-4.5
X2.3007Y-2.2007
X2.3007Y-2.3007
X2.4Y-4.4
X2.4Y-4.5
X2.4007Y-2.2007
X2.4007Y-2.3007
X2.5Y-4.4
X2.5Y-4.5
X2.5007Y-2.2007
X2.5007Y-2.3007
X2.6Y-4.4
X2.6Y-4.5
X2.6007Y-2.2007
X2.6007Y-2.3007
X2.7Y-4.4
X2.7Y-4.5
X2.7007Y-2.2007
X2.7007Y-2.3007
X2.8Y-4.4
X2.8Y-4.5
X2.8007Y-2.2007
X2.8007Y-2.3007
X2.9Y-4.4
X2.9Y-4.5
X2.9007Y-2.2007
X2.9007Y-2.3007
X3.0Y-4.4
X3.0Y-4.5
X3.0007Y-2.2007
X3.0007Y-2.3007
X3.1Y-4.4
X3.1Y-4.5
X3.1007Y-2.2007
X3.1007Y-2.3007
X3.2Y-4.4
X3.2Y-4.5
X3.2007Y-2.2007
X3.2007Y-2.3007
X3.3Y-4.4
X3.3Y-4.5
X3.3007Y-2.2007
X3.3007Y-2.3007
X3.4Y-4.4
X3.4Y-4.5
X3.4007Y-2.2007
X3.4007Y-2.3007
X3.5Y-4.4
X3.5Y-4.5
X3.5007Y-2.2007
X3.5007Y-2.3007
X3.6007Y-2.2007
X3.6007Y-2.3007
X3.7007Y-2.2007
X3.7007Y-2.3007
X3.8007Y-2.2007
X3.8007Y-2.3007
X4.5Y-2.2
X4.5Y-2.3
X4.5Y-4.4
X4.5Y-4.5
X4.6Y-2.2
X4.6Y-2.3
X4.6Y-4.4
X4.6Y-4.5
X4.7Y-2.2
X4.7Y-2.3
X4.7Y-4.4
X4.7Y-4.5
X4.8Y-2.2
X4.8Y-2.3
X4.8Y-4.4
X4.8Y-4.5
X4.9Y-2.2
X4.9Y-2.3
X4.9Y-4.4
X4.9Y-4.5
X5.0Y-2.2
X5.0Y-2.3
X5.0Y-4.4
X5.0Y-4.5
X5.1Y-2.2
X5.1Y-2.3
X5.1Y-4.4
X5.1Y-4.5
X5.2Y-2.2
X5.2Y-2.3
X5.2Y-4.4
X5.2Y-4.5
X5.3Y-2.2
X5.3Y-2.3
X5.3Y-4.4
X5.3Y-4.5
X5.4Y-2.2
X5.4Y-2.3
X5.4Y-4.4
X5.4Y-4.5
X5.5Y-2.2
X5.5Y-2.3
X5.5Y-4.4
X5.5Y-4.5
X5.6Y-2.2
X5.6Y-2.3
X5.6Y-4.4
X5.6Y-4.5
X5.7Y-2.2
X5.7Y-2.3
X5.7Y-4.4
X5.7Y-4.5
X5.8Y-2.2
X5.8Y-2.3
X5.8Y-4.4
X5.8Y-4.5
X5.9Y-2.2
X5.9Y-2.3
X5.9Y-4.4
X5.9Y-4.5
X6.0Y-2.2
X6.0Y-2.3
X6.0Y-4.4
X6.0Y-4.5
X6.1Y-2.2
X6.1Y-2.3
X6.1Y-4.4
X6.1Y-4.5
X6.2Y-2.2
X6.2Y-2.3
X6.2Y-4.4
X6.2Y-4.5
X6.3Y-2.2
X6.3Y-2.3
X6.3Y-4.4
X6.3Y-4.5
X6.4Y-2.2
X6.4Y-2.3
X6.4Y-4.4
X6.4Y-4.5
X7.1Y-2.2
X7.1Y-2.3
X7.2Y-2.2
X7.2Y-2.3
X7.3Y-2.2
X7.3Y-2.3
X7.4Y-2.2
X7.4Y-2.3
X7.4Y-4.4
X7.4Y-4.5
X7.5Y-2.2
X7.5Y-2.3
X7.5Y-4.4
X7.5Y-4.5
X7.6Y-2.2
X7.6Y-2.3
X7.6Y-4.4
X7.6Y-4.5
X7.7Y-2.2
X7.7Y-2.3
X7.7Y-4.4
X7.7Y-4.5
X7.8Y-2.2
X7.8Y-2.3
X7.8Y-4.4
X7.8Y-4.5
X7.9Y-2.2
X7.9Y-2.3
X7.9Y-4.4
X7.9Y-4.5
X8.0Y-2.2
X8.0Y-2.3
X8.0Y-4.4
X8.0Y-4.5
X8.1Y-2.2
X8.1Y-2.3
X8.1Y-4.4
X8.1Y-4.5
X8.2Y-2.2
X8.2Y-2.3
X8.2Y-4.4
X8.2Y-4.5
X8.3Y-2.2
X8.3Y-2.3
X8.3Y-4.4
X8.3Y-4.5
X8.4Y-2.2
X8.4Y-2.3
X8.4Y-4.4
X8.4Y-4.5
X8.5Y-2.2
X8.5Y-2.3
X8.5Y-4.4
X8.5Y-4.5
X8.6Y-2.2
X8.6Y-2.3
X8.6Y-4.4
X8.6Y-4.5
X8.7Y-2.2
X8.7Y-2.3
X8.7Y-4.4
X8.7Y-4.5
X8.8Y-2.2
X8.8Y-2.3
X8.8Y-4.4
X8.8Y-4.5
X8.9Y-2.2
X8.9Y-2.3
X8.9Y-4.4
X8.9Y-4.5
X9.0Y-2.2
X9.0Y-2.3
X9.0Y-4.4
X9.0Y-4.5
X9.1Y-4.4
X9.1Y-4.5
X9.2Y-4.4
X9.2Y-4.5
X9.3Y-4.4
X9.3Y-4.5
T4
X0.75Y-2.05
X10.25Y-2.05
T0
M30
