%TF.GenerationSoftware,KiCad,Pcbnew,7.0.9-1.fc38*%
%TF.CreationDate,2023-12-23T08:54:25+10:00*%
%TF.ProjectId,LogicAnalyserSMD,4c6f6769-6341-46e6-916c-79736572534d,0.3*%
%TF.SameCoordinates,Original*%
%TF.FileFunction,Soldermask,Bot*%
%TF.FilePolarity,Negative*%
%FSLAX46Y46*%
G04 Gerber Fmt 4.6, Leading zero omitted, Abs format (unit mm)*
G04 Created by KiCad (PCBNEW 7.0.9-1.fc38) date 2023-12-23 08:54:25*
%MOMM*%
%LPD*%
G01*
G04 APERTURE LIST*
G04 Aperture macros list*
%AMRoundRect*
0 Rectangle with rounded corners*
0 $1 Rounding radius*
0 $2 $3 $4 $5 $6 $7 $8 $9 X,Y pos of 4 corners*
0 Add a 4 corners polygon primitive as box body*
4,1,4,$2,$3,$4,$5,$6,$7,$8,$9,$2,$3,0*
0 Add four circle primitives for the rounded corners*
1,1,$1+$1,$2,$3*
1,1,$1+$1,$4,$5*
1,1,$1+$1,$6,$7*
1,1,$1+$1,$8,$9*
0 Add four rect primitives between the rounded corners*
20,1,$1+$1,$2,$3,$4,$5,0*
20,1,$1+$1,$4,$5,$6,$7,0*
20,1,$1+$1,$6,$7,$8,$9,0*
20,1,$1+$1,$8,$9,$2,$3,0*%
G04 Aperture macros list end*
%ADD10RoundRect,0.254000X-1.397000X-3.810000X1.397000X-3.810000X1.397000X3.810000X-1.397000X3.810000X0*%
%ADD11RoundRect,0.254000X-0.889000X-3.810000X0.889000X-3.810000X0.889000X3.810000X-0.889000X3.810000X0*%
%ADD12C,4.572000*%
%ADD13RoundRect,0.478118X0.537882X-0.537882X0.537882X0.537882X-0.537882X0.537882X-0.537882X-0.537882X0*%
%ADD14C,2.032000*%
%ADD15RoundRect,0.254000X0.850000X-0.850000X0.850000X0.850000X-0.850000X0.850000X-0.850000X-0.850000X0*%
%ADD16O,2.208000X2.208000*%
G04 APERTURE END LIST*
D10*
%TO.C,P1*%
X53467000Y-175641000D03*
D11*
X57150000Y-175641000D03*
X60325000Y-175641000D03*
X63500000Y-175641000D03*
X66675000Y-175641000D03*
X69850000Y-175641000D03*
X73025000Y-175641000D03*
X76200000Y-175641000D03*
X79375000Y-175641000D03*
X82550000Y-175641000D03*
X85725000Y-175641000D03*
X88900000Y-175641000D03*
X92075000Y-175641000D03*
X95250000Y-175641000D03*
X98425000Y-175641000D03*
X101600000Y-175641000D03*
X104775000Y-175641000D03*
X107950000Y-175641000D03*
X111125000Y-175641000D03*
X114300000Y-175641000D03*
X117475000Y-175641000D03*
X120650000Y-175641000D03*
X123825000Y-175641000D03*
X127000000Y-175641000D03*
X130175000Y-175641000D03*
X133350000Y-175641000D03*
X136525000Y-175641000D03*
X139700000Y-175641000D03*
X142875000Y-175641000D03*
X146050000Y-175641000D03*
X149225000Y-175641000D03*
X152400000Y-175641000D03*
X155575000Y-175641000D03*
X158750000Y-175641000D03*
X161925000Y-175641000D03*
X165100000Y-175641000D03*
X168275000Y-175641000D03*
X171450000Y-175641000D03*
X174625000Y-175641000D03*
X177800000Y-175641000D03*
X180975000Y-175641000D03*
X184150000Y-175641000D03*
X187325000Y-175641000D03*
X190500000Y-175641000D03*
X193675000Y-175641000D03*
X196850000Y-175641000D03*
X200025000Y-175641000D03*
X203200000Y-175641000D03*
X206375000Y-175641000D03*
D10*
X210058000Y-175641000D03*
%TD*%
D12*
%TO.C,P35*%
X260350000Y-52070000D03*
%TD*%
%TO.C,P34*%
X19050000Y-52070000D03*
%TD*%
D13*
%TO.C,J3*%
X114300000Y-58420000D03*
D14*
X114300000Y-55880000D03*
X116840000Y-58420000D03*
X116840000Y-55880000D03*
X119380000Y-58420000D03*
X119380000Y-55880000D03*
X121920000Y-58420000D03*
X121920000Y-55880000D03*
X124460000Y-58420000D03*
X124460000Y-55880000D03*
X127000000Y-58420000D03*
X127000000Y-55880000D03*
X129540000Y-58420000D03*
X129540000Y-55880000D03*
X132080000Y-58420000D03*
X132080000Y-55880000D03*
X134620000Y-58420000D03*
X134620000Y-55880000D03*
X137160000Y-58420000D03*
X137160000Y-55880000D03*
X139700000Y-58420000D03*
X139700000Y-55880000D03*
X142240000Y-58420000D03*
X142240000Y-55880000D03*
X144780000Y-58420000D03*
X144780000Y-55880000D03*
X147320000Y-58420000D03*
X147320000Y-55880000D03*
X149860000Y-58420000D03*
X149860000Y-55880000D03*
X152400000Y-58420000D03*
X152400000Y-55880000D03*
X154940000Y-58420000D03*
X154940000Y-55880000D03*
X157480000Y-58420000D03*
X157480000Y-55880000D03*
X160020000Y-58420000D03*
X160020000Y-55880000D03*
X162560000Y-58420000D03*
X162560000Y-55880000D03*
%TD*%
D13*
%TO.C,J6*%
X187960000Y-114300000D03*
D14*
X187960000Y-111760000D03*
X190500000Y-114300000D03*
X190500000Y-111760000D03*
X193040000Y-114300000D03*
X193040000Y-111760000D03*
X195580000Y-114300000D03*
X195580000Y-111760000D03*
X198120000Y-114300000D03*
X198120000Y-111760000D03*
X200660000Y-114300000D03*
X200660000Y-111760000D03*
X203200000Y-114300000D03*
X203200000Y-111760000D03*
X205740000Y-114300000D03*
X205740000Y-111760000D03*
X208280000Y-114300000D03*
X208280000Y-111760000D03*
X210820000Y-114300000D03*
X210820000Y-111760000D03*
X213360000Y-114300000D03*
X213360000Y-111760000D03*
X215900000Y-114300000D03*
X215900000Y-111760000D03*
X218440000Y-114300000D03*
X218440000Y-111760000D03*
X220980000Y-114300000D03*
X220980000Y-111760000D03*
X223520000Y-114300000D03*
X223520000Y-111760000D03*
X226060000Y-114300000D03*
X226060000Y-111760000D03*
X228600000Y-114300000D03*
X228600000Y-111760000D03*
X231140000Y-114300000D03*
X231140000Y-111760000D03*
X233680000Y-114300000D03*
X233680000Y-111760000D03*
X236220000Y-114300000D03*
X236220000Y-111760000D03*
%TD*%
D13*
%TO.C,J5*%
X180340000Y-58420000D03*
D14*
X180340000Y-55880000D03*
X182880000Y-58420000D03*
X182880000Y-55880000D03*
X185420000Y-58420000D03*
X185420000Y-55880000D03*
X187960000Y-58420000D03*
X187960000Y-55880000D03*
X190500000Y-58420000D03*
X190500000Y-55880000D03*
X193040000Y-58420000D03*
X193040000Y-55880000D03*
X195580000Y-58420000D03*
X195580000Y-55880000D03*
X198120000Y-58420000D03*
X198120000Y-55880000D03*
X200660000Y-58420000D03*
X200660000Y-55880000D03*
X203200000Y-58420000D03*
X203200000Y-55880000D03*
X205740000Y-58420000D03*
X205740000Y-55880000D03*
X208280000Y-58420000D03*
X208280000Y-55880000D03*
X210820000Y-58420000D03*
X210820000Y-55880000D03*
X213360000Y-58420000D03*
X213360000Y-55880000D03*
X215900000Y-58420000D03*
X215900000Y-55880000D03*
X218440000Y-58420000D03*
X218440000Y-55880000D03*
X220980000Y-58420000D03*
X220980000Y-55880000D03*
X223520000Y-58420000D03*
X223520000Y-55880000D03*
X226060000Y-58420000D03*
X226060000Y-55880000D03*
X228600000Y-58420000D03*
X228600000Y-55880000D03*
%TD*%
D13*
%TO.C,J1*%
X48276803Y-58436803D03*
D14*
X48276803Y-55896803D03*
X50816803Y-58436803D03*
X50816803Y-55896803D03*
X53356803Y-58436803D03*
X53356803Y-55896803D03*
X55896803Y-58436803D03*
X55896803Y-55896803D03*
X58436803Y-58436803D03*
X58436803Y-55896803D03*
X60976803Y-58436803D03*
X60976803Y-55896803D03*
X63516803Y-58436803D03*
X63516803Y-55896803D03*
X66056803Y-58436803D03*
X66056803Y-55896803D03*
X68596803Y-58436803D03*
X68596803Y-55896803D03*
X71136803Y-58436803D03*
X71136803Y-55896803D03*
X73676803Y-58436803D03*
X73676803Y-55896803D03*
X76216803Y-58436803D03*
X76216803Y-55896803D03*
X78756803Y-58436803D03*
X78756803Y-55896803D03*
X81296803Y-58436803D03*
X81296803Y-55896803D03*
X83836803Y-58436803D03*
X83836803Y-55896803D03*
X86376803Y-58436803D03*
X86376803Y-55896803D03*
X88916803Y-58436803D03*
X88916803Y-55896803D03*
X91456803Y-58436803D03*
X91456803Y-55896803D03*
X93996803Y-58436803D03*
X93996803Y-55896803D03*
X96536803Y-58436803D03*
X96536803Y-55896803D03*
%TD*%
D15*
%TO.C,J8*%
X27178000Y-76153000D03*
D16*
X29718000Y-76153000D03*
%TD*%
D15*
%TO.C,J7*%
X245110000Y-74422000D03*
D16*
X247650000Y-74422000D03*
X250190000Y-74422000D03*
X252730000Y-74422000D03*
X255270000Y-74422000D03*
%TD*%
D13*
%TO.C,J2*%
X40640000Y-114300000D03*
D14*
X40640000Y-111760000D03*
X43180000Y-114300000D03*
X43180000Y-111760000D03*
X45720000Y-114300000D03*
X45720000Y-111760000D03*
X48260000Y-114300000D03*
X48260000Y-111760000D03*
X50800000Y-114300000D03*
X50800000Y-111760000D03*
X53340000Y-114300000D03*
X53340000Y-111760000D03*
X55880000Y-114300000D03*
X55880000Y-111760000D03*
X58420000Y-114300000D03*
X58420000Y-111760000D03*
X60960000Y-114300000D03*
X60960000Y-111760000D03*
X63500000Y-114300000D03*
X63500000Y-111760000D03*
X66040000Y-114300000D03*
X66040000Y-111760000D03*
X68580000Y-114300000D03*
X68580000Y-111760000D03*
X71120000Y-114300000D03*
X71120000Y-111760000D03*
X73660000Y-114300000D03*
X73660000Y-111760000D03*
X76200000Y-114300000D03*
X76200000Y-111760000D03*
X78740000Y-114300000D03*
X78740000Y-111760000D03*
X81280000Y-114300000D03*
X81280000Y-111760000D03*
X83820000Y-114300000D03*
X83820000Y-111760000D03*
X86360000Y-114300000D03*
X86360000Y-111760000D03*
X88900000Y-114300000D03*
X88900000Y-111760000D03*
%TD*%
D13*
%TO.C,J4*%
X114300000Y-114300000D03*
D14*
X114300000Y-111760000D03*
X116840000Y-114300000D03*
X116840000Y-111760000D03*
X119380000Y-114300000D03*
X119380000Y-111760000D03*
X121920000Y-114300000D03*
X121920000Y-111760000D03*
X124460000Y-114300000D03*
X124460000Y-111760000D03*
X127000000Y-114300000D03*
X127000000Y-111760000D03*
X129540000Y-114300000D03*
X129540000Y-111760000D03*
X132080000Y-114300000D03*
X132080000Y-111760000D03*
X134620000Y-114300000D03*
X134620000Y-111760000D03*
X137160000Y-114300000D03*
X137160000Y-111760000D03*
X139700000Y-114300000D03*
X139700000Y-111760000D03*
X142240000Y-114300000D03*
X142240000Y-111760000D03*
X144780000Y-114300000D03*
X144780000Y-111760000D03*
X147320000Y-114300000D03*
X147320000Y-111760000D03*
X149860000Y-114300000D03*
X149860000Y-111760000D03*
X152400000Y-114300000D03*
X152400000Y-111760000D03*
X154940000Y-114300000D03*
X154940000Y-111760000D03*
X157480000Y-114300000D03*
X157480000Y-111760000D03*
X160020000Y-114300000D03*
X160020000Y-111760000D03*
X162560000Y-114300000D03*
X162560000Y-111760000D03*
%TD*%
M02*
