G04 (created by PCBNEW (2013-07-07 BZR 4022)-stable) date 13/10/2017 14:23:44*
%MOIN*%
G04 Gerber Fmt 3.4, Leading zero omitted, Abs format*
%FSLAX34Y34*%
G01*
G70*
G90*
G04 APERTURE LIST*
%ADD10C,0.00590551*%
%ADD11C,0.012*%
%ADD12C,0.005*%
%ADD13C,0.015*%
%ADD14C,0.006*%
%ADD15C,0.003*%
%ADD16C,0.008*%
%ADD17C,0.0075*%
%ADD18C,0.01*%
%ADD19C,0.01125*%
%ADD20C,0.0113*%
%ADD21C,0.0035*%
%ADD22C,0.0106*%
G04 APERTURE END LIST*
G54D10*
G54D11*
X86925Y-66584D02*
X87010Y-66622D01*
X87153Y-66622D01*
X87210Y-66584D01*
X87239Y-66546D01*
X87268Y-66470D01*
X87268Y-66394D01*
X87239Y-66318D01*
X87210Y-66279D01*
X87153Y-66241D01*
X87039Y-66203D01*
X86982Y-66165D01*
X86953Y-66127D01*
X86925Y-66051D01*
X86925Y-65975D01*
X86953Y-65899D01*
X86982Y-65860D01*
X87039Y-65822D01*
X87182Y-65822D01*
X87268Y-65860D01*
X87525Y-66318D02*
X87982Y-66318D01*
X88582Y-66622D02*
X88239Y-66622D01*
X88410Y-66622D02*
X88410Y-65822D01*
X88353Y-65937D01*
X88296Y-66013D01*
X88239Y-66051D01*
X88953Y-65822D02*
X89011Y-65822D01*
X89068Y-65860D01*
X89096Y-65899D01*
X89125Y-65975D01*
X89153Y-66127D01*
X89153Y-66318D01*
X89125Y-66470D01*
X89096Y-66546D01*
X89068Y-66584D01*
X89011Y-66622D01*
X88953Y-66622D01*
X88896Y-66584D01*
X88868Y-66546D01*
X88839Y-66470D01*
X88811Y-66318D01*
X88811Y-66127D01*
X88839Y-65975D01*
X88868Y-65899D01*
X88896Y-65860D01*
X88953Y-65822D01*
X89525Y-65822D02*
X89582Y-65822D01*
X89639Y-65860D01*
X89668Y-65899D01*
X89696Y-65975D01*
X89725Y-66127D01*
X89725Y-66318D01*
X89696Y-66470D01*
X89668Y-66546D01*
X89639Y-66584D01*
X89582Y-66622D01*
X89525Y-66622D01*
X89468Y-66584D01*
X89439Y-66546D01*
X89411Y-66470D01*
X89382Y-66318D01*
X89382Y-66127D01*
X89411Y-65975D01*
X89439Y-65899D01*
X89468Y-65860D01*
X89525Y-65822D01*
X90639Y-66203D02*
X90725Y-66241D01*
X90753Y-66279D01*
X90782Y-66356D01*
X90782Y-66470D01*
X90753Y-66546D01*
X90725Y-66584D01*
X90668Y-66622D01*
X90439Y-66622D01*
X90439Y-65822D01*
X90639Y-65822D01*
X90696Y-65860D01*
X90725Y-65899D01*
X90753Y-65975D01*
X90753Y-66051D01*
X90725Y-66127D01*
X90696Y-66165D01*
X90639Y-66203D01*
X90439Y-66203D01*
X91039Y-65822D02*
X91039Y-66470D01*
X91068Y-66546D01*
X91096Y-66584D01*
X91153Y-66622D01*
X91268Y-66622D01*
X91325Y-66584D01*
X91353Y-66546D01*
X91382Y-66470D01*
X91382Y-65822D01*
X91639Y-66584D02*
X91725Y-66622D01*
X91868Y-66622D01*
X91925Y-66584D01*
X91953Y-66546D01*
X91982Y-66470D01*
X91982Y-66394D01*
X91953Y-66318D01*
X91925Y-66279D01*
X91868Y-66241D01*
X91753Y-66203D01*
X91696Y-66165D01*
X91668Y-66127D01*
X91639Y-66051D01*
X91639Y-65975D01*
X91668Y-65899D01*
X91696Y-65860D01*
X91753Y-65822D01*
X91896Y-65822D01*
X91982Y-65860D01*
X92696Y-66203D02*
X92896Y-66203D01*
X92982Y-66622D02*
X92696Y-66622D01*
X92696Y-65822D01*
X92982Y-65822D01*
X93182Y-65822D02*
X93582Y-66622D01*
X93582Y-65822D02*
X93182Y-66622D01*
X93725Y-65822D02*
X94068Y-65822D01*
X93896Y-66622D02*
X93896Y-65822D01*
X94268Y-66203D02*
X94468Y-66203D01*
X94553Y-66622D02*
X94268Y-66622D01*
X94268Y-65822D01*
X94553Y-65822D01*
X94811Y-66622D02*
X94811Y-65822D01*
X95153Y-66622D01*
X95153Y-65822D01*
X95439Y-66622D02*
X95439Y-65822D01*
X95582Y-65822D01*
X95668Y-65860D01*
X95725Y-65937D01*
X95753Y-66013D01*
X95782Y-66165D01*
X95782Y-66279D01*
X95753Y-66432D01*
X95725Y-66508D01*
X95668Y-66584D01*
X95582Y-66622D01*
X95439Y-66622D01*
X96039Y-66203D02*
X96239Y-66203D01*
X96325Y-66622D02*
X96039Y-66622D01*
X96039Y-65822D01*
X96325Y-65822D01*
X96925Y-66622D02*
X96725Y-66241D01*
X96582Y-66622D02*
X96582Y-65822D01*
X96811Y-65822D01*
X96868Y-65860D01*
X96896Y-65899D01*
X96925Y-65975D01*
X96925Y-66089D01*
X96896Y-66165D01*
X96868Y-66203D01*
X96811Y-66241D01*
X96582Y-66241D01*
X97553Y-65822D02*
X97753Y-66622D01*
X97953Y-65822D01*
X98153Y-66203D02*
X98353Y-66203D01*
X98439Y-66622D02*
X98153Y-66622D01*
X98153Y-65822D01*
X98439Y-65822D01*
X99039Y-66622D02*
X98839Y-66241D01*
X98696Y-66622D02*
X98696Y-65822D01*
X98925Y-65822D01*
X98982Y-65860D01*
X99011Y-65899D01*
X99039Y-65975D01*
X99039Y-66089D01*
X99011Y-66165D01*
X98982Y-66203D01*
X98925Y-66241D01*
X98696Y-66241D01*
X99268Y-66584D02*
X99353Y-66622D01*
X99496Y-66622D01*
X99553Y-66584D01*
X99582Y-66546D01*
X99611Y-66470D01*
X99611Y-66394D01*
X99582Y-66318D01*
X99553Y-66279D01*
X99496Y-66241D01*
X99382Y-66203D01*
X99325Y-66165D01*
X99296Y-66127D01*
X99268Y-66051D01*
X99268Y-65975D01*
X99296Y-65899D01*
X99325Y-65860D01*
X99382Y-65822D01*
X99525Y-65822D01*
X99611Y-65860D01*
X99868Y-66622D02*
X99868Y-65822D01*
X100268Y-65822D02*
X100382Y-65822D01*
X100439Y-65860D01*
X100496Y-65937D01*
X100525Y-66089D01*
X100525Y-66356D01*
X100496Y-66508D01*
X100439Y-66584D01*
X100382Y-66622D01*
X100268Y-66622D01*
X100211Y-66584D01*
X100153Y-66508D01*
X100125Y-66356D01*
X100125Y-66089D01*
X100153Y-65937D01*
X100211Y-65860D01*
X100268Y-65822D01*
X100782Y-66622D02*
X100782Y-65822D01*
X101125Y-66622D01*
X101125Y-65822D01*
X101782Y-65822D02*
X101982Y-66622D01*
X102182Y-65822D01*
X102353Y-65899D02*
X102382Y-65860D01*
X102439Y-65822D01*
X102582Y-65822D01*
X102639Y-65860D01*
X102668Y-65899D01*
X102696Y-65975D01*
X102696Y-66051D01*
X102668Y-66165D01*
X102325Y-66622D01*
X102696Y-66622D01*
X102953Y-66546D02*
X102982Y-66584D01*
X102953Y-66622D01*
X102925Y-66584D01*
X102953Y-66546D01*
X102953Y-66622D01*
X103353Y-65822D02*
X103411Y-65822D01*
X103468Y-65860D01*
X103496Y-65899D01*
X103525Y-65975D01*
X103553Y-66127D01*
X103553Y-66318D01*
X103525Y-66470D01*
X103496Y-66546D01*
X103468Y-66584D01*
X103411Y-66622D01*
X103353Y-66622D01*
X103296Y-66584D01*
X103268Y-66546D01*
X103239Y-66470D01*
X103211Y-66318D01*
X103211Y-66127D01*
X103239Y-65975D01*
X103268Y-65899D01*
X103296Y-65860D01*
X103353Y-65822D01*
X104068Y-66622D02*
X104068Y-66203D01*
X104039Y-66127D01*
X103982Y-66089D01*
X103868Y-66089D01*
X103811Y-66127D01*
X104068Y-66584D02*
X104011Y-66622D01*
X103868Y-66622D01*
X103811Y-66584D01*
X103782Y-66508D01*
X103782Y-66432D01*
X103811Y-66356D01*
X103868Y-66318D01*
X104011Y-66318D01*
X104068Y-66279D01*
X90628Y-18323D02*
X90428Y-17942D01*
X90285Y-18323D02*
X90285Y-17523D01*
X90514Y-17523D01*
X90571Y-17561D01*
X90600Y-17600D01*
X90628Y-17676D01*
X90628Y-17790D01*
X90600Y-17866D01*
X90571Y-17904D01*
X90514Y-17942D01*
X90285Y-17942D01*
X90885Y-17904D02*
X91085Y-17904D01*
X91171Y-18323D02*
X90885Y-18323D01*
X90885Y-17523D01*
X91171Y-17523D01*
X91400Y-18285D02*
X91485Y-18323D01*
X91628Y-18323D01*
X91685Y-18285D01*
X91714Y-18247D01*
X91742Y-18171D01*
X91742Y-18095D01*
X91714Y-18019D01*
X91685Y-17980D01*
X91628Y-17942D01*
X91514Y-17904D01*
X91457Y-17866D01*
X91428Y-17828D01*
X91400Y-17752D01*
X91400Y-17676D01*
X91428Y-17600D01*
X91457Y-17561D01*
X91514Y-17523D01*
X91657Y-17523D01*
X91742Y-17561D01*
X92000Y-17904D02*
X92200Y-17904D01*
X92285Y-18323D02*
X92000Y-18323D01*
X92000Y-17523D01*
X92285Y-17523D01*
X92457Y-17523D02*
X92800Y-17523D01*
X92628Y-18323D02*
X92628Y-17523D01*
X96042Y-13561D02*
X95985Y-13523D01*
X95900Y-13523D01*
X95814Y-13561D01*
X95757Y-13638D01*
X95728Y-13714D01*
X95700Y-13866D01*
X95700Y-13980D01*
X95728Y-14133D01*
X95757Y-14209D01*
X95814Y-14285D01*
X95900Y-14323D01*
X95957Y-14323D01*
X96042Y-14285D01*
X96071Y-14247D01*
X96071Y-13980D01*
X95957Y-13980D01*
X96328Y-14323D02*
X96328Y-13523D01*
X96671Y-14323D01*
X96671Y-13523D01*
X96957Y-14323D02*
X96957Y-13523D01*
X97100Y-13523D01*
X97185Y-13561D01*
X97242Y-13638D01*
X97271Y-13714D01*
X97300Y-13866D01*
X97300Y-13980D01*
X97271Y-14133D01*
X97242Y-14209D01*
X97185Y-14285D01*
X97100Y-14323D01*
X96957Y-14323D01*
X89200Y-13523D02*
X89400Y-14323D01*
X89600Y-13523D01*
X90142Y-14247D02*
X90114Y-14285D01*
X90028Y-14323D01*
X89971Y-14323D01*
X89885Y-14285D01*
X89828Y-14209D01*
X89800Y-14133D01*
X89771Y-13980D01*
X89771Y-13866D01*
X89800Y-13714D01*
X89828Y-13638D01*
X89885Y-13561D01*
X89971Y-13523D01*
X90028Y-13523D01*
X90114Y-13561D01*
X90142Y-13600D01*
X90742Y-14247D02*
X90714Y-14285D01*
X90628Y-14323D01*
X90571Y-14323D01*
X90485Y-14285D01*
X90428Y-14209D01*
X90400Y-14133D01*
X90371Y-13980D01*
X90371Y-13866D01*
X90400Y-13714D01*
X90428Y-13638D01*
X90485Y-13561D01*
X90571Y-13523D01*
X90628Y-13523D01*
X90714Y-13561D01*
X90742Y-13600D01*
X13942Y-20519D02*
X14400Y-20519D01*
X15000Y-20823D02*
X14657Y-20823D01*
X14828Y-20823D02*
X14828Y-20023D01*
X14771Y-20138D01*
X14714Y-20214D01*
X14657Y-20252D01*
X15514Y-20023D02*
X15400Y-20023D01*
X15342Y-20061D01*
X15314Y-20100D01*
X15257Y-20214D01*
X15228Y-20366D01*
X15228Y-20671D01*
X15257Y-20747D01*
X15285Y-20785D01*
X15342Y-20823D01*
X15457Y-20823D01*
X15514Y-20785D01*
X15542Y-20747D01*
X15571Y-20671D01*
X15571Y-20480D01*
X15542Y-20404D01*
X15514Y-20366D01*
X15457Y-20328D01*
X15342Y-20328D01*
X15285Y-20366D01*
X15257Y-20404D01*
X15228Y-20480D01*
X15742Y-20023D02*
X15942Y-20823D01*
X16142Y-20023D01*
X11442Y-20519D02*
X11900Y-20519D01*
X11671Y-20823D02*
X11671Y-20214D01*
X12500Y-20823D02*
X12157Y-20823D01*
X12328Y-20823D02*
X12328Y-20023D01*
X12271Y-20138D01*
X12214Y-20214D01*
X12157Y-20252D01*
X13014Y-20023D02*
X12900Y-20023D01*
X12842Y-20061D01*
X12814Y-20100D01*
X12757Y-20214D01*
X12728Y-20366D01*
X12728Y-20671D01*
X12757Y-20747D01*
X12785Y-20785D01*
X12842Y-20823D01*
X12957Y-20823D01*
X13014Y-20785D01*
X13042Y-20747D01*
X13071Y-20671D01*
X13071Y-20480D01*
X13042Y-20404D01*
X13014Y-20366D01*
X12957Y-20328D01*
X12842Y-20328D01*
X12785Y-20366D01*
X12757Y-20404D01*
X12728Y-20480D01*
X13242Y-20023D02*
X13442Y-20823D01*
X13642Y-20023D01*
X9228Y-20519D02*
X9685Y-20519D01*
X9457Y-20823D02*
X9457Y-20214D01*
X10057Y-20366D02*
X10000Y-20328D01*
X9971Y-20290D01*
X9942Y-20214D01*
X9942Y-20176D01*
X9971Y-20100D01*
X10000Y-20061D01*
X10057Y-20023D01*
X10171Y-20023D01*
X10228Y-20061D01*
X10257Y-20100D01*
X10285Y-20176D01*
X10285Y-20214D01*
X10257Y-20290D01*
X10228Y-20328D01*
X10171Y-20366D01*
X10057Y-20366D01*
X10000Y-20404D01*
X9971Y-20442D01*
X9942Y-20519D01*
X9942Y-20671D01*
X9971Y-20747D01*
X10000Y-20785D01*
X10057Y-20823D01*
X10171Y-20823D01*
X10228Y-20785D01*
X10257Y-20747D01*
X10285Y-20671D01*
X10285Y-20519D01*
X10257Y-20442D01*
X10228Y-20404D01*
X10171Y-20366D01*
X10457Y-20023D02*
X10657Y-20823D01*
X10857Y-20023D01*
X14378Y-14573D02*
X14378Y-13773D01*
X14378Y-14154D02*
X14721Y-14154D01*
X14721Y-14573D02*
X14721Y-13773D01*
X15007Y-14573D02*
X15007Y-13773D01*
X15578Y-14573D02*
X15292Y-14573D01*
X15292Y-13773D01*
X15892Y-13773D02*
X16007Y-13773D01*
X16064Y-13811D01*
X16121Y-13888D01*
X16150Y-14040D01*
X16150Y-14307D01*
X16121Y-14459D01*
X16064Y-14535D01*
X16007Y-14573D01*
X15892Y-14573D01*
X15835Y-14535D01*
X15778Y-14459D01*
X15750Y-14307D01*
X15750Y-14040D01*
X15778Y-13888D01*
X15835Y-13811D01*
X15892Y-13773D01*
X9664Y-14573D02*
X9378Y-14573D01*
X9378Y-13773D01*
X9978Y-13773D02*
X10092Y-13773D01*
X10150Y-13811D01*
X10207Y-13888D01*
X10235Y-14040D01*
X10235Y-14307D01*
X10207Y-14459D01*
X10150Y-14535D01*
X10092Y-14573D01*
X9978Y-14573D01*
X9921Y-14535D01*
X9864Y-14459D01*
X9835Y-14307D01*
X9835Y-14040D01*
X9864Y-13888D01*
X9921Y-13811D01*
X9978Y-13773D01*
X10492Y-14573D02*
X10492Y-13773D01*
X10492Y-14154D02*
X10835Y-14154D01*
X10835Y-14573D02*
X10835Y-13773D01*
X11121Y-14573D02*
X11121Y-13773D01*
X7621Y-14573D02*
X7335Y-14573D01*
X7335Y-13773D01*
X7935Y-13773D02*
X8050Y-13773D01*
X8107Y-13811D01*
X8164Y-13888D01*
X8192Y-14040D01*
X8192Y-14307D01*
X8164Y-14459D01*
X8107Y-14535D01*
X8050Y-14573D01*
X7935Y-14573D01*
X7878Y-14535D01*
X7821Y-14459D01*
X7792Y-14307D01*
X7792Y-14040D01*
X7821Y-13888D01*
X7878Y-13811D01*
X7935Y-13773D01*
X12435Y-14573D02*
X12435Y-13773D01*
X12435Y-14154D02*
X12778Y-14154D01*
X12778Y-14573D02*
X12778Y-13773D01*
X13064Y-14573D02*
X13064Y-13773D01*
X91324Y-63764D02*
X91409Y-63802D01*
X91552Y-63802D01*
X91609Y-63764D01*
X91638Y-63726D01*
X91666Y-63650D01*
X91666Y-63574D01*
X91638Y-63498D01*
X91609Y-63459D01*
X91552Y-63421D01*
X91438Y-63383D01*
X91381Y-63345D01*
X91352Y-63307D01*
X91324Y-63231D01*
X91324Y-63155D01*
X91352Y-63079D01*
X91381Y-63040D01*
X91438Y-63002D01*
X91581Y-63002D01*
X91666Y-63040D01*
X92238Y-63802D02*
X91895Y-63802D01*
X92066Y-63802D02*
X92066Y-63002D01*
X92009Y-63117D01*
X91952Y-63193D01*
X91895Y-63231D01*
X92609Y-63002D02*
X92666Y-63002D01*
X92724Y-63040D01*
X92752Y-63079D01*
X92781Y-63155D01*
X92809Y-63307D01*
X92809Y-63498D01*
X92781Y-63650D01*
X92752Y-63726D01*
X92724Y-63764D01*
X92666Y-63802D01*
X92609Y-63802D01*
X92552Y-63764D01*
X92524Y-63726D01*
X92495Y-63650D01*
X92466Y-63498D01*
X92466Y-63307D01*
X92495Y-63155D01*
X92524Y-63079D01*
X92552Y-63040D01*
X92609Y-63002D01*
X93181Y-63002D02*
X93238Y-63002D01*
X93295Y-63040D01*
X93324Y-63079D01*
X93352Y-63155D01*
X93381Y-63307D01*
X93381Y-63498D01*
X93352Y-63650D01*
X93324Y-63726D01*
X93295Y-63764D01*
X93238Y-63802D01*
X93181Y-63802D01*
X93124Y-63764D01*
X93095Y-63726D01*
X93066Y-63650D01*
X93038Y-63498D01*
X93038Y-63307D01*
X93066Y-63155D01*
X93095Y-63079D01*
X93124Y-63040D01*
X93181Y-63002D01*
X93981Y-63726D02*
X93952Y-63764D01*
X93866Y-63802D01*
X93809Y-63802D01*
X93724Y-63764D01*
X93666Y-63688D01*
X93638Y-63612D01*
X93609Y-63459D01*
X93609Y-63345D01*
X93638Y-63193D01*
X93666Y-63117D01*
X93724Y-63040D01*
X93809Y-63002D01*
X93866Y-63002D01*
X93952Y-63040D01*
X93981Y-63079D01*
X94324Y-63802D02*
X94266Y-63764D01*
X94238Y-63726D01*
X94209Y-63650D01*
X94209Y-63421D01*
X94238Y-63345D01*
X94266Y-63307D01*
X94324Y-63269D01*
X94409Y-63269D01*
X94466Y-63307D01*
X94495Y-63345D01*
X94524Y-63421D01*
X94524Y-63650D01*
X94495Y-63726D01*
X94466Y-63764D01*
X94409Y-63802D01*
X94324Y-63802D01*
X94781Y-63802D02*
X94781Y-63269D01*
X94781Y-63345D02*
X94809Y-63307D01*
X94866Y-63269D01*
X94952Y-63269D01*
X95009Y-63307D01*
X95038Y-63383D01*
X95038Y-63802D01*
X95038Y-63383D02*
X95066Y-63307D01*
X95124Y-63269D01*
X95209Y-63269D01*
X95266Y-63307D01*
X95295Y-63383D01*
X95295Y-63802D01*
X95581Y-63269D02*
X95581Y-64069D01*
X95581Y-63307D02*
X95638Y-63269D01*
X95752Y-63269D01*
X95809Y-63307D01*
X95838Y-63345D01*
X95866Y-63421D01*
X95866Y-63650D01*
X95838Y-63726D01*
X95809Y-63764D01*
X95752Y-63802D01*
X95638Y-63802D01*
X95581Y-63764D01*
X96381Y-63269D02*
X96381Y-63802D01*
X96124Y-63269D02*
X96124Y-63688D01*
X96152Y-63764D01*
X96209Y-63802D01*
X96295Y-63802D01*
X96352Y-63764D01*
X96381Y-63726D01*
X96581Y-63269D02*
X96809Y-63269D01*
X96666Y-63002D02*
X96666Y-63688D01*
X96695Y-63764D01*
X96752Y-63802D01*
X96809Y-63802D01*
X97238Y-63764D02*
X97181Y-63802D01*
X97066Y-63802D01*
X97009Y-63764D01*
X96981Y-63688D01*
X96981Y-63383D01*
X97009Y-63307D01*
X97066Y-63269D01*
X97181Y-63269D01*
X97238Y-63307D01*
X97266Y-63383D01*
X97266Y-63459D01*
X96981Y-63536D01*
X97524Y-63802D02*
X97524Y-63269D01*
X97524Y-63421D02*
X97552Y-63345D01*
X97581Y-63307D01*
X97638Y-63269D01*
X97695Y-63269D01*
X97866Y-63764D02*
X97924Y-63802D01*
X98038Y-63802D01*
X98095Y-63764D01*
X98124Y-63688D01*
X98124Y-63650D01*
X98095Y-63574D01*
X98038Y-63536D01*
X97952Y-63536D01*
X97895Y-63498D01*
X97866Y-63421D01*
X97866Y-63383D01*
X97895Y-63307D01*
X97952Y-63269D01*
X98038Y-63269D01*
X98095Y-63307D01*
X98381Y-63726D02*
X98409Y-63764D01*
X98381Y-63802D01*
X98352Y-63764D01*
X98381Y-63726D01*
X98381Y-63802D01*
X98924Y-63764D02*
X98866Y-63802D01*
X98752Y-63802D01*
X98695Y-63764D01*
X98666Y-63726D01*
X98638Y-63650D01*
X98638Y-63421D01*
X98666Y-63345D01*
X98695Y-63307D01*
X98752Y-63269D01*
X98866Y-63269D01*
X98924Y-63307D01*
X99266Y-63802D02*
X99209Y-63764D01*
X99181Y-63726D01*
X99152Y-63650D01*
X99152Y-63421D01*
X99181Y-63345D01*
X99209Y-63307D01*
X99266Y-63269D01*
X99352Y-63269D01*
X99409Y-63307D01*
X99438Y-63345D01*
X99466Y-63421D01*
X99466Y-63650D01*
X99438Y-63726D01*
X99409Y-63764D01*
X99352Y-63802D01*
X99266Y-63802D01*
X99724Y-63802D02*
X99724Y-63269D01*
X99724Y-63345D02*
X99752Y-63307D01*
X99809Y-63269D01*
X99895Y-63269D01*
X99952Y-63307D01*
X99981Y-63383D01*
X99981Y-63802D01*
X99981Y-63383D02*
X100009Y-63307D01*
X100066Y-63269D01*
X100152Y-63269D01*
X100209Y-63307D01*
X100238Y-63383D01*
X100238Y-63802D01*
X89952Y-64242D02*
X89952Y-64814D01*
X89923Y-64928D01*
X89866Y-65004D01*
X89781Y-65042D01*
X89723Y-65042D01*
X90323Y-65042D02*
X90266Y-65004D01*
X90238Y-64966D01*
X90209Y-64890D01*
X90209Y-64661D01*
X90238Y-64585D01*
X90266Y-64547D01*
X90323Y-64509D01*
X90409Y-64509D01*
X90466Y-64547D01*
X90495Y-64585D01*
X90523Y-64661D01*
X90523Y-64890D01*
X90495Y-64966D01*
X90466Y-65004D01*
X90409Y-65042D01*
X90323Y-65042D01*
X90781Y-65042D02*
X90781Y-64242D01*
X91038Y-65042D02*
X91038Y-64623D01*
X91009Y-64547D01*
X90952Y-64509D01*
X90866Y-64509D01*
X90809Y-64547D01*
X90781Y-64585D01*
X91323Y-64509D02*
X91323Y-65042D01*
X91323Y-64585D02*
X91352Y-64547D01*
X91409Y-64509D01*
X91495Y-64509D01*
X91552Y-64547D01*
X91581Y-64623D01*
X91581Y-65042D01*
X92323Y-65042D02*
X92323Y-64242D01*
X92523Y-64814D01*
X92723Y-64242D01*
X92723Y-65042D01*
X93095Y-65042D02*
X93038Y-65004D01*
X93009Y-64966D01*
X92981Y-64890D01*
X92981Y-64661D01*
X93009Y-64585D01*
X93038Y-64547D01*
X93095Y-64509D01*
X93181Y-64509D01*
X93238Y-64547D01*
X93266Y-64585D01*
X93295Y-64661D01*
X93295Y-64890D01*
X93266Y-64966D01*
X93238Y-65004D01*
X93181Y-65042D01*
X93095Y-65042D01*
X93552Y-64509D02*
X93552Y-65042D01*
X93552Y-64585D02*
X93581Y-64547D01*
X93638Y-64509D01*
X93723Y-64509D01*
X93781Y-64547D01*
X93809Y-64623D01*
X93809Y-65042D01*
X94352Y-65042D02*
X94352Y-64623D01*
X94323Y-64547D01*
X94266Y-64509D01*
X94152Y-64509D01*
X94095Y-64547D01*
X94352Y-65004D02*
X94295Y-65042D01*
X94152Y-65042D01*
X94095Y-65004D01*
X94066Y-64928D01*
X94066Y-64852D01*
X94095Y-64776D01*
X94152Y-64738D01*
X94295Y-64738D01*
X94352Y-64699D01*
X94638Y-65042D02*
X94638Y-64242D01*
X94895Y-65042D02*
X94895Y-64623D01*
X94866Y-64547D01*
X94809Y-64509D01*
X94723Y-64509D01*
X94666Y-64547D01*
X94638Y-64585D01*
X95438Y-65042D02*
X95438Y-64623D01*
X95409Y-64547D01*
X95352Y-64509D01*
X95238Y-64509D01*
X95181Y-64547D01*
X95438Y-65004D02*
X95381Y-65042D01*
X95238Y-65042D01*
X95181Y-65004D01*
X95152Y-64928D01*
X95152Y-64852D01*
X95181Y-64776D01*
X95238Y-64738D01*
X95381Y-64738D01*
X95438Y-64699D01*
X95723Y-64509D02*
X95723Y-65042D01*
X95723Y-64585D02*
X95752Y-64547D01*
X95809Y-64509D01*
X95895Y-64509D01*
X95952Y-64547D01*
X95981Y-64623D01*
X95981Y-65042D01*
X97038Y-65042D02*
X96695Y-65042D01*
X96866Y-65042D02*
X96866Y-64242D01*
X96809Y-64357D01*
X96752Y-64433D01*
X96695Y-64471D01*
X97409Y-64242D02*
X97466Y-64242D01*
X97523Y-64280D01*
X97552Y-64319D01*
X97581Y-64395D01*
X97609Y-64547D01*
X97609Y-64738D01*
X97581Y-64890D01*
X97552Y-64966D01*
X97523Y-65004D01*
X97466Y-65042D01*
X97409Y-65042D01*
X97352Y-65004D01*
X97323Y-64966D01*
X97295Y-64890D01*
X97266Y-64738D01*
X97266Y-64547D01*
X97295Y-64395D01*
X97323Y-64319D01*
X97352Y-64280D01*
X97409Y-64242D01*
X98295Y-64204D02*
X97781Y-65233D01*
X98809Y-65042D02*
X98466Y-65042D01*
X98638Y-65042D02*
X98638Y-64242D01*
X98581Y-64357D01*
X98523Y-64433D01*
X98466Y-64471D01*
X99009Y-64242D02*
X99381Y-64242D01*
X99181Y-64547D01*
X99266Y-64547D01*
X99323Y-64585D01*
X99352Y-64623D01*
X99381Y-64699D01*
X99381Y-64890D01*
X99352Y-64966D01*
X99323Y-65004D01*
X99266Y-65042D01*
X99095Y-65042D01*
X99038Y-65004D01*
X99009Y-64966D01*
X100066Y-64204D02*
X99552Y-65233D01*
X100238Y-64319D02*
X100266Y-64280D01*
X100323Y-64242D01*
X100466Y-64242D01*
X100523Y-64280D01*
X100552Y-64319D01*
X100581Y-64395D01*
X100581Y-64471D01*
X100552Y-64585D01*
X100209Y-65042D01*
X100581Y-65042D01*
X100952Y-64242D02*
X101009Y-64242D01*
X101066Y-64280D01*
X101095Y-64319D01*
X101123Y-64395D01*
X101152Y-64547D01*
X101152Y-64738D01*
X101123Y-64890D01*
X101095Y-64966D01*
X101066Y-65004D01*
X101009Y-65042D01*
X100952Y-65042D01*
X100895Y-65004D01*
X100866Y-64966D01*
X100838Y-64890D01*
X100809Y-64738D01*
X100809Y-64547D01*
X100838Y-64395D01*
X100866Y-64319D01*
X100895Y-64280D01*
X100952Y-64242D01*
X101724Y-65042D02*
X101381Y-65042D01*
X101552Y-65042D02*
X101552Y-64242D01*
X101495Y-64357D01*
X101438Y-64433D01*
X101381Y-64471D01*
X101924Y-64242D02*
X102324Y-64242D01*
X102066Y-65042D01*
G54D12*
X92500Y-20000D02*
G75*
G03X92500Y-20000I-1000J0D01*
G74*
G01*
X93000Y-21500D02*
X90000Y-21500D01*
X90000Y-21500D02*
X90000Y-18500D01*
X90000Y-18500D02*
X93000Y-18500D01*
X93000Y-21500D02*
X93000Y-18500D01*
G54D11*
X12000Y-62500D02*
X12000Y-60500D01*
X13000Y-62500D02*
X13000Y-60500D01*
X14000Y-62500D02*
X14000Y-60500D01*
X15000Y-60500D02*
X15000Y-54500D01*
X15000Y-54500D02*
X11000Y-54500D01*
X11000Y-54500D02*
X11000Y-60500D01*
X11000Y-60500D02*
X15000Y-60500D01*
X14500Y-57500D02*
X11000Y-57500D01*
X14500Y-57500D02*
X15000Y-57500D01*
G54D12*
X13001Y-64500D02*
G75*
G03X13001Y-64500I-1001J0D01*
G74*
G01*
X15001Y-64500D02*
G75*
G03X15001Y-64500I-1001J0D01*
G74*
G01*
G54D13*
X8400Y-20500D02*
G75*
G03X8400Y-20500I-900J0D01*
G74*
G01*
X103400Y-20500D02*
G75*
G03X103400Y-20500I-900J0D01*
G74*
G01*
X83750Y-67250D02*
X83750Y-71000D01*
X83750Y-71000D02*
X20000Y-71000D01*
X20000Y-71000D02*
X20000Y-67250D01*
X20000Y-67250D02*
X83750Y-67250D01*
G54D11*
X7400Y-35600D02*
X7400Y-38400D01*
X7400Y-38400D02*
X6600Y-38400D01*
X6600Y-38400D02*
X6600Y-35600D01*
X6600Y-35600D02*
X7400Y-35600D01*
X7200Y-35600D02*
X7400Y-35800D01*
X7400Y-45600D02*
X7400Y-48400D01*
X7400Y-48400D02*
X6600Y-48400D01*
X6600Y-48400D02*
X6600Y-45600D01*
X6600Y-45600D02*
X7400Y-45600D01*
X7200Y-45600D02*
X7400Y-45800D01*
X7400Y-40600D02*
X7400Y-43400D01*
X7400Y-43400D02*
X6600Y-43400D01*
X6600Y-43400D02*
X6600Y-40600D01*
X6600Y-40600D02*
X7400Y-40600D01*
X7200Y-40600D02*
X7400Y-40800D01*
G54D13*
X83750Y-18750D02*
X83750Y-22500D01*
X83750Y-22500D02*
X20000Y-22500D01*
X20000Y-22500D02*
X20000Y-18750D01*
X20000Y-18750D02*
X83750Y-18750D01*
X8000Y-36000D02*
X16000Y-36000D01*
X16000Y-38000D02*
X8000Y-38000D01*
X8000Y-38000D02*
X8000Y-36000D01*
X8000Y-36500D02*
X8500Y-36500D01*
X8500Y-36500D02*
X8500Y-37500D01*
X8500Y-37500D02*
X8000Y-37500D01*
X16000Y-36000D02*
X16000Y-38000D01*
X8000Y-41500D02*
X8000Y-41500D01*
X8000Y-41500D02*
X8500Y-41500D01*
X8500Y-41500D02*
X8500Y-42500D01*
X8500Y-42500D02*
X8000Y-42500D01*
X8000Y-41000D02*
X17000Y-41000D01*
X17000Y-41000D02*
X17000Y-43000D01*
X17000Y-43000D02*
X8000Y-43000D01*
X8000Y-43000D02*
X8000Y-41000D01*
X18900Y-20000D02*
G75*
G03X18900Y-20000I-900J0D01*
G74*
G01*
G54D12*
X19501Y-43500D02*
G75*
G03X19501Y-43500I-1001J0D01*
G74*
G01*
X19501Y-40500D02*
G75*
G03X19501Y-40500I-1001J0D01*
G74*
G01*
G54D11*
X8750Y-15750D02*
G75*
G03X8750Y-15750I-1000J0D01*
G74*
G01*
X6750Y-16000D02*
X7000Y-16000D01*
X7000Y-16000D02*
X7000Y-15500D01*
X7000Y-15500D02*
X6750Y-15500D01*
X11500Y-23000D02*
G75*
G03X11500Y-23000I-1000J0D01*
G74*
G01*
X11500Y-22750D02*
X11250Y-22750D01*
X11250Y-22750D02*
X11250Y-23250D01*
X11250Y-23250D02*
X11500Y-23250D01*
X14000Y-23000D02*
G75*
G03X14000Y-23000I-1000J0D01*
G74*
G01*
X14000Y-22750D02*
X13750Y-22750D01*
X13750Y-22750D02*
X13750Y-23250D01*
X13750Y-23250D02*
X14000Y-23250D01*
X16500Y-23000D02*
G75*
G03X16500Y-23000I-1000J0D01*
G74*
G01*
X16500Y-22750D02*
X16250Y-22750D01*
X16250Y-22750D02*
X16250Y-23250D01*
X16250Y-23250D02*
X16500Y-23250D01*
X11250Y-15750D02*
G75*
G03X11250Y-15750I-1000J0D01*
G74*
G01*
X9250Y-16000D02*
X9500Y-16000D01*
X9500Y-16000D02*
X9500Y-15500D01*
X9500Y-15500D02*
X9250Y-15500D01*
X16250Y-15750D02*
G75*
G03X16250Y-15750I-1000J0D01*
G74*
G01*
X14250Y-16000D02*
X14500Y-16000D01*
X14500Y-16000D02*
X14500Y-15500D01*
X14500Y-15500D02*
X14250Y-15500D01*
X13750Y-15750D02*
G75*
G03X13750Y-15750I-1000J0D01*
G74*
G01*
X11750Y-16000D02*
X12000Y-16000D01*
X12000Y-16000D02*
X12000Y-15500D01*
X12000Y-15500D02*
X11750Y-15500D01*
G54D14*
X17500Y-36000D02*
X18500Y-36000D01*
X18500Y-36000D02*
X18500Y-38000D01*
X18500Y-38000D02*
X17500Y-38000D01*
X17500Y-38000D02*
X17500Y-36000D01*
X16500Y-36000D02*
X17500Y-36000D01*
X17500Y-36000D02*
X17500Y-38000D01*
X17500Y-38000D02*
X16500Y-38000D01*
X16500Y-38000D02*
X16500Y-36000D01*
G54D11*
X15000Y-48500D02*
X15000Y-48300D01*
X15000Y-45500D02*
X15000Y-45700D01*
X15000Y-45700D02*
X14600Y-45700D01*
X14600Y-45700D02*
X14600Y-48300D01*
X14600Y-48300D02*
X15400Y-48300D01*
X15400Y-48300D02*
X15400Y-45700D01*
X15400Y-45700D02*
X15000Y-45700D01*
X14800Y-48300D02*
X14600Y-48100D01*
X13000Y-48500D02*
X13000Y-48300D01*
X13000Y-45500D02*
X13000Y-45700D01*
X13000Y-45700D02*
X12600Y-45700D01*
X12600Y-45700D02*
X12600Y-48300D01*
X12600Y-48300D02*
X13400Y-48300D01*
X13400Y-48300D02*
X13400Y-45700D01*
X13400Y-45700D02*
X13000Y-45700D01*
X12800Y-48300D02*
X12600Y-48100D01*
X14000Y-45500D02*
X14000Y-45700D01*
X14000Y-48500D02*
X14000Y-48300D01*
X14000Y-48300D02*
X14400Y-48300D01*
X14400Y-48300D02*
X14400Y-45700D01*
X14400Y-45700D02*
X13600Y-45700D01*
X13600Y-45700D02*
X13600Y-48300D01*
X13600Y-48300D02*
X14000Y-48300D01*
X14200Y-45700D02*
X14400Y-45900D01*
X12000Y-48500D02*
X12000Y-48300D01*
X12000Y-45500D02*
X12000Y-45700D01*
X12000Y-45700D02*
X11600Y-45700D01*
X11600Y-45700D02*
X11600Y-48300D01*
X11600Y-48300D02*
X12400Y-48300D01*
X12400Y-48300D02*
X12400Y-45700D01*
X12400Y-45700D02*
X12000Y-45700D01*
X11800Y-48300D02*
X11600Y-48100D01*
X11000Y-48500D02*
X11000Y-48300D01*
X11000Y-45500D02*
X11000Y-45700D01*
X11000Y-45700D02*
X10600Y-45700D01*
X10600Y-45700D02*
X10600Y-48300D01*
X10600Y-48300D02*
X11400Y-48300D01*
X11400Y-48300D02*
X11400Y-45700D01*
X11400Y-45700D02*
X11000Y-45700D01*
X10800Y-48300D02*
X10600Y-48100D01*
X10000Y-48500D02*
X10000Y-48300D01*
X10000Y-45500D02*
X10000Y-45700D01*
X10000Y-45700D02*
X9600Y-45700D01*
X9600Y-45700D02*
X9600Y-48300D01*
X9600Y-48300D02*
X10400Y-48300D01*
X10400Y-48300D02*
X10400Y-45700D01*
X10400Y-45700D02*
X10000Y-45700D01*
X9800Y-48300D02*
X9600Y-48100D01*
X9000Y-48500D02*
X9000Y-48300D01*
X9000Y-45500D02*
X9000Y-45700D01*
X9000Y-45700D02*
X8600Y-45700D01*
X8600Y-45700D02*
X8600Y-48300D01*
X8600Y-48300D02*
X9400Y-48300D01*
X9400Y-48300D02*
X9400Y-45700D01*
X9400Y-45700D02*
X9000Y-45700D01*
X8800Y-48300D02*
X8600Y-48100D01*
G54D13*
X12500Y-29500D02*
G75*
G03X12500Y-29500I-3000J0D01*
G74*
G01*
G54D15*
X11090Y-29500D02*
G75*
G03X11090Y-29500I-1590J0D01*
G74*
G01*
X11232Y-29500D02*
G75*
G03X11232Y-29500I-1732J0D01*
G74*
G01*
X9782Y-29500D02*
G75*
G03X9782Y-29500I-282J0D01*
G74*
G01*
G54D13*
X19500Y-29500D02*
G75*
G03X19500Y-29500I-3000J0D01*
G74*
G01*
G54D15*
X18090Y-29500D02*
G75*
G03X18090Y-29500I-1590J0D01*
G74*
G01*
X18232Y-29500D02*
G75*
G03X18232Y-29500I-1732J0D01*
G74*
G01*
X16782Y-29500D02*
G75*
G03X16782Y-29500I-282J0D01*
G74*
G01*
G54D11*
X88500Y-22000D02*
X88500Y-21800D01*
X88500Y-19000D02*
X88500Y-19200D01*
X88500Y-19200D02*
X88100Y-19200D01*
X88100Y-19200D02*
X88100Y-21800D01*
X88100Y-21800D02*
X88900Y-21800D01*
X88900Y-21800D02*
X88900Y-19200D01*
X88900Y-19200D02*
X88500Y-19200D01*
X88300Y-21800D02*
X88100Y-21600D01*
X21000Y-45500D02*
X21000Y-45900D01*
X21000Y-50500D02*
X21000Y-50100D01*
X21500Y-50100D02*
X20500Y-50100D01*
X20500Y-50100D02*
X20500Y-45900D01*
X20500Y-45900D02*
X21500Y-45900D01*
X21500Y-45900D02*
X21500Y-50100D01*
X21300Y-45900D02*
X21500Y-46100D01*
X19500Y-45500D02*
X19500Y-45900D01*
X19500Y-50500D02*
X19500Y-50100D01*
X20000Y-50100D02*
X19000Y-50100D01*
X19000Y-50100D02*
X19000Y-45900D01*
X19000Y-45900D02*
X20000Y-45900D01*
X20000Y-45900D02*
X20000Y-50100D01*
X19800Y-45900D02*
X20000Y-46100D01*
X22500Y-50500D02*
X22500Y-50100D01*
X22500Y-45500D02*
X22500Y-45900D01*
X22000Y-45900D02*
X23000Y-45900D01*
X23000Y-45900D02*
X23000Y-50100D01*
X23000Y-50100D02*
X22000Y-50100D01*
X22000Y-50100D02*
X22000Y-45900D01*
X22200Y-50100D02*
X22000Y-49900D01*
X86000Y-22000D02*
X86000Y-21800D01*
X86000Y-19000D02*
X86000Y-19200D01*
X86000Y-19200D02*
X85600Y-19200D01*
X85600Y-19200D02*
X85600Y-21800D01*
X85600Y-21800D02*
X86400Y-21800D01*
X86400Y-21800D02*
X86400Y-19200D01*
X86400Y-19200D02*
X86000Y-19200D01*
X85800Y-21800D02*
X85600Y-21600D01*
X91500Y-15000D02*
X91300Y-15000D01*
X88500Y-15000D02*
X88700Y-15000D01*
X88700Y-15000D02*
X88700Y-15400D01*
X88700Y-15400D02*
X91300Y-15400D01*
X91300Y-15400D02*
X91300Y-14600D01*
X91300Y-14600D02*
X88700Y-14600D01*
X88700Y-14600D02*
X88700Y-15000D01*
X91300Y-15200D02*
X91100Y-15400D01*
X95000Y-15000D02*
X95200Y-15000D01*
X98000Y-15000D02*
X97800Y-15000D01*
X97800Y-15000D02*
X97800Y-14600D01*
X97800Y-14600D02*
X95200Y-14600D01*
X95200Y-14600D02*
X95200Y-15400D01*
X95200Y-15400D02*
X97800Y-15400D01*
X97800Y-15400D02*
X97800Y-15000D01*
X95200Y-14800D02*
X95400Y-14600D01*
X17000Y-45500D02*
X17000Y-45700D01*
X17000Y-48500D02*
X17000Y-48300D01*
X17000Y-48300D02*
X17400Y-48300D01*
X17400Y-48300D02*
X17400Y-45700D01*
X17400Y-45700D02*
X16600Y-45700D01*
X16600Y-45700D02*
X16600Y-48300D01*
X16600Y-48300D02*
X17000Y-48300D01*
X17200Y-45700D02*
X17400Y-45900D01*
X16000Y-45500D02*
X16000Y-45700D01*
X16000Y-48500D02*
X16000Y-48300D01*
X16000Y-48300D02*
X16400Y-48300D01*
X16400Y-48300D02*
X16400Y-45700D01*
X16400Y-45700D02*
X15600Y-45700D01*
X15600Y-45700D02*
X15600Y-48300D01*
X15600Y-48300D02*
X16000Y-48300D01*
X16200Y-45700D02*
X16400Y-45900D01*
X11000Y-25500D02*
X10800Y-25500D01*
X8000Y-25500D02*
X8200Y-25500D01*
X8200Y-25500D02*
X8200Y-25900D01*
X8200Y-25900D02*
X10800Y-25900D01*
X10800Y-25900D02*
X10800Y-25100D01*
X10800Y-25100D02*
X8200Y-25100D01*
X8200Y-25100D02*
X8200Y-25500D01*
X10800Y-25700D02*
X10600Y-25900D01*
X12500Y-34000D02*
X14000Y-32500D01*
X14000Y-32500D02*
X14000Y-32000D01*
X14000Y-32000D02*
X13500Y-31500D01*
X13500Y-31500D02*
X12500Y-31500D01*
X12500Y-31500D02*
X11500Y-32500D01*
X11500Y-32500D02*
X11500Y-33500D01*
X11500Y-33500D02*
X12000Y-34000D01*
X12000Y-34000D02*
X12500Y-34000D01*
X6500Y-33750D02*
X6700Y-33750D01*
X9500Y-33750D02*
X9300Y-33750D01*
X9300Y-33750D02*
X9300Y-33350D01*
X9300Y-33350D02*
X6700Y-33350D01*
X6700Y-33350D02*
X6700Y-34150D01*
X6700Y-34150D02*
X9300Y-34150D01*
X9300Y-34150D02*
X9300Y-33750D01*
X6700Y-33550D02*
X6900Y-33350D01*
X16500Y-33750D02*
X16700Y-33750D01*
X19500Y-33750D02*
X19300Y-33750D01*
X19300Y-33750D02*
X19300Y-33350D01*
X19300Y-33350D02*
X16700Y-33350D01*
X16700Y-33350D02*
X16700Y-34150D01*
X16700Y-34150D02*
X19300Y-34150D01*
X19300Y-34150D02*
X19300Y-33750D01*
X16700Y-33550D02*
X16900Y-33350D01*
X16500Y-35500D02*
X16500Y-34500D01*
X16500Y-34500D02*
X19500Y-34500D01*
X19500Y-34500D02*
X19500Y-35500D01*
X19500Y-35500D02*
X16500Y-35500D01*
X17500Y-34500D02*
X17500Y-35500D01*
X16500Y-39250D02*
X16500Y-38250D01*
X16500Y-38250D02*
X19500Y-38250D01*
X19500Y-38250D02*
X19500Y-39250D01*
X19500Y-39250D02*
X16500Y-39250D01*
X17500Y-38250D02*
X17500Y-39250D01*
X13000Y-28000D02*
X14500Y-26500D01*
X14500Y-26500D02*
X14500Y-26000D01*
X14500Y-26000D02*
X14000Y-25500D01*
X14000Y-25500D02*
X13000Y-25500D01*
X13000Y-25500D02*
X12000Y-26500D01*
X12000Y-26500D02*
X12000Y-27500D01*
X12000Y-27500D02*
X12500Y-28000D01*
X12500Y-28000D02*
X13000Y-28000D01*
G54D16*
X90966Y-20442D02*
X91023Y-20461D01*
X91119Y-20461D01*
X91157Y-20442D01*
X91176Y-20423D01*
X91195Y-20385D01*
X91195Y-20347D01*
X91176Y-20309D01*
X91157Y-20290D01*
X91119Y-20271D01*
X91042Y-20252D01*
X91004Y-20233D01*
X90985Y-20214D01*
X90966Y-20176D01*
X90966Y-20138D01*
X90985Y-20100D01*
X91004Y-20080D01*
X91042Y-20061D01*
X91138Y-20061D01*
X91195Y-20080D01*
X91328Y-20061D02*
X91423Y-20461D01*
X91500Y-20176D01*
X91576Y-20461D01*
X91671Y-20061D01*
X92033Y-20461D02*
X91804Y-20461D01*
X91919Y-20461D02*
X91919Y-20061D01*
X91880Y-20119D01*
X91842Y-20157D01*
X91804Y-20176D01*
X90195Y-19742D02*
X90252Y-19761D01*
X90347Y-19761D01*
X90385Y-19742D01*
X90404Y-19723D01*
X90423Y-19685D01*
X90423Y-19647D01*
X90404Y-19609D01*
X90385Y-19590D01*
X90347Y-19571D01*
X90271Y-19552D01*
X90233Y-19533D01*
X90214Y-19514D01*
X90195Y-19476D01*
X90195Y-19438D01*
X90214Y-19400D01*
X90233Y-19380D01*
X90271Y-19361D01*
X90366Y-19361D01*
X90423Y-19380D01*
X90557Y-19361D02*
X90652Y-19761D01*
X90728Y-19476D01*
X90804Y-19761D01*
X90900Y-19361D01*
X90957Y-19800D02*
X91261Y-19800D01*
X91357Y-19761D02*
X91357Y-19361D01*
X91509Y-19361D01*
X91547Y-19380D01*
X91566Y-19400D01*
X91585Y-19438D01*
X91585Y-19495D01*
X91566Y-19533D01*
X91547Y-19552D01*
X91509Y-19571D01*
X91357Y-19571D01*
X91757Y-19361D02*
X91757Y-19685D01*
X91776Y-19723D01*
X91795Y-19742D01*
X91833Y-19761D01*
X91909Y-19761D01*
X91947Y-19742D01*
X91966Y-19723D01*
X91985Y-19685D01*
X91985Y-19361D01*
X92157Y-19742D02*
X92214Y-19761D01*
X92309Y-19761D01*
X92347Y-19742D01*
X92366Y-19723D01*
X92385Y-19685D01*
X92385Y-19647D01*
X92366Y-19609D01*
X92347Y-19590D01*
X92309Y-19571D01*
X92233Y-19552D01*
X92195Y-19533D01*
X92176Y-19514D01*
X92157Y-19476D01*
X92157Y-19438D01*
X92176Y-19400D01*
X92195Y-19380D01*
X92233Y-19361D01*
X92328Y-19361D01*
X92385Y-19380D01*
X92557Y-19761D02*
X92557Y-19361D01*
X92557Y-19552D02*
X92785Y-19552D01*
X92785Y-19761D02*
X92785Y-19361D01*
X12695Y-59511D02*
X12695Y-59835D01*
X12714Y-59873D01*
X12733Y-59892D01*
X12771Y-59911D01*
X12847Y-59911D01*
X12885Y-59892D01*
X12904Y-59873D01*
X12923Y-59835D01*
X12923Y-59511D01*
X13323Y-59911D02*
X13095Y-59911D01*
X13209Y-59911D02*
X13209Y-59511D01*
X13171Y-59569D01*
X13133Y-59607D01*
X13095Y-59626D01*
X12133Y-58411D02*
X11942Y-58411D01*
X11942Y-58011D01*
X12266Y-58411D02*
X12266Y-58011D01*
X12400Y-58297D01*
X12533Y-58011D01*
X12533Y-58411D01*
X12685Y-58011D02*
X12952Y-58011D01*
X12780Y-58411D01*
X13161Y-58183D02*
X13123Y-58164D01*
X13104Y-58145D01*
X13085Y-58107D01*
X13085Y-58088D01*
X13104Y-58050D01*
X13123Y-58030D01*
X13161Y-58011D01*
X13238Y-58011D01*
X13276Y-58030D01*
X13295Y-58050D01*
X13314Y-58088D01*
X13314Y-58107D01*
X13295Y-58145D01*
X13276Y-58164D01*
X13238Y-58183D01*
X13161Y-58183D01*
X13123Y-58202D01*
X13104Y-58221D01*
X13085Y-58259D01*
X13085Y-58335D01*
X13104Y-58373D01*
X13123Y-58392D01*
X13161Y-58411D01*
X13238Y-58411D01*
X13276Y-58392D01*
X13295Y-58373D01*
X13314Y-58335D01*
X13314Y-58259D01*
X13295Y-58221D01*
X13276Y-58202D01*
X13238Y-58183D01*
X13561Y-58011D02*
X13600Y-58011D01*
X13638Y-58030D01*
X13657Y-58050D01*
X13676Y-58088D01*
X13695Y-58164D01*
X13695Y-58259D01*
X13676Y-58335D01*
X13657Y-58373D01*
X13638Y-58392D01*
X13600Y-58411D01*
X13561Y-58411D01*
X13523Y-58392D01*
X13504Y-58373D01*
X13485Y-58335D01*
X13466Y-58259D01*
X13466Y-58164D01*
X13485Y-58088D01*
X13504Y-58050D01*
X13523Y-58030D01*
X13561Y-58011D01*
X14057Y-58011D02*
X13866Y-58011D01*
X13847Y-58202D01*
X13866Y-58183D01*
X13904Y-58164D01*
X14000Y-58164D01*
X14038Y-58183D01*
X14057Y-58202D01*
X14076Y-58240D01*
X14076Y-58335D01*
X14057Y-58373D01*
X14038Y-58392D01*
X14000Y-58411D01*
X13904Y-58411D01*
X13866Y-58392D01*
X13847Y-58373D01*
G54D12*
X11950Y-64093D02*
X11935Y-64108D01*
X11892Y-64122D01*
X11864Y-64122D01*
X11821Y-64108D01*
X11792Y-64079D01*
X11778Y-64051D01*
X11764Y-63993D01*
X11764Y-63951D01*
X11778Y-63893D01*
X11792Y-63865D01*
X11821Y-63836D01*
X11864Y-63822D01*
X11892Y-63822D01*
X11935Y-63836D01*
X11950Y-63851D01*
X12235Y-64122D02*
X12064Y-64122D01*
X12150Y-64122D02*
X12150Y-63822D01*
X12121Y-63865D01*
X12092Y-63893D01*
X12064Y-63908D01*
X11375Y-64821D02*
X11398Y-64821D01*
X11422Y-64835D01*
X11434Y-64850D01*
X11446Y-64878D01*
X11458Y-64935D01*
X11458Y-65007D01*
X11446Y-65064D01*
X11434Y-65092D01*
X11422Y-65107D01*
X11398Y-65121D01*
X11375Y-65121D01*
X11351Y-65107D01*
X11339Y-65092D01*
X11327Y-65064D01*
X11315Y-65007D01*
X11315Y-64935D01*
X11327Y-64878D01*
X11339Y-64850D01*
X11351Y-64835D01*
X11375Y-64821D01*
X11565Y-65092D02*
X11577Y-65107D01*
X11565Y-65121D01*
X11553Y-65107D01*
X11565Y-65092D01*
X11565Y-65121D01*
X11660Y-64821D02*
X11815Y-64821D01*
X11732Y-64935D01*
X11767Y-64935D01*
X11791Y-64950D01*
X11803Y-64964D01*
X11815Y-64992D01*
X11815Y-65064D01*
X11803Y-65092D01*
X11791Y-65107D01*
X11767Y-65121D01*
X11696Y-65121D01*
X11672Y-65107D01*
X11660Y-65092D01*
X11898Y-64821D02*
X12053Y-64821D01*
X11970Y-64935D01*
X12005Y-64935D01*
X12029Y-64950D01*
X12041Y-64964D01*
X12053Y-64992D01*
X12053Y-65064D01*
X12041Y-65092D01*
X12029Y-65107D01*
X12005Y-65121D01*
X11934Y-65121D01*
X11910Y-65107D01*
X11898Y-65092D01*
X12101Y-65150D02*
X12291Y-65150D01*
X12458Y-64921D02*
X12458Y-65121D01*
X12351Y-64921D02*
X12351Y-65078D01*
X12363Y-65107D01*
X12386Y-65121D01*
X12422Y-65121D01*
X12446Y-65107D01*
X12458Y-65092D01*
X12660Y-64964D02*
X12577Y-64964D01*
X12577Y-65121D02*
X12577Y-64821D01*
X12696Y-64821D01*
G54D17*
X10985Y-64507D02*
X11214Y-64507D01*
X11100Y-64621D02*
X11100Y-64392D01*
G54D12*
X13950Y-65091D02*
X13935Y-65106D01*
X13892Y-65120D01*
X13864Y-65120D01*
X13821Y-65106D01*
X13792Y-65077D01*
X13778Y-65049D01*
X13764Y-64991D01*
X13764Y-64949D01*
X13778Y-64891D01*
X13792Y-64863D01*
X13821Y-64834D01*
X13864Y-64820D01*
X13892Y-64820D01*
X13935Y-64834D01*
X13950Y-64849D01*
X14050Y-64820D02*
X14235Y-64820D01*
X14135Y-64934D01*
X14178Y-64934D01*
X14207Y-64949D01*
X14221Y-64963D01*
X14235Y-64991D01*
X14235Y-65063D01*
X14221Y-65091D01*
X14207Y-65106D01*
X14178Y-65120D01*
X14092Y-65120D01*
X14064Y-65106D01*
X14050Y-65091D01*
X13494Y-63821D02*
X13517Y-63821D01*
X13541Y-63835D01*
X13553Y-63850D01*
X13565Y-63878D01*
X13577Y-63935D01*
X13577Y-64007D01*
X13565Y-64064D01*
X13553Y-64092D01*
X13541Y-64107D01*
X13517Y-64121D01*
X13494Y-64121D01*
X13470Y-64107D01*
X13458Y-64092D01*
X13446Y-64064D01*
X13434Y-64007D01*
X13434Y-63935D01*
X13446Y-63878D01*
X13458Y-63850D01*
X13470Y-63835D01*
X13494Y-63821D01*
X13684Y-64092D02*
X13696Y-64107D01*
X13684Y-64121D01*
X13672Y-64107D01*
X13684Y-64092D01*
X13684Y-64121D01*
X13934Y-64121D02*
X13791Y-64121D01*
X13863Y-64121D02*
X13863Y-63821D01*
X13839Y-63864D01*
X13815Y-63892D01*
X13791Y-63907D01*
X13982Y-64150D02*
X14172Y-64150D01*
X14339Y-63921D02*
X14339Y-64121D01*
X14232Y-63921D02*
X14232Y-64078D01*
X14244Y-64107D01*
X14267Y-64121D01*
X14303Y-64121D01*
X14327Y-64107D01*
X14339Y-64092D01*
X14541Y-63964D02*
X14458Y-63964D01*
X14458Y-64121D02*
X14458Y-63821D01*
X14577Y-63821D01*
G54D17*
X14785Y-64507D02*
X15014Y-64507D01*
X14900Y-64621D02*
X14900Y-64392D01*
G54D18*
X7014Y-19461D02*
X7014Y-19061D01*
X7166Y-19061D01*
X7204Y-19080D01*
X7223Y-19100D01*
X7242Y-19138D01*
X7242Y-19195D01*
X7223Y-19233D01*
X7204Y-19252D01*
X7166Y-19271D01*
X7014Y-19271D01*
X7376Y-19061D02*
X7623Y-19061D01*
X7490Y-19214D01*
X7547Y-19214D01*
X7585Y-19233D01*
X7604Y-19252D01*
X7623Y-19290D01*
X7623Y-19385D01*
X7604Y-19423D01*
X7585Y-19442D01*
X7547Y-19461D01*
X7433Y-19461D01*
X7395Y-19442D01*
X7376Y-19423D01*
X7966Y-19195D02*
X7966Y-19461D01*
X7871Y-19042D02*
X7776Y-19328D01*
X8023Y-19328D01*
X102014Y-19461D02*
X102014Y-19061D01*
X102166Y-19061D01*
X102204Y-19080D01*
X102223Y-19100D01*
X102242Y-19138D01*
X102242Y-19195D01*
X102223Y-19233D01*
X102204Y-19252D01*
X102166Y-19271D01*
X102014Y-19271D01*
X102376Y-19061D02*
X102623Y-19061D01*
X102490Y-19214D01*
X102547Y-19214D01*
X102585Y-19233D01*
X102604Y-19252D01*
X102623Y-19290D01*
X102623Y-19385D01*
X102604Y-19423D01*
X102585Y-19442D01*
X102547Y-19461D01*
X102433Y-19461D01*
X102395Y-19442D01*
X102376Y-19423D01*
X102985Y-19061D02*
X102795Y-19061D01*
X102776Y-19252D01*
X102795Y-19233D01*
X102833Y-19214D01*
X102928Y-19214D01*
X102966Y-19233D01*
X102985Y-19252D01*
X103004Y-19290D01*
X103004Y-19385D01*
X102985Y-19423D01*
X102966Y-19442D01*
X102928Y-19461D01*
X102833Y-19461D01*
X102795Y-19442D01*
X102776Y-19423D01*
G54D11*
X55307Y-66742D02*
X55307Y-66142D01*
X55535Y-66142D01*
X55592Y-66171D01*
X55621Y-66200D01*
X55650Y-66257D01*
X55650Y-66342D01*
X55621Y-66400D01*
X55592Y-66428D01*
X55535Y-66457D01*
X55307Y-66457D01*
X56221Y-66742D02*
X55878Y-66742D01*
X56050Y-66742D02*
X56050Y-66142D01*
X55992Y-66228D01*
X55935Y-66285D01*
X55878Y-66314D01*
G54D16*
X7123Y-37066D02*
X7142Y-37085D01*
X7161Y-37142D01*
X7161Y-37180D01*
X7142Y-37238D01*
X7104Y-37276D01*
X7066Y-37295D01*
X6990Y-37314D01*
X6933Y-37314D01*
X6857Y-37295D01*
X6819Y-37276D01*
X6780Y-37238D01*
X6761Y-37180D01*
X6761Y-37142D01*
X6780Y-37085D01*
X6800Y-37066D01*
X6933Y-36838D02*
X6914Y-36876D01*
X6895Y-36895D01*
X6857Y-36914D01*
X6838Y-36914D01*
X6800Y-36895D01*
X6780Y-36876D01*
X6761Y-36838D01*
X6761Y-36761D01*
X6780Y-36723D01*
X6800Y-36704D01*
X6838Y-36685D01*
X6857Y-36685D01*
X6895Y-36704D01*
X6914Y-36723D01*
X6933Y-36761D01*
X6933Y-36838D01*
X6952Y-36876D01*
X6971Y-36895D01*
X7009Y-36914D01*
X7085Y-36914D01*
X7123Y-36895D01*
X7142Y-36876D01*
X7161Y-36838D01*
X7161Y-36761D01*
X7142Y-36723D01*
X7123Y-36704D01*
X7085Y-36685D01*
X7009Y-36685D01*
X6971Y-36704D01*
X6952Y-36723D01*
X6933Y-36761D01*
X7123Y-47066D02*
X7142Y-47085D01*
X7161Y-47142D01*
X7161Y-47180D01*
X7142Y-47238D01*
X7104Y-47276D01*
X7066Y-47295D01*
X6990Y-47314D01*
X6933Y-47314D01*
X6857Y-47295D01*
X6819Y-47276D01*
X6780Y-47238D01*
X6761Y-47180D01*
X6761Y-47142D01*
X6780Y-47085D01*
X6800Y-47066D01*
X6761Y-46933D02*
X6761Y-46666D01*
X7161Y-46838D01*
X7123Y-42257D02*
X7142Y-42276D01*
X7161Y-42333D01*
X7161Y-42371D01*
X7142Y-42428D01*
X7104Y-42466D01*
X7066Y-42485D01*
X6990Y-42504D01*
X6933Y-42504D01*
X6857Y-42485D01*
X6819Y-42466D01*
X6780Y-42428D01*
X6761Y-42371D01*
X6761Y-42333D01*
X6780Y-42276D01*
X6800Y-42257D01*
X7161Y-41876D02*
X7161Y-42104D01*
X7161Y-41990D02*
X6761Y-41990D01*
X6819Y-42028D01*
X6857Y-42066D01*
X6876Y-42104D01*
X6761Y-41742D02*
X6761Y-41476D01*
X7161Y-41647D01*
G54D11*
X18807Y-23242D02*
X18807Y-22642D01*
X19035Y-22642D01*
X19092Y-22671D01*
X19121Y-22700D01*
X19150Y-22757D01*
X19150Y-22842D01*
X19121Y-22900D01*
X19092Y-22928D01*
X19035Y-22957D01*
X18807Y-22957D01*
X19378Y-22700D02*
X19407Y-22671D01*
X19464Y-22642D01*
X19607Y-22642D01*
X19664Y-22671D01*
X19692Y-22700D01*
X19721Y-22757D01*
X19721Y-22814D01*
X19692Y-22900D01*
X19350Y-23242D01*
X19721Y-23242D01*
G54D19*
X9657Y-36142D02*
X9657Y-36628D01*
X9678Y-36685D01*
X9700Y-36714D01*
X9742Y-36742D01*
X9828Y-36742D01*
X9871Y-36714D01*
X9892Y-36685D01*
X9914Y-36628D01*
X9914Y-36142D01*
X10085Y-36142D02*
X10364Y-36142D01*
X10214Y-36371D01*
X10278Y-36371D01*
X10321Y-36400D01*
X10342Y-36428D01*
X10364Y-36485D01*
X10364Y-36628D01*
X10342Y-36685D01*
X10321Y-36714D01*
X10278Y-36742D01*
X10150Y-36742D01*
X10107Y-36714D01*
X10085Y-36685D01*
G54D20*
G54D19*
X11310Y-37142D02*
X11610Y-37142D01*
X11417Y-37742D01*
X11975Y-37342D02*
X11975Y-37742D01*
X11867Y-37114D02*
X11760Y-37542D01*
X12039Y-37542D01*
X12425Y-37742D02*
X12210Y-37742D01*
X12210Y-37142D01*
X12553Y-37714D02*
X12617Y-37742D01*
X12725Y-37742D01*
X12767Y-37714D01*
X12789Y-37685D01*
X12810Y-37628D01*
X12810Y-37571D01*
X12789Y-37514D01*
X12767Y-37485D01*
X12725Y-37457D01*
X12639Y-37428D01*
X12596Y-37400D01*
X12575Y-37371D01*
X12553Y-37314D01*
X12553Y-37257D01*
X12575Y-37200D01*
X12596Y-37171D01*
X12639Y-37142D01*
X12746Y-37142D01*
X12810Y-37171D01*
X13089Y-37142D02*
X13132Y-37142D01*
X13175Y-37171D01*
X13196Y-37200D01*
X13217Y-37257D01*
X13239Y-37371D01*
X13239Y-37514D01*
X13217Y-37628D01*
X13196Y-37685D01*
X13175Y-37714D01*
X13132Y-37742D01*
X13089Y-37742D01*
X13046Y-37714D01*
X13025Y-37685D01*
X13003Y-37628D01*
X12982Y-37514D01*
X12982Y-37371D01*
X13003Y-37257D01*
X13025Y-37200D01*
X13046Y-37171D01*
X13089Y-37142D01*
X13625Y-37342D02*
X13625Y-37742D01*
X13517Y-37114D02*
X13410Y-37542D01*
X13689Y-37542D01*
G54D20*
G54D19*
X9657Y-41142D02*
X9657Y-41628D01*
X9678Y-41685D01*
X9700Y-41714D01*
X9742Y-41742D01*
X9828Y-41742D01*
X9871Y-41714D01*
X9892Y-41685D01*
X9914Y-41628D01*
X9914Y-41142D01*
X10107Y-41200D02*
X10128Y-41171D01*
X10171Y-41142D01*
X10278Y-41142D01*
X10321Y-41171D01*
X10342Y-41200D01*
X10364Y-41257D01*
X10364Y-41314D01*
X10342Y-41400D01*
X10085Y-41742D01*
X10364Y-41742D01*
G54D20*
G54D19*
X12096Y-42142D02*
X12396Y-42142D01*
X12203Y-42742D01*
X12760Y-42342D02*
X12760Y-42742D01*
X12653Y-42114D02*
X12546Y-42542D01*
X12825Y-42542D01*
X13210Y-42742D02*
X12996Y-42742D01*
X12996Y-42142D01*
X13339Y-42714D02*
X13403Y-42742D01*
X13510Y-42742D01*
X13553Y-42714D01*
X13575Y-42685D01*
X13596Y-42628D01*
X13596Y-42571D01*
X13575Y-42514D01*
X13553Y-42485D01*
X13510Y-42457D01*
X13425Y-42428D01*
X13382Y-42400D01*
X13360Y-42371D01*
X13339Y-42314D01*
X13339Y-42257D01*
X13360Y-42200D01*
X13382Y-42171D01*
X13425Y-42142D01*
X13532Y-42142D01*
X13596Y-42171D01*
X14025Y-42742D02*
X13767Y-42742D01*
X13896Y-42742D02*
X13896Y-42142D01*
X13853Y-42228D01*
X13810Y-42285D01*
X13767Y-42314D01*
X14196Y-42200D02*
X14217Y-42171D01*
X14260Y-42142D01*
X14367Y-42142D01*
X14410Y-42171D01*
X14432Y-42200D01*
X14453Y-42257D01*
X14453Y-42314D01*
X14432Y-42400D01*
X14175Y-42742D01*
X14453Y-42742D01*
X14603Y-42142D02*
X14882Y-42142D01*
X14732Y-42371D01*
X14796Y-42371D01*
X14839Y-42400D01*
X14860Y-42428D01*
X14882Y-42485D01*
X14882Y-42628D01*
X14860Y-42685D01*
X14839Y-42714D01*
X14796Y-42742D01*
X14667Y-42742D01*
X14624Y-42714D01*
X14603Y-42685D01*
G54D20*
G54D18*
X17514Y-18961D02*
X17514Y-18561D01*
X17666Y-18561D01*
X17704Y-18580D01*
X17723Y-18600D01*
X17742Y-18638D01*
X17742Y-18695D01*
X17723Y-18733D01*
X17704Y-18752D01*
X17666Y-18771D01*
X17514Y-18771D01*
X17876Y-18561D02*
X18123Y-18561D01*
X17990Y-18714D01*
X18047Y-18714D01*
X18085Y-18733D01*
X18104Y-18752D01*
X18123Y-18790D01*
X18123Y-18885D01*
X18104Y-18923D01*
X18085Y-18942D01*
X18047Y-18961D01*
X17933Y-18961D01*
X17895Y-18942D01*
X17876Y-18923D01*
X18466Y-18561D02*
X18390Y-18561D01*
X18352Y-18580D01*
X18333Y-18600D01*
X18295Y-18657D01*
X18276Y-18733D01*
X18276Y-18885D01*
X18295Y-18923D01*
X18314Y-18942D01*
X18352Y-18961D01*
X18428Y-18961D01*
X18466Y-18942D01*
X18485Y-18923D01*
X18504Y-18885D01*
X18504Y-18790D01*
X18485Y-18752D01*
X18466Y-18733D01*
X18428Y-18714D01*
X18352Y-18714D01*
X18314Y-18733D01*
X18295Y-18752D01*
X18276Y-18790D01*
G54D12*
X18307Y-43093D02*
X18292Y-43108D01*
X18250Y-43122D01*
X18221Y-43122D01*
X18178Y-43108D01*
X18150Y-43079D01*
X18135Y-43051D01*
X18121Y-42993D01*
X18121Y-42951D01*
X18135Y-42893D01*
X18150Y-42865D01*
X18178Y-42836D01*
X18221Y-42822D01*
X18250Y-42822D01*
X18292Y-42836D01*
X18307Y-42851D01*
X18592Y-43122D02*
X18421Y-43122D01*
X18507Y-43122D02*
X18507Y-42822D01*
X18478Y-42865D01*
X18450Y-42893D01*
X18421Y-42908D01*
X18735Y-43122D02*
X18792Y-43122D01*
X18821Y-43108D01*
X18835Y-43093D01*
X18864Y-43051D01*
X18878Y-42993D01*
X18878Y-42879D01*
X18864Y-42851D01*
X18850Y-42836D01*
X18821Y-42822D01*
X18764Y-42822D01*
X18735Y-42836D01*
X18721Y-42851D01*
X18707Y-42879D01*
X18707Y-42951D01*
X18721Y-42979D01*
X18735Y-42993D01*
X18764Y-43008D01*
X18821Y-43008D01*
X18850Y-42993D01*
X18864Y-42979D01*
X18878Y-42951D01*
X18136Y-44121D02*
X17994Y-44121D01*
X18065Y-44121D02*
X18065Y-43821D01*
X18041Y-43864D01*
X18017Y-43892D01*
X17994Y-43907D01*
X18291Y-43821D02*
X18315Y-43821D01*
X18339Y-43835D01*
X18351Y-43850D01*
X18363Y-43878D01*
X18375Y-43935D01*
X18375Y-44007D01*
X18363Y-44064D01*
X18351Y-44092D01*
X18339Y-44107D01*
X18315Y-44121D01*
X18291Y-44121D01*
X18267Y-44107D01*
X18255Y-44092D01*
X18244Y-44064D01*
X18232Y-44007D01*
X18232Y-43935D01*
X18244Y-43878D01*
X18255Y-43850D01*
X18267Y-43835D01*
X18291Y-43821D01*
X18422Y-44150D02*
X18613Y-44150D01*
X18779Y-43921D02*
X18779Y-44121D01*
X18672Y-43921D02*
X18672Y-44078D01*
X18684Y-44107D01*
X18708Y-44121D01*
X18744Y-44121D01*
X18767Y-44107D01*
X18779Y-44092D01*
X18982Y-43964D02*
X18898Y-43964D01*
X18898Y-44121D02*
X18898Y-43821D01*
X19017Y-43821D01*
G54D17*
X17485Y-43507D02*
X17714Y-43507D01*
X17600Y-43621D02*
X17600Y-43392D01*
G54D12*
X18307Y-40093D02*
X18292Y-40108D01*
X18250Y-40122D01*
X18221Y-40122D01*
X18178Y-40108D01*
X18150Y-40079D01*
X18135Y-40051D01*
X18121Y-39993D01*
X18121Y-39951D01*
X18135Y-39893D01*
X18150Y-39865D01*
X18178Y-39836D01*
X18221Y-39822D01*
X18250Y-39822D01*
X18292Y-39836D01*
X18307Y-39851D01*
X18592Y-40122D02*
X18421Y-40122D01*
X18507Y-40122D02*
X18507Y-39822D01*
X18478Y-39865D01*
X18450Y-39893D01*
X18421Y-39908D01*
X18764Y-39951D02*
X18735Y-39936D01*
X18721Y-39922D01*
X18707Y-39893D01*
X18707Y-39879D01*
X18721Y-39851D01*
X18735Y-39836D01*
X18764Y-39822D01*
X18821Y-39822D01*
X18850Y-39836D01*
X18864Y-39851D01*
X18878Y-39879D01*
X18878Y-39893D01*
X18864Y-39922D01*
X18850Y-39936D01*
X18821Y-39951D01*
X18764Y-39951D01*
X18735Y-39965D01*
X18721Y-39979D01*
X18707Y-40008D01*
X18707Y-40065D01*
X18721Y-40093D01*
X18735Y-40108D01*
X18764Y-40122D01*
X18821Y-40122D01*
X18850Y-40108D01*
X18864Y-40093D01*
X18878Y-40065D01*
X18878Y-40008D01*
X18864Y-39979D01*
X18850Y-39965D01*
X18821Y-39951D01*
X18136Y-41121D02*
X17994Y-41121D01*
X18065Y-41121D02*
X18065Y-40821D01*
X18041Y-40864D01*
X18017Y-40892D01*
X17994Y-40907D01*
X18291Y-40821D02*
X18315Y-40821D01*
X18339Y-40835D01*
X18351Y-40850D01*
X18363Y-40878D01*
X18375Y-40935D01*
X18375Y-41007D01*
X18363Y-41064D01*
X18351Y-41092D01*
X18339Y-41107D01*
X18315Y-41121D01*
X18291Y-41121D01*
X18267Y-41107D01*
X18255Y-41092D01*
X18244Y-41064D01*
X18232Y-41007D01*
X18232Y-40935D01*
X18244Y-40878D01*
X18255Y-40850D01*
X18267Y-40835D01*
X18291Y-40821D01*
X18422Y-41150D02*
X18613Y-41150D01*
X18779Y-40921D02*
X18779Y-41121D01*
X18672Y-40921D02*
X18672Y-41078D01*
X18684Y-41107D01*
X18708Y-41121D01*
X18744Y-41121D01*
X18767Y-41107D01*
X18779Y-41092D01*
X18982Y-40964D02*
X18898Y-40964D01*
X18898Y-41121D02*
X18898Y-40821D01*
X19017Y-40821D01*
G54D17*
X17485Y-40507D02*
X17714Y-40507D01*
X17600Y-40621D02*
X17600Y-40392D01*
G54D11*
X7307Y-17492D02*
X7307Y-16892D01*
X7450Y-16892D01*
X7535Y-16921D01*
X7592Y-16978D01*
X7621Y-17035D01*
X7650Y-17150D01*
X7650Y-17235D01*
X7621Y-17350D01*
X7592Y-17407D01*
X7535Y-17464D01*
X7450Y-17492D01*
X7307Y-17492D01*
X7850Y-16892D02*
X8250Y-16892D01*
X7992Y-17492D01*
X10057Y-21742D02*
X10057Y-21142D01*
X10200Y-21142D01*
X10285Y-21171D01*
X10342Y-21228D01*
X10371Y-21285D01*
X10400Y-21400D01*
X10400Y-21485D01*
X10371Y-21600D01*
X10342Y-21657D01*
X10285Y-21714D01*
X10200Y-21742D01*
X10057Y-21742D01*
X10628Y-21200D02*
X10657Y-21171D01*
X10714Y-21142D01*
X10857Y-21142D01*
X10914Y-21171D01*
X10942Y-21200D01*
X10971Y-21257D01*
X10971Y-21314D01*
X10942Y-21400D01*
X10600Y-21742D01*
X10971Y-21742D01*
X12557Y-21742D02*
X12557Y-21142D01*
X12700Y-21142D01*
X12785Y-21171D01*
X12842Y-21228D01*
X12871Y-21285D01*
X12900Y-21400D01*
X12900Y-21485D01*
X12871Y-21600D01*
X12842Y-21657D01*
X12785Y-21714D01*
X12700Y-21742D01*
X12557Y-21742D01*
X13100Y-21142D02*
X13471Y-21142D01*
X13271Y-21371D01*
X13357Y-21371D01*
X13414Y-21400D01*
X13442Y-21428D01*
X13471Y-21485D01*
X13471Y-21628D01*
X13442Y-21685D01*
X13414Y-21714D01*
X13357Y-21742D01*
X13185Y-21742D01*
X13128Y-21714D01*
X13100Y-21685D01*
X15057Y-21742D02*
X15057Y-21142D01*
X15200Y-21142D01*
X15285Y-21171D01*
X15342Y-21228D01*
X15371Y-21285D01*
X15400Y-21400D01*
X15400Y-21485D01*
X15371Y-21600D01*
X15342Y-21657D01*
X15285Y-21714D01*
X15200Y-21742D01*
X15057Y-21742D01*
X15914Y-21342D02*
X15914Y-21742D01*
X15771Y-21114D02*
X15628Y-21542D01*
X16000Y-21542D01*
X9807Y-17492D02*
X9807Y-16892D01*
X9950Y-16892D01*
X10035Y-16921D01*
X10092Y-16978D01*
X10121Y-17035D01*
X10150Y-17150D01*
X10150Y-17235D01*
X10121Y-17350D01*
X10092Y-17407D01*
X10035Y-17464D01*
X9950Y-17492D01*
X9807Y-17492D01*
X10692Y-16892D02*
X10407Y-16892D01*
X10378Y-17178D01*
X10407Y-17150D01*
X10464Y-17121D01*
X10607Y-17121D01*
X10664Y-17150D01*
X10692Y-17178D01*
X10721Y-17235D01*
X10721Y-17378D01*
X10692Y-17435D01*
X10664Y-17464D01*
X10607Y-17492D01*
X10464Y-17492D01*
X10407Y-17464D01*
X10378Y-17435D01*
X14807Y-17492D02*
X14807Y-16892D01*
X14950Y-16892D01*
X15035Y-16921D01*
X15092Y-16978D01*
X15121Y-17035D01*
X15150Y-17150D01*
X15150Y-17235D01*
X15121Y-17350D01*
X15092Y-17407D01*
X15035Y-17464D01*
X14950Y-17492D01*
X14807Y-17492D01*
X15664Y-16892D02*
X15550Y-16892D01*
X15492Y-16921D01*
X15464Y-16950D01*
X15407Y-17035D01*
X15378Y-17150D01*
X15378Y-17378D01*
X15407Y-17435D01*
X15435Y-17464D01*
X15492Y-17492D01*
X15607Y-17492D01*
X15664Y-17464D01*
X15692Y-17435D01*
X15721Y-17378D01*
X15721Y-17235D01*
X15692Y-17178D01*
X15664Y-17150D01*
X15607Y-17121D01*
X15492Y-17121D01*
X15435Y-17150D01*
X15407Y-17178D01*
X15378Y-17235D01*
X12307Y-17492D02*
X12307Y-16892D01*
X12450Y-16892D01*
X12535Y-16921D01*
X12592Y-16978D01*
X12621Y-17035D01*
X12650Y-17150D01*
X12650Y-17235D01*
X12621Y-17350D01*
X12592Y-17407D01*
X12535Y-17464D01*
X12450Y-17492D01*
X12307Y-17492D01*
X13221Y-17492D02*
X12878Y-17492D01*
X13050Y-17492D02*
X13050Y-16892D01*
X12992Y-16978D01*
X12935Y-17035D01*
X12878Y-17064D01*
G54D14*
X18571Y-37249D02*
X18785Y-37249D01*
X18828Y-37264D01*
X18857Y-37292D01*
X18871Y-37335D01*
X18871Y-37364D01*
X18871Y-37107D02*
X18571Y-37107D01*
X18571Y-36992D01*
X18585Y-36964D01*
X18600Y-36950D01*
X18628Y-36935D01*
X18671Y-36935D01*
X18700Y-36950D01*
X18714Y-36964D01*
X18728Y-36992D01*
X18728Y-37107D01*
X18600Y-36821D02*
X18585Y-36807D01*
X18571Y-36778D01*
X18571Y-36707D01*
X18585Y-36678D01*
X18600Y-36664D01*
X18628Y-36650D01*
X18657Y-36650D01*
X18700Y-36664D01*
X18871Y-36835D01*
X18871Y-36650D01*
X17571Y-37249D02*
X17785Y-37249D01*
X17828Y-37264D01*
X17857Y-37292D01*
X17871Y-37335D01*
X17871Y-37364D01*
X17871Y-37107D02*
X17571Y-37107D01*
X17571Y-36992D01*
X17585Y-36964D01*
X17600Y-36950D01*
X17628Y-36935D01*
X17671Y-36935D01*
X17700Y-36950D01*
X17714Y-36964D01*
X17728Y-36992D01*
X17728Y-37107D01*
X17871Y-36650D02*
X17871Y-36821D01*
X17871Y-36735D02*
X17571Y-36735D01*
X17614Y-36764D01*
X17642Y-36792D01*
X17657Y-36821D01*
G54D16*
X15222Y-47083D02*
X14960Y-47250D01*
X15222Y-47369D02*
X14672Y-47369D01*
X14672Y-47178D01*
X14698Y-47130D01*
X14725Y-47107D01*
X14777Y-47083D01*
X14855Y-47083D01*
X14908Y-47107D01*
X14934Y-47130D01*
X14960Y-47178D01*
X14960Y-47369D01*
X14908Y-46797D02*
X14882Y-46845D01*
X14855Y-46869D01*
X14803Y-46892D01*
X14777Y-46892D01*
X14725Y-46869D01*
X14698Y-46845D01*
X14672Y-46797D01*
X14672Y-46702D01*
X14698Y-46654D01*
X14725Y-46630D01*
X14777Y-46607D01*
X14803Y-46607D01*
X14855Y-46630D01*
X14882Y-46654D01*
X14908Y-46702D01*
X14908Y-46797D01*
X14934Y-46845D01*
X14960Y-46869D01*
X15013Y-46892D01*
X15117Y-46892D01*
X15170Y-46869D01*
X15196Y-46845D01*
X15222Y-46797D01*
X15222Y-46702D01*
X15196Y-46654D01*
X15170Y-46630D01*
X15117Y-46607D01*
X15013Y-46607D01*
X14960Y-46630D01*
X14934Y-46654D01*
X14908Y-46702D01*
X13222Y-47083D02*
X12960Y-47250D01*
X13222Y-47369D02*
X12672Y-47369D01*
X12672Y-47178D01*
X12698Y-47130D01*
X12725Y-47107D01*
X12777Y-47083D01*
X12855Y-47083D01*
X12908Y-47107D01*
X12934Y-47130D01*
X12960Y-47178D01*
X12960Y-47369D01*
X12672Y-46916D02*
X12672Y-46607D01*
X12882Y-46773D01*
X12882Y-46702D01*
X12908Y-46654D01*
X12934Y-46630D01*
X12986Y-46607D01*
X13117Y-46607D01*
X13170Y-46630D01*
X13196Y-46654D01*
X13222Y-46702D01*
X13222Y-46845D01*
X13196Y-46892D01*
X13170Y-46916D01*
X14222Y-47083D02*
X13960Y-47250D01*
X14222Y-47369D02*
X13672Y-47369D01*
X13672Y-47178D01*
X13698Y-47130D01*
X13725Y-47107D01*
X13777Y-47083D01*
X13855Y-47083D01*
X13908Y-47107D01*
X13934Y-47130D01*
X13960Y-47178D01*
X13960Y-47369D01*
X13855Y-46654D02*
X14222Y-46654D01*
X13646Y-46773D02*
X14039Y-46892D01*
X14039Y-46583D01*
X12222Y-47083D02*
X11960Y-47250D01*
X12222Y-47369D02*
X11672Y-47369D01*
X11672Y-47178D01*
X11698Y-47130D01*
X11725Y-47107D01*
X11777Y-47083D01*
X11855Y-47083D01*
X11908Y-47107D01*
X11934Y-47130D01*
X11960Y-47178D01*
X11960Y-47369D01*
X11725Y-46892D02*
X11698Y-46869D01*
X11672Y-46821D01*
X11672Y-46702D01*
X11698Y-46654D01*
X11725Y-46630D01*
X11777Y-46607D01*
X11829Y-46607D01*
X11908Y-46630D01*
X12222Y-46916D01*
X12222Y-46607D01*
X11222Y-47083D02*
X10960Y-47250D01*
X11222Y-47369D02*
X10672Y-47369D01*
X10672Y-47178D01*
X10698Y-47130D01*
X10725Y-47107D01*
X10777Y-47083D01*
X10855Y-47083D01*
X10908Y-47107D01*
X10934Y-47130D01*
X10960Y-47178D01*
X10960Y-47369D01*
X10672Y-46654D02*
X10672Y-46750D01*
X10698Y-46797D01*
X10725Y-46821D01*
X10803Y-46869D01*
X10908Y-46892D01*
X11117Y-46892D01*
X11170Y-46869D01*
X11196Y-46845D01*
X11222Y-46797D01*
X11222Y-46702D01*
X11196Y-46654D01*
X11170Y-46630D01*
X11117Y-46607D01*
X10986Y-46607D01*
X10934Y-46630D01*
X10908Y-46654D01*
X10882Y-46702D01*
X10882Y-46797D01*
X10908Y-46845D01*
X10934Y-46869D01*
X10986Y-46892D01*
X10222Y-47083D02*
X9960Y-47250D01*
X10222Y-47369D02*
X9672Y-47369D01*
X9672Y-47178D01*
X9698Y-47130D01*
X9725Y-47107D01*
X9777Y-47083D01*
X9855Y-47083D01*
X9908Y-47107D01*
X9934Y-47130D01*
X9960Y-47178D01*
X9960Y-47369D01*
X10222Y-46845D02*
X10222Y-46750D01*
X10196Y-46702D01*
X10170Y-46678D01*
X10091Y-46630D01*
X9986Y-46607D01*
X9777Y-46607D01*
X9725Y-46630D01*
X9698Y-46654D01*
X9672Y-46702D01*
X9672Y-46797D01*
X9698Y-46845D01*
X9725Y-46869D01*
X9777Y-46892D01*
X9908Y-46892D01*
X9960Y-46869D01*
X9986Y-46845D01*
X10013Y-46797D01*
X10013Y-46702D01*
X9986Y-46654D01*
X9960Y-46630D01*
X9908Y-46607D01*
X9222Y-47083D02*
X8960Y-47250D01*
X9222Y-47369D02*
X8672Y-47369D01*
X8672Y-47178D01*
X8698Y-47130D01*
X8725Y-47107D01*
X8777Y-47083D01*
X8855Y-47083D01*
X8908Y-47107D01*
X8934Y-47130D01*
X8960Y-47178D01*
X8960Y-47369D01*
X9222Y-46607D02*
X9222Y-46892D01*
X9222Y-46750D02*
X8672Y-46750D01*
X8751Y-46797D01*
X8803Y-46845D01*
X8829Y-46892D01*
G54D21*
X8869Y-27678D02*
X8940Y-27702D01*
X9059Y-27702D01*
X9107Y-27678D01*
X9130Y-27654D01*
X9154Y-27607D01*
X9154Y-27559D01*
X9130Y-27511D01*
X9107Y-27488D01*
X9059Y-27464D01*
X8964Y-27440D01*
X8916Y-27416D01*
X8892Y-27392D01*
X8869Y-27345D01*
X8869Y-27297D01*
X8892Y-27250D01*
X8916Y-27226D01*
X8964Y-27202D01*
X9083Y-27202D01*
X9154Y-27226D01*
X9369Y-27702D02*
X9369Y-27202D01*
X9559Y-27202D01*
X9607Y-27226D01*
X9630Y-27250D01*
X9654Y-27297D01*
X9654Y-27369D01*
X9630Y-27416D01*
X9607Y-27440D01*
X9559Y-27464D01*
X9369Y-27464D01*
X10130Y-27702D02*
X9845Y-27702D01*
X9988Y-27702D02*
X9988Y-27202D01*
X9940Y-27273D01*
X9892Y-27321D01*
X9845Y-27345D01*
X7940Y-31678D02*
X8011Y-31702D01*
X8130Y-31702D01*
X8178Y-31678D01*
X8202Y-31654D01*
X8226Y-31607D01*
X8226Y-31559D01*
X8202Y-31511D01*
X8178Y-31488D01*
X8130Y-31464D01*
X8035Y-31440D01*
X7988Y-31416D01*
X7964Y-31392D01*
X7940Y-31345D01*
X7940Y-31297D01*
X7964Y-31250D01*
X7988Y-31226D01*
X8035Y-31202D01*
X8154Y-31202D01*
X8226Y-31226D01*
X8440Y-31702D02*
X8440Y-31202D01*
X8630Y-31202D01*
X8678Y-31226D01*
X8702Y-31250D01*
X8726Y-31297D01*
X8726Y-31369D01*
X8702Y-31416D01*
X8678Y-31440D01*
X8630Y-31464D01*
X8440Y-31464D01*
X8940Y-31440D02*
X9107Y-31440D01*
X9178Y-31702D02*
X8940Y-31702D01*
X8940Y-31202D01*
X9178Y-31202D01*
X9369Y-31559D02*
X9607Y-31559D01*
X9321Y-31702D02*
X9488Y-31202D01*
X9654Y-31702D01*
X9821Y-31702D02*
X9821Y-31202D01*
X10107Y-31702D02*
X9892Y-31416D01*
X10107Y-31202D02*
X9821Y-31488D01*
X10321Y-31440D02*
X10488Y-31440D01*
X10559Y-31702D02*
X10321Y-31702D01*
X10321Y-31202D01*
X10559Y-31202D01*
X11059Y-31702D02*
X10892Y-31464D01*
X10773Y-31702D02*
X10773Y-31202D01*
X10964Y-31202D01*
X11011Y-31226D01*
X11035Y-31250D01*
X11059Y-31297D01*
X11059Y-31369D01*
X11035Y-31416D01*
X11011Y-31440D01*
X10964Y-31464D01*
X10773Y-31464D01*
X15869Y-27678D02*
X15940Y-27702D01*
X16059Y-27702D01*
X16107Y-27678D01*
X16130Y-27654D01*
X16154Y-27607D01*
X16154Y-27559D01*
X16130Y-27511D01*
X16107Y-27488D01*
X16059Y-27464D01*
X15964Y-27440D01*
X15916Y-27416D01*
X15892Y-27392D01*
X15869Y-27345D01*
X15869Y-27297D01*
X15892Y-27250D01*
X15916Y-27226D01*
X15964Y-27202D01*
X16083Y-27202D01*
X16154Y-27226D01*
X16369Y-27702D02*
X16369Y-27202D01*
X16559Y-27202D01*
X16607Y-27226D01*
X16630Y-27250D01*
X16654Y-27297D01*
X16654Y-27369D01*
X16630Y-27416D01*
X16607Y-27440D01*
X16559Y-27464D01*
X16369Y-27464D01*
X16845Y-27250D02*
X16869Y-27226D01*
X16916Y-27202D01*
X17035Y-27202D01*
X17083Y-27226D01*
X17107Y-27250D01*
X17130Y-27297D01*
X17130Y-27345D01*
X17107Y-27416D01*
X16821Y-27702D01*
X17130Y-27702D01*
X14940Y-31678D02*
X15011Y-31702D01*
X15130Y-31702D01*
X15178Y-31678D01*
X15202Y-31654D01*
X15226Y-31607D01*
X15226Y-31559D01*
X15202Y-31511D01*
X15178Y-31488D01*
X15130Y-31464D01*
X15035Y-31440D01*
X14988Y-31416D01*
X14964Y-31392D01*
X14940Y-31345D01*
X14940Y-31297D01*
X14964Y-31250D01*
X14988Y-31226D01*
X15035Y-31202D01*
X15154Y-31202D01*
X15226Y-31226D01*
X15440Y-31702D02*
X15440Y-31202D01*
X15630Y-31202D01*
X15678Y-31226D01*
X15702Y-31250D01*
X15726Y-31297D01*
X15726Y-31369D01*
X15702Y-31416D01*
X15678Y-31440D01*
X15630Y-31464D01*
X15440Y-31464D01*
X15940Y-31440D02*
X16107Y-31440D01*
X16178Y-31702D02*
X15940Y-31702D01*
X15940Y-31202D01*
X16178Y-31202D01*
X16369Y-31559D02*
X16607Y-31559D01*
X16321Y-31702D02*
X16488Y-31202D01*
X16654Y-31702D01*
X16821Y-31702D02*
X16821Y-31202D01*
X17107Y-31702D02*
X16892Y-31416D01*
X17107Y-31202D02*
X16821Y-31488D01*
X17321Y-31440D02*
X17488Y-31440D01*
X17559Y-31702D02*
X17321Y-31702D01*
X17321Y-31202D01*
X17559Y-31202D01*
X18059Y-31702D02*
X17892Y-31464D01*
X17773Y-31702D02*
X17773Y-31202D01*
X17964Y-31202D01*
X18011Y-31226D01*
X18035Y-31250D01*
X18059Y-31297D01*
X18059Y-31369D01*
X18035Y-31416D01*
X18011Y-31440D01*
X17964Y-31464D01*
X17773Y-31464D01*
G54D16*
X88722Y-20821D02*
X88460Y-20988D01*
X88722Y-21107D02*
X88172Y-21107D01*
X88172Y-20916D01*
X88198Y-20869D01*
X88225Y-20845D01*
X88277Y-20821D01*
X88355Y-20821D01*
X88408Y-20845D01*
X88434Y-20869D01*
X88460Y-20916D01*
X88460Y-21107D01*
X88722Y-20345D02*
X88722Y-20630D01*
X88722Y-20488D02*
X88172Y-20488D01*
X88251Y-20535D01*
X88303Y-20583D01*
X88329Y-20630D01*
X88172Y-20035D02*
X88172Y-19988D01*
X88198Y-19940D01*
X88225Y-19916D01*
X88277Y-19892D01*
X88382Y-19869D01*
X88513Y-19869D01*
X88617Y-19892D01*
X88670Y-19916D01*
X88696Y-19940D01*
X88722Y-19988D01*
X88722Y-20035D01*
X88696Y-20083D01*
X88670Y-20107D01*
X88617Y-20130D01*
X88513Y-20154D01*
X88382Y-20154D01*
X88277Y-20130D01*
X88225Y-20107D01*
X88198Y-20083D01*
X88172Y-20035D01*
X20934Y-48166D02*
X20934Y-48333D01*
X21222Y-48333D02*
X20672Y-48333D01*
X20672Y-48095D01*
X20672Y-47952D02*
X20672Y-47642D01*
X20882Y-47809D01*
X20882Y-47738D01*
X20908Y-47690D01*
X20934Y-47666D01*
X20986Y-47642D01*
X21117Y-47642D01*
X21170Y-47666D01*
X21196Y-47690D01*
X21222Y-47738D01*
X21222Y-47880D01*
X21196Y-47928D01*
X21170Y-47952D01*
X19434Y-48166D02*
X19434Y-48333D01*
X19722Y-48333D02*
X19172Y-48333D01*
X19172Y-48095D01*
X19225Y-47928D02*
X19198Y-47904D01*
X19172Y-47857D01*
X19172Y-47738D01*
X19198Y-47690D01*
X19225Y-47666D01*
X19277Y-47642D01*
X19329Y-47642D01*
X19408Y-47666D01*
X19722Y-47952D01*
X19722Y-47642D01*
X22434Y-48166D02*
X22434Y-48333D01*
X22722Y-48333D02*
X22172Y-48333D01*
X22172Y-48095D01*
X22722Y-47642D02*
X22722Y-47928D01*
X22722Y-47785D02*
X22172Y-47785D01*
X22251Y-47833D01*
X22303Y-47880D01*
X22329Y-47928D01*
X85672Y-20916D02*
X86065Y-20916D01*
X86144Y-20940D01*
X86196Y-20988D01*
X86222Y-21059D01*
X86222Y-21107D01*
X86222Y-20678D02*
X85672Y-20678D01*
X85672Y-20488D01*
X85698Y-20440D01*
X85725Y-20416D01*
X85777Y-20392D01*
X85855Y-20392D01*
X85908Y-20416D01*
X85934Y-20440D01*
X85960Y-20488D01*
X85960Y-20678D01*
X85855Y-19964D02*
X86222Y-19964D01*
X85646Y-20083D02*
X86039Y-20202D01*
X86039Y-19892D01*
X89583Y-14672D02*
X89583Y-15065D01*
X89559Y-15144D01*
X89511Y-15196D01*
X89440Y-15222D01*
X89392Y-15222D01*
X89821Y-15222D02*
X89821Y-14672D01*
X90011Y-14672D01*
X90059Y-14698D01*
X90083Y-14725D01*
X90107Y-14777D01*
X90107Y-14855D01*
X90083Y-14908D01*
X90059Y-14934D01*
X90011Y-14960D01*
X89821Y-14960D01*
X90273Y-14672D02*
X90583Y-14672D01*
X90416Y-14882D01*
X90488Y-14882D01*
X90535Y-14908D01*
X90559Y-14934D01*
X90583Y-14986D01*
X90583Y-15117D01*
X90559Y-15170D01*
X90535Y-15196D01*
X90488Y-15222D01*
X90345Y-15222D01*
X90297Y-15196D01*
X90273Y-15170D01*
X96083Y-14672D02*
X96083Y-15065D01*
X96059Y-15144D01*
X96011Y-15196D01*
X95940Y-15222D01*
X95892Y-15222D01*
X96321Y-15222D02*
X96321Y-14672D01*
X96511Y-14672D01*
X96559Y-14698D01*
X96583Y-14725D01*
X96607Y-14777D01*
X96607Y-14855D01*
X96583Y-14908D01*
X96559Y-14934D01*
X96511Y-14960D01*
X96321Y-14960D01*
X97059Y-14672D02*
X96821Y-14672D01*
X96797Y-14934D01*
X96821Y-14908D01*
X96869Y-14882D01*
X96988Y-14882D01*
X97035Y-14908D01*
X97059Y-14934D01*
X97083Y-14986D01*
X97083Y-15117D01*
X97059Y-15170D01*
X97035Y-15196D01*
X96988Y-15222D01*
X96869Y-15222D01*
X96821Y-15196D01*
X96797Y-15170D01*
X17222Y-47321D02*
X16960Y-47488D01*
X17222Y-47607D02*
X16672Y-47607D01*
X16672Y-47416D01*
X16698Y-47369D01*
X16725Y-47345D01*
X16777Y-47321D01*
X16855Y-47321D01*
X16908Y-47345D01*
X16934Y-47369D01*
X16960Y-47416D01*
X16960Y-47607D01*
X17222Y-46845D02*
X17222Y-47130D01*
X17222Y-46988D02*
X16672Y-46988D01*
X16751Y-47035D01*
X16803Y-47083D01*
X16829Y-47130D01*
X17222Y-46369D02*
X17222Y-46654D01*
X17222Y-46511D02*
X16672Y-46511D01*
X16751Y-46559D01*
X16803Y-46607D01*
X16829Y-46654D01*
X16222Y-47321D02*
X15960Y-47488D01*
X16222Y-47607D02*
X15672Y-47607D01*
X15672Y-47416D01*
X15698Y-47369D01*
X15725Y-47345D01*
X15777Y-47321D01*
X15855Y-47321D01*
X15908Y-47345D01*
X15934Y-47369D01*
X15960Y-47416D01*
X15960Y-47607D01*
X16222Y-46845D02*
X16222Y-47130D01*
X16222Y-46988D02*
X15672Y-46988D01*
X15751Y-47035D01*
X15803Y-47083D01*
X15829Y-47130D01*
X15725Y-46654D02*
X15698Y-46630D01*
X15672Y-46583D01*
X15672Y-46464D01*
X15698Y-46416D01*
X15725Y-46392D01*
X15777Y-46369D01*
X15829Y-46369D01*
X15908Y-46392D01*
X16222Y-46678D01*
X16222Y-46369D01*
X9178Y-25722D02*
X9011Y-25460D01*
X8892Y-25722D02*
X8892Y-25172D01*
X9083Y-25172D01*
X9130Y-25198D01*
X9154Y-25225D01*
X9178Y-25277D01*
X9178Y-25355D01*
X9154Y-25408D01*
X9130Y-25434D01*
X9083Y-25460D01*
X8892Y-25460D01*
X9654Y-25722D02*
X9369Y-25722D01*
X9511Y-25722D02*
X9511Y-25172D01*
X9464Y-25251D01*
X9416Y-25303D01*
X9369Y-25329D01*
X10107Y-25172D02*
X9869Y-25172D01*
X9845Y-25434D01*
X9869Y-25408D01*
X9916Y-25382D01*
X10035Y-25382D01*
X10083Y-25408D01*
X10107Y-25434D01*
X10130Y-25486D01*
X10130Y-25617D01*
X10107Y-25670D01*
X10083Y-25696D01*
X10035Y-25722D01*
X9916Y-25722D01*
X9869Y-25696D01*
X9845Y-25670D01*
X12461Y-34700D02*
X12423Y-34680D01*
X12385Y-34642D01*
X12328Y-34585D01*
X12290Y-34566D01*
X12252Y-34566D01*
X12271Y-34661D02*
X12233Y-34642D01*
X12195Y-34604D01*
X12176Y-34528D01*
X12176Y-34395D01*
X12195Y-34319D01*
X12233Y-34280D01*
X12271Y-34261D01*
X12347Y-34261D01*
X12385Y-34280D01*
X12423Y-34319D01*
X12442Y-34395D01*
X12442Y-34528D01*
X12423Y-34604D01*
X12385Y-34642D01*
X12347Y-34661D01*
X12271Y-34661D01*
X12595Y-34300D02*
X12614Y-34280D01*
X12652Y-34261D01*
X12747Y-34261D01*
X12785Y-34280D01*
X12804Y-34300D01*
X12823Y-34338D01*
X12823Y-34376D01*
X12804Y-34433D01*
X12576Y-34661D01*
X12823Y-34661D01*
X11976Y-31161D02*
X11976Y-30761D01*
X12204Y-31161D01*
X12204Y-30761D01*
X12395Y-31161D02*
X12395Y-30761D01*
X12547Y-30761D01*
X12585Y-30780D01*
X12604Y-30800D01*
X12623Y-30838D01*
X12623Y-30895D01*
X12604Y-30933D01*
X12585Y-30952D01*
X12547Y-30971D01*
X12395Y-30971D01*
X12795Y-31161D02*
X12795Y-30761D01*
X13023Y-31161D01*
X13023Y-30761D01*
X7678Y-33972D02*
X7511Y-33710D01*
X7392Y-33972D02*
X7392Y-33422D01*
X7583Y-33422D01*
X7630Y-33448D01*
X7654Y-33475D01*
X7678Y-33527D01*
X7678Y-33605D01*
X7654Y-33658D01*
X7630Y-33684D01*
X7583Y-33710D01*
X7392Y-33710D01*
X8154Y-33972D02*
X7869Y-33972D01*
X8011Y-33972D02*
X8011Y-33422D01*
X7964Y-33501D01*
X7916Y-33553D01*
X7869Y-33579D01*
X8321Y-33422D02*
X8630Y-33422D01*
X8464Y-33632D01*
X8535Y-33632D01*
X8583Y-33658D01*
X8607Y-33684D01*
X8630Y-33736D01*
X8630Y-33867D01*
X8607Y-33920D01*
X8583Y-33946D01*
X8535Y-33972D01*
X8392Y-33972D01*
X8345Y-33946D01*
X8321Y-33920D01*
X17678Y-33972D02*
X17511Y-33710D01*
X17392Y-33972D02*
X17392Y-33422D01*
X17583Y-33422D01*
X17630Y-33448D01*
X17654Y-33475D01*
X17678Y-33527D01*
X17678Y-33605D01*
X17654Y-33658D01*
X17630Y-33684D01*
X17583Y-33710D01*
X17392Y-33710D01*
X18154Y-33972D02*
X17869Y-33972D01*
X18011Y-33972D02*
X18011Y-33422D01*
X17964Y-33501D01*
X17916Y-33553D01*
X17869Y-33579D01*
X18583Y-33605D02*
X18583Y-33972D01*
X18464Y-33396D02*
X18345Y-33789D01*
X18654Y-33789D01*
G54D22*
X19687Y-35285D02*
X19687Y-34580D01*
X19929Y-35285D02*
X19747Y-34882D01*
X19929Y-34580D02*
X19687Y-34983D01*
X20333Y-35285D02*
X20090Y-35285D01*
X20212Y-35285D02*
X20212Y-34580D01*
X20171Y-34681D01*
X20131Y-34748D01*
X20090Y-34781D01*
X19187Y-38035D02*
X19187Y-37330D01*
X19429Y-38035D02*
X19247Y-37632D01*
X19429Y-37330D02*
X19187Y-37733D01*
X19590Y-37397D02*
X19611Y-37363D01*
X19651Y-37330D01*
X19752Y-37330D01*
X19792Y-37363D01*
X19812Y-37397D01*
X19833Y-37464D01*
X19833Y-37531D01*
X19812Y-37632D01*
X19570Y-38035D01*
X19833Y-38035D01*
G54D16*
X12961Y-28700D02*
X12923Y-28680D01*
X12885Y-28642D01*
X12828Y-28585D01*
X12790Y-28566D01*
X12752Y-28566D01*
X12771Y-28661D02*
X12733Y-28642D01*
X12695Y-28604D01*
X12676Y-28528D01*
X12676Y-28395D01*
X12695Y-28319D01*
X12733Y-28280D01*
X12771Y-28261D01*
X12847Y-28261D01*
X12885Y-28280D01*
X12923Y-28319D01*
X12942Y-28395D01*
X12942Y-28528D01*
X12923Y-28604D01*
X12885Y-28642D01*
X12847Y-28661D01*
X12771Y-28661D01*
X13323Y-28661D02*
X13095Y-28661D01*
X13209Y-28661D02*
X13209Y-28261D01*
X13171Y-28319D01*
X13133Y-28357D01*
X13095Y-28376D01*
X12485Y-25161D02*
X12485Y-24761D01*
X12638Y-24761D01*
X12676Y-24780D01*
X12695Y-24800D01*
X12714Y-24838D01*
X12714Y-24895D01*
X12695Y-24933D01*
X12676Y-24952D01*
X12638Y-24971D01*
X12485Y-24971D01*
X12885Y-25161D02*
X12885Y-24761D01*
X13114Y-25161D01*
X13114Y-24761D01*
X13304Y-25161D02*
X13304Y-24761D01*
X13457Y-24761D01*
X13495Y-24780D01*
X13514Y-24800D01*
X13533Y-24838D01*
X13533Y-24895D01*
X13514Y-24933D01*
X13495Y-24952D01*
X13457Y-24971D01*
X13304Y-24971D01*
M02*
