%TF.GenerationSoftware,KiCad,Pcbnew,7.0.9-1.fc38*%
%TF.CreationDate,2023-12-15T18:12:34+10:00*%
%TF.ProjectId,LogicAnalyserSMD,4c6f6769-6341-46e6-916c-79736572534d,0.2*%
%TF.SameCoordinates,Original*%
%TF.FileFunction,Paste,Top*%
%TF.FilePolarity,Positive*%
%FSLAX46Y46*%
G04 Gerber Fmt 4.6, Leading zero omitted, Abs format (unit mm)*
G04 Created by KiCad (PCBNEW 7.0.9-1.fc38) date 2023-12-15 18:12:34*
%MOMM*%
%LPD*%
G01*
G04 APERTURE LIST*
G04 Aperture macros list*
%AMRoundRect*
0 Rectangle with rounded corners*
0 $1 Rounding radius*
0 $2 $3 $4 $5 $6 $7 $8 $9 X,Y pos of 4 corners*
0 Add a 4 corners polygon primitive as box body*
4,1,4,$2,$3,$4,$5,$6,$7,$8,$9,$2,$3,0*
0 Add four circle primitives for the rounded corners*
1,1,$1+$1,$2,$3*
1,1,$1+$1,$4,$5*
1,1,$1+$1,$6,$7*
1,1,$1+$1,$8,$9*
0 Add four rect primitives between the rounded corners*
20,1,$1+$1,$2,$3,$4,$5,0*
20,1,$1+$1,$4,$5,$6,$7,0*
20,1,$1+$1,$6,$7,$8,$9,0*
20,1,$1+$1,$8,$9,$2,$3,0*%
G04 Aperture macros list end*
%ADD10RoundRect,0.250000X0.262500X0.450000X-0.262500X0.450000X-0.262500X-0.450000X0.262500X-0.450000X0*%
%ADD11RoundRect,0.250000X-0.250000X-0.475000X0.250000X-0.475000X0.250000X0.475000X-0.250000X0.475000X0*%
%ADD12RoundRect,0.250000X-0.262500X-0.450000X0.262500X-0.450000X0.262500X0.450000X-0.262500X0.450000X0*%
%ADD13RoundRect,0.250000X0.250000X0.475000X-0.250000X0.475000X-0.250000X-0.475000X0.250000X-0.475000X0*%
%ADD14RoundRect,0.150000X-0.825000X-0.150000X0.825000X-0.150000X0.825000X0.150000X-0.825000X0.150000X0*%
G04 APERTURE END LIST*
D10*
%TO.C,R1*%
X41355000Y-157734000D03*
X43180000Y-157734000D03*
%TD*%
D11*
%TO.C,C41*%
X119502000Y-154940000D03*
X117602000Y-154940000D03*
%TD*%
D12*
%TO.C,R146*%
X186737000Y-152146000D03*
X184912000Y-152146000D03*
%TD*%
D10*
%TO.C,R173*%
X215392000Y-157734000D03*
X217217000Y-157734000D03*
%TD*%
D12*
%TO.C,R8*%
X50847000Y-139446000D03*
X49022000Y-139446000D03*
%TD*%
D13*
%TO.C,C100*%
X101478000Y-104394000D03*
X103378000Y-104394000D03*
%TD*%
D12*
%TO.C,R24*%
X66087000Y-139446000D03*
X64262000Y-139446000D03*
%TD*%
D10*
%TO.C,R93*%
X135382000Y-157734000D03*
X137207000Y-157734000D03*
%TD*%
D12*
%TO.C,R14*%
X54657000Y-152146000D03*
X52832000Y-152146000D03*
%TD*%
%TO.C,R142*%
X182927000Y-152146000D03*
X181102000Y-152146000D03*
%TD*%
D10*
%TO.C,R103*%
X146812000Y-145034000D03*
X148637000Y-145034000D03*
%TD*%
D11*
%TO.C,C35*%
X108072000Y-154940000D03*
X106172000Y-154940000D03*
%TD*%
%TO.C,C43*%
X127122000Y-154940000D03*
X125222000Y-154940000D03*
%TD*%
D12*
%TO.C,R116*%
X160067000Y-139446000D03*
X158242000Y-139446000D03*
%TD*%
D10*
%TO.C,R85*%
X125222000Y-157734000D03*
X127047000Y-157734000D03*
%TD*%
%TO.C,R137*%
X177292000Y-157734000D03*
X179117000Y-157734000D03*
%TD*%
%TO.C,R179*%
X223012000Y-145034000D03*
X224837000Y-145034000D03*
%TD*%
D11*
%TO.C,C29*%
X96642000Y-154940000D03*
X94742000Y-154940000D03*
%TD*%
D10*
%TO.C,R153*%
X192532000Y-157734000D03*
X194357000Y-157734000D03*
%TD*%
%TO.C,R49*%
X87122000Y-157734000D03*
X88947000Y-157734000D03*
%TD*%
D12*
%TO.C,R38*%
X77517000Y-152146000D03*
X75692000Y-152146000D03*
%TD*%
D11*
%TO.C,C48*%
X141092000Y-142240000D03*
X139192000Y-142240000D03*
%TD*%
%TO.C,C91*%
X224912000Y-154940000D03*
X223012000Y-154940000D03*
%TD*%
D10*
%TO.C,R51*%
X90932000Y-145034000D03*
X92757000Y-145034000D03*
%TD*%
D11*
%TO.C,C16*%
X73782000Y-142240000D03*
X71882000Y-142240000D03*
%TD*%
%TO.C,C79*%
X198242000Y-154940000D03*
X196342000Y-154940000D03*
%TD*%
D12*
%TO.C,R46*%
X85137000Y-152146000D03*
X83312000Y-152146000D03*
%TD*%
%TO.C,R199*%
X103378000Y-101600000D03*
X101553000Y-101600000D03*
%TD*%
%TO.C,R18*%
X58467000Y-152146000D03*
X56642000Y-152146000D03*
%TD*%
D11*
%TO.C,C74*%
X190622000Y-142240000D03*
X188722000Y-142240000D03*
%TD*%
%TO.C,C73*%
X186812000Y-154940000D03*
X184912000Y-154940000D03*
%TD*%
D10*
%TO.C,R135*%
X177292000Y-145034000D03*
X179117000Y-145034000D03*
%TD*%
D11*
%TO.C,C39*%
X115692000Y-154940000D03*
X113792000Y-154940000D03*
%TD*%
D13*
%TO.C,C103*%
X101854000Y-86106000D03*
X103754000Y-86106000D03*
%TD*%
D10*
%TO.C,R201*%
X226822000Y-157734000D03*
X228647000Y-157734000D03*
%TD*%
D12*
%TO.C,R26*%
X66087000Y-152146000D03*
X64262000Y-152146000D03*
%TD*%
D10*
%TO.C,R17*%
X56642000Y-157734000D03*
X58467000Y-157734000D03*
%TD*%
D12*
%TO.C,R114*%
X156257000Y-152146000D03*
X154432000Y-152146000D03*
%TD*%
D10*
%TO.C,R99*%
X143002000Y-145034000D03*
X144827000Y-145034000D03*
%TD*%
D12*
%TO.C,R84*%
X124507000Y-139446000D03*
X122682000Y-139446000D03*
%TD*%
D10*
%TO.C,R194*%
X30433000Y-90932000D03*
X32258000Y-90932000D03*
%TD*%
D11*
%TO.C,C15*%
X69972000Y-154940000D03*
X68072000Y-154940000D03*
%TD*%
%TO.C,C21*%
X81402000Y-154940000D03*
X79502000Y-154940000D03*
%TD*%
%TO.C,C17*%
X73782000Y-154940000D03*
X71882000Y-154940000D03*
%TD*%
%TO.C,C2*%
X47112000Y-142240000D03*
X45212000Y-142240000D03*
%TD*%
D10*
%TO.C,R67*%
X106172000Y-145034000D03*
X107997000Y-145034000D03*
%TD*%
%TO.C,R189*%
X252222000Y-96520000D03*
X254047000Y-96520000D03*
%TD*%
D11*
%TO.C,C54*%
X152522000Y-142240000D03*
X150622000Y-142240000D03*
%TD*%
%TO.C,C96*%
X255900000Y-87122000D03*
X254000000Y-87122000D03*
%TD*%
%TO.C,C49*%
X141092000Y-154940000D03*
X139192000Y-154940000D03*
%TD*%
D10*
%TO.C,R35*%
X75692000Y-145034000D03*
X77517000Y-145034000D03*
%TD*%
D12*
%TO.C,R128*%
X171497000Y-139446000D03*
X169672000Y-139446000D03*
%TD*%
%TO.C,R132*%
X175307000Y-139446000D03*
X173482000Y-139446000D03*
%TD*%
D10*
%TO.C,R197*%
X121412000Y-157734000D03*
X123237000Y-157734000D03*
%TD*%
%TO.C,R61*%
X100377000Y-157734000D03*
X98552000Y-157734000D03*
%TD*%
D12*
%TO.C,R74*%
X111807000Y-152146000D03*
X109982000Y-152146000D03*
%TD*%
%TO.C,R32*%
X73707000Y-139446000D03*
X71882000Y-139446000D03*
%TD*%
D11*
%TO.C,C18*%
X77592000Y-142240000D03*
X75692000Y-142240000D03*
%TD*%
D10*
%TO.C,R121*%
X162052000Y-157734000D03*
X163877000Y-157734000D03*
%TD*%
D11*
%TO.C,C56*%
X156332000Y-142240000D03*
X154432000Y-142240000D03*
%TD*%
D10*
%TO.C,R25*%
X64262000Y-157734000D03*
X66087000Y-157734000D03*
%TD*%
D11*
%TO.C,C31*%
X100452000Y-154940000D03*
X98552000Y-154940000D03*
%TD*%
D12*
%TO.C,R134*%
X175307000Y-152146000D03*
X173482000Y-152146000D03*
%TD*%
D10*
%TO.C,R39*%
X79502000Y-145034000D03*
X81327000Y-145034000D03*
%TD*%
D12*
%TO.C,R22*%
X62277000Y-152146000D03*
X60452000Y-152146000D03*
%TD*%
%TO.C,R44*%
X85137000Y-139446000D03*
X83312000Y-139446000D03*
%TD*%
%TO.C,R184*%
X244649000Y-89916000D03*
X242824000Y-89916000D03*
%TD*%
D11*
%TO.C,C44*%
X133472000Y-142240000D03*
X131572000Y-142240000D03*
%TD*%
D12*
%TO.C,R66*%
X104187000Y-152146000D03*
X102362000Y-152146000D03*
%TD*%
%TO.C,R204*%
X205787000Y-152146000D03*
X203962000Y-152146000D03*
%TD*%
D11*
%TO.C,C101*%
X228722000Y-154940000D03*
X226822000Y-154940000D03*
%TD*%
%TO.C,C83*%
X209672000Y-154940000D03*
X207772000Y-154940000D03*
%TD*%
%TO.C,C13*%
X66162000Y-154940000D03*
X64262000Y-154940000D03*
%TD*%
%TO.C,C34*%
X108072000Y-142240000D03*
X106172000Y-142240000D03*
%TD*%
D12*
%TO.C,R98*%
X141017000Y-152146000D03*
X139192000Y-152146000D03*
%TD*%
D10*
%TO.C,R79*%
X117602000Y-145034000D03*
X119427000Y-145034000D03*
%TD*%
D12*
%TO.C,R2*%
X43227000Y-152146000D03*
X41402000Y-152146000D03*
%TD*%
%TO.C,R144*%
X186737000Y-139446000D03*
X184912000Y-139446000D03*
%TD*%
D10*
%TO.C,R95*%
X139192000Y-145034000D03*
X141017000Y-145034000D03*
%TD*%
%TO.C,R83*%
X122682000Y-145034000D03*
X124507000Y-145034000D03*
%TD*%
D11*
%TO.C,C95*%
X254122000Y-99314000D03*
X252222000Y-99314000D03*
%TD*%
D10*
%TO.C,R155*%
X196342000Y-145034000D03*
X198167000Y-145034000D03*
%TD*%
D12*
%TO.C,R102*%
X144827000Y-152146000D03*
X143002000Y-152146000D03*
%TD*%
%TO.C,R80*%
X119427000Y-139446000D03*
X117602000Y-139446000D03*
%TD*%
D11*
%TO.C,C58*%
X160142000Y-142240000D03*
X158242000Y-142240000D03*
%TD*%
%TO.C,C36*%
X111882000Y-142240000D03*
X109982000Y-142240000D03*
%TD*%
D10*
%TO.C,R23*%
X64215000Y-145034000D03*
X66040000Y-145034000D03*
%TD*%
%TO.C,R111*%
X154432000Y-145034000D03*
X156257000Y-145034000D03*
%TD*%
D12*
%TO.C,R60*%
X100377000Y-139446000D03*
X98552000Y-139446000D03*
%TD*%
D11*
%TO.C,C24*%
X89022000Y-142240000D03*
X87122000Y-142240000D03*
%TD*%
D12*
%TO.C,R30*%
X69897000Y-152146000D03*
X68072000Y-152146000D03*
%TD*%
D11*
%TO.C,C32*%
X104262000Y-142240000D03*
X102362000Y-142240000D03*
%TD*%
D12*
%TO.C,R12*%
X54657000Y-139446000D03*
X52832000Y-139446000D03*
%TD*%
%TO.C,R122*%
X163877000Y-152146000D03*
X162052000Y-152146000D03*
%TD*%
D11*
%TO.C,C7*%
X54732000Y-154940000D03*
X52832000Y-154940000D03*
%TD*%
%TO.C,C30*%
X100452000Y-142240000D03*
X98552000Y-142240000D03*
%TD*%
%TO.C,C61*%
X163952000Y-154940000D03*
X162052000Y-154940000D03*
%TD*%
D10*
%TO.C,R81*%
X117602000Y-157734000D03*
X119427000Y-157734000D03*
%TD*%
%TO.C,R77*%
X113792000Y-157734000D03*
X115617000Y-157734000D03*
%TD*%
D12*
%TO.C,R186*%
X248459000Y-102108000D03*
X246634000Y-102108000D03*
%TD*%
D11*
%TO.C,C99*%
X123312000Y-154940000D03*
X121412000Y-154940000D03*
%TD*%
D10*
%TO.C,R9*%
X48975000Y-157734000D03*
X50800000Y-157734000D03*
%TD*%
D11*
%TO.C,C26*%
X92832000Y-142240000D03*
X90932000Y-142240000D03*
%TD*%
%TO.C,C75*%
X190622000Y-154940000D03*
X188722000Y-154940000D03*
%TD*%
%TO.C,C86*%
X217292000Y-142240000D03*
X215392000Y-142240000D03*
%TD*%
%TO.C,C38*%
X115692000Y-142240000D03*
X113792000Y-142240000D03*
%TD*%
D12*
%TO.C,R110*%
X152447000Y-152146000D03*
X150622000Y-152146000D03*
%TD*%
D11*
%TO.C,C84*%
X213482000Y-142240000D03*
X211582000Y-142240000D03*
%TD*%
%TO.C,C11*%
X62352000Y-154940000D03*
X60452000Y-154940000D03*
%TD*%
D12*
%TO.C,R138*%
X179117000Y-152146000D03*
X177292000Y-152146000D03*
%TD*%
D11*
%TO.C,C66*%
X175382000Y-142240000D03*
X173482000Y-142240000D03*
%TD*%
D10*
%TO.C,R183*%
X242824000Y-84328000D03*
X244649000Y-84328000D03*
%TD*%
D12*
%TO.C,R56*%
X96567000Y-139446000D03*
X94742000Y-139446000D03*
%TD*%
D10*
%TO.C,R97*%
X139192000Y-157734000D03*
X141017000Y-157734000D03*
%TD*%
D12*
%TO.C,R6*%
X47037000Y-152146000D03*
X45212000Y-152146000D03*
%TD*%
%TO.C,R188*%
X250237000Y-89916000D03*
X248412000Y-89916000D03*
%TD*%
D10*
%TO.C,R27*%
X68072000Y-145034000D03*
X69897000Y-145034000D03*
%TD*%
%TO.C,R7*%
X49022000Y-145034000D03*
X50847000Y-145034000D03*
%TD*%
D11*
%TO.C,C59*%
X160142000Y-154940000D03*
X158242000Y-154940000D03*
%TD*%
D12*
%TO.C,R50*%
X88947000Y-152146000D03*
X87122000Y-152146000D03*
%TD*%
%TO.C,R198*%
X123237000Y-152146000D03*
X121412000Y-152146000D03*
%TD*%
%TO.C,R16*%
X58467000Y-139446000D03*
X56642000Y-139446000D03*
%TD*%
%TO.C,R156*%
X198167000Y-139446000D03*
X196342000Y-139446000D03*
%TD*%
D10*
%TO.C,R129*%
X169672000Y-157734000D03*
X171497000Y-157734000D03*
%TD*%
D12*
%TO.C,R86*%
X127047000Y-152146000D03*
X125222000Y-152146000D03*
%TD*%
D10*
%TO.C,R33*%
X71882000Y-157734000D03*
X73707000Y-157734000D03*
%TD*%
%TO.C,R57*%
X94742000Y-157734000D03*
X96567000Y-157734000D03*
%TD*%
D12*
%TO.C,R70*%
X107997000Y-152146000D03*
X106172000Y-152146000D03*
%TD*%
%TO.C,R112*%
X156257000Y-139446000D03*
X154432000Y-139446000D03*
%TD*%
D11*
%TO.C,C93*%
X248534000Y-99314000D03*
X246634000Y-99314000D03*
%TD*%
D12*
%TO.C,R72*%
X111807000Y-139446000D03*
X109982000Y-139446000D03*
%TD*%
D10*
%TO.C,R19*%
X60405000Y-145034000D03*
X62230000Y-145034000D03*
%TD*%
%TO.C,R109*%
X150622000Y-157734000D03*
X152447000Y-157734000D03*
%TD*%
%TO.C,R15*%
X56642000Y-145034000D03*
X58467000Y-145034000D03*
%TD*%
D12*
%TO.C,R96*%
X141017000Y-139446000D03*
X139192000Y-139446000D03*
%TD*%
D10*
%TO.C,R177*%
X219202000Y-157734000D03*
X221027000Y-157734000D03*
%TD*%
%TO.C,R65*%
X102362000Y-157734000D03*
X104187000Y-157734000D03*
%TD*%
D12*
%TO.C,R28*%
X69897000Y-139446000D03*
X68072000Y-139446000D03*
%TD*%
D10*
%TO.C,R43*%
X83312000Y-145034000D03*
X85137000Y-145034000D03*
%TD*%
D11*
%TO.C,C94*%
X250312000Y-87122000D03*
X248412000Y-87122000D03*
%TD*%
D12*
%TO.C,R154*%
X194357000Y-152146000D03*
X192532000Y-152146000D03*
%TD*%
D10*
%TO.C,R3*%
X45212000Y-145034000D03*
X47037000Y-145034000D03*
%TD*%
D12*
%TO.C,R48*%
X88947000Y-139446000D03*
X87122000Y-139446000D03*
%TD*%
D10*
%TO.C,R53*%
X90932000Y-157734000D03*
X92757000Y-157734000D03*
%TD*%
%TO.C,R187*%
X248412000Y-84328000D03*
X250237000Y-84328000D03*
%TD*%
%TO.C,R73*%
X109982000Y-157734000D03*
X111807000Y-157734000D03*
%TD*%
D11*
%TO.C,C10*%
X62352000Y-142240000D03*
X60452000Y-142240000D03*
%TD*%
D12*
%TO.C,R4*%
X47037000Y-139446000D03*
X45212000Y-139446000D03*
%TD*%
D11*
%TO.C,C65*%
X171572000Y-154940000D03*
X169672000Y-154940000D03*
%TD*%
%TO.C,C50*%
X144902000Y-142240000D03*
X143002000Y-142240000D03*
%TD*%
%TO.C,C67*%
X175382000Y-154940000D03*
X173482000Y-154940000D03*
%TD*%
D10*
%TO.C,R29*%
X68072000Y-157734000D03*
X69897000Y-157734000D03*
%TD*%
%TO.C,R45*%
X83312000Y-157734000D03*
X85137000Y-157734000D03*
%TD*%
D12*
%TO.C,R136*%
X179117000Y-139446000D03*
X177292000Y-139446000D03*
%TD*%
D10*
%TO.C,R113*%
X154432000Y-157734000D03*
X156257000Y-157734000D03*
%TD*%
D11*
%TO.C,C102*%
X205862000Y-154940000D03*
X203962000Y-154940000D03*
%TD*%
D12*
%TO.C,R126*%
X167687000Y-152146000D03*
X165862000Y-152146000D03*
%TD*%
D10*
%TO.C,R181*%
X223012000Y-157734000D03*
X224837000Y-157734000D03*
%TD*%
%TO.C,R161*%
X200152000Y-157734000D03*
X201977000Y-157734000D03*
%TD*%
D11*
%TO.C,C1*%
X43302000Y-154940000D03*
X41402000Y-154940000D03*
%TD*%
D10*
%TO.C,R171*%
X215392000Y-145034000D03*
X217217000Y-145034000D03*
%TD*%
%TO.C,R91*%
X135382000Y-145034000D03*
X137207000Y-145034000D03*
%TD*%
D11*
%TO.C,C37*%
X111882000Y-154940000D03*
X109982000Y-154940000D03*
%TD*%
%TO.C,C71*%
X183002000Y-154940000D03*
X181102000Y-154940000D03*
%TD*%
D12*
%TO.C,R168*%
X213407000Y-139446000D03*
X211582000Y-139446000D03*
%TD*%
D11*
%TO.C,C51*%
X144902000Y-154940000D03*
X143002000Y-154940000D03*
%TD*%
D12*
%TO.C,R10*%
X50847000Y-152146000D03*
X49022000Y-152146000D03*
%TD*%
%TO.C,R130*%
X171497000Y-152146000D03*
X169672000Y-152146000D03*
%TD*%
D10*
%TO.C,R141*%
X181102000Y-157734000D03*
X182927000Y-157734000D03*
%TD*%
D11*
%TO.C,C12*%
X66162000Y-142240000D03*
X64262000Y-142240000D03*
%TD*%
D12*
%TO.C,R180*%
X224837000Y-139446000D03*
X223012000Y-139446000D03*
%TD*%
D10*
%TO.C,R117*%
X158242000Y-157734000D03*
X160067000Y-157734000D03*
%TD*%
D12*
%TO.C,R34*%
X73707000Y-152146000D03*
X71882000Y-152146000D03*
%TD*%
%TO.C,R178*%
X221027000Y-152146000D03*
X219202000Y-152146000D03*
%TD*%
%TO.C,R160*%
X201977000Y-139446000D03*
X200152000Y-139446000D03*
%TD*%
D10*
%TO.C,R107*%
X150622000Y-145034000D03*
X152447000Y-145034000D03*
%TD*%
D11*
%TO.C,C9*%
X58542000Y-154940000D03*
X56642000Y-154940000D03*
%TD*%
D10*
%TO.C,R159*%
X200152000Y-145034000D03*
X201977000Y-145034000D03*
%TD*%
D12*
%TO.C,R64*%
X104187000Y-139446000D03*
X102362000Y-139446000D03*
%TD*%
D11*
%TO.C,C25*%
X89022000Y-154940000D03*
X87122000Y-154940000D03*
%TD*%
%TO.C,C55*%
X152522000Y-154940000D03*
X150622000Y-154940000D03*
%TD*%
D10*
%TO.C,R37*%
X75692000Y-157734000D03*
X77517000Y-157734000D03*
%TD*%
D12*
%TO.C,R68*%
X107997000Y-139446000D03*
X106172000Y-139446000D03*
%TD*%
D10*
%TO.C,R167*%
X211582000Y-145034000D03*
X213407000Y-145034000D03*
%TD*%
%TO.C,R145*%
X184912000Y-157734000D03*
X186737000Y-157734000D03*
%TD*%
%TO.C,R11*%
X52832000Y-145034000D03*
X54657000Y-145034000D03*
%TD*%
D12*
%TO.C,R164*%
X209597000Y-139446000D03*
X207772000Y-139446000D03*
%TD*%
D10*
%TO.C,R5*%
X45165000Y-157734000D03*
X46990000Y-157734000D03*
%TD*%
D11*
%TO.C,C23*%
X85212000Y-154940000D03*
X83312000Y-154940000D03*
%TD*%
D10*
%TO.C,R147*%
X188722000Y-145034000D03*
X190547000Y-145034000D03*
%TD*%
D11*
%TO.C,C20*%
X81402000Y-142240000D03*
X79502000Y-142240000D03*
%TD*%
D10*
%TO.C,R165*%
X207772000Y-157734000D03*
X209597000Y-157734000D03*
%TD*%
D12*
%TO.C,R54*%
X92757000Y-152146000D03*
X90932000Y-152146000D03*
%TD*%
D10*
%TO.C,R71*%
X109982000Y-145034000D03*
X111807000Y-145034000D03*
%TD*%
%TO.C,R123*%
X165862000Y-145034000D03*
X167687000Y-145034000D03*
%TD*%
%TO.C,R169*%
X211582000Y-157734000D03*
X213407000Y-157734000D03*
%TD*%
%TO.C,R21*%
X60452000Y-157734000D03*
X62277000Y-157734000D03*
%TD*%
D11*
%TO.C,C57*%
X156332000Y-154940000D03*
X154432000Y-154940000D03*
%TD*%
D12*
%TO.C,R94*%
X137207000Y-152146000D03*
X135382000Y-152146000D03*
%TD*%
D10*
%TO.C,R185*%
X246634000Y-96520000D03*
X248459000Y-96520000D03*
%TD*%
D12*
%TO.C,R100*%
X144827000Y-139446000D03*
X143002000Y-139446000D03*
%TD*%
D11*
%TO.C,C63*%
X167762000Y-154940000D03*
X165862000Y-154940000D03*
%TD*%
D12*
%TO.C,R106*%
X148637000Y-152146000D03*
X146812000Y-152146000D03*
%TD*%
%TO.C,R158*%
X198167000Y-152146000D03*
X196342000Y-152146000D03*
%TD*%
D10*
%TO.C,R131*%
X173482000Y-145034000D03*
X175307000Y-145034000D03*
%TD*%
D12*
%TO.C,R88*%
X133397000Y-139446000D03*
X131572000Y-139446000D03*
%TD*%
D11*
%TO.C,C3*%
X47112000Y-154940000D03*
X45212000Y-154940000D03*
%TD*%
D10*
%TO.C,R75*%
X113792000Y-145034000D03*
X115617000Y-145034000D03*
%TD*%
%TO.C,R87*%
X131572000Y-145034000D03*
X133397000Y-145034000D03*
%TD*%
%TO.C,R101*%
X144827000Y-157734000D03*
X143002000Y-157734000D03*
%TD*%
D11*
%TO.C,C88*%
X221102000Y-142240000D03*
X219202000Y-142240000D03*
%TD*%
D12*
%TO.C,R120*%
X163877000Y-139446000D03*
X162052000Y-139446000D03*
%TD*%
%TO.C,R182*%
X224837000Y-152146000D03*
X223012000Y-152146000D03*
%TD*%
D10*
%TO.C,R191*%
X254000000Y-84328000D03*
X255825000Y-84328000D03*
%TD*%
D12*
%TO.C,R192*%
X255825000Y-89916000D03*
X254000000Y-89916000D03*
%TD*%
D11*
%TO.C,C77*%
X194432000Y-154940000D03*
X192532000Y-154940000D03*
%TD*%
%TO.C,C60*%
X163952000Y-142240000D03*
X162052000Y-142240000D03*
%TD*%
D10*
%TO.C,R143*%
X184912000Y-145034000D03*
X186737000Y-145034000D03*
%TD*%
D11*
%TO.C,C22*%
X85212000Y-142240000D03*
X83312000Y-142240000D03*
%TD*%
D12*
%TO.C,R62*%
X100377000Y-152146000D03*
X98552000Y-152146000D03*
%TD*%
D11*
%TO.C,C53*%
X148712000Y-154940000D03*
X146812000Y-154940000D03*
%TD*%
D10*
%TO.C,R157*%
X196342000Y-157734000D03*
X198167000Y-157734000D03*
%TD*%
D12*
%TO.C,R193*%
X32258000Y-85344000D03*
X30433000Y-85344000D03*
%TD*%
D10*
%TO.C,R63*%
X102362000Y-145034000D03*
X104187000Y-145034000D03*
%TD*%
D12*
%TO.C,R162*%
X201977000Y-152146000D03*
X200152000Y-152146000D03*
%TD*%
D10*
%TO.C,R13*%
X52785000Y-157734000D03*
X54610000Y-157734000D03*
%TD*%
D11*
%TO.C,C82*%
X209672000Y-142240000D03*
X207772000Y-142240000D03*
%TD*%
%TO.C,C14*%
X69972000Y-142240000D03*
X68072000Y-142240000D03*
%TD*%
D12*
%TO.C,R174*%
X217217000Y-152146000D03*
X215392000Y-152146000D03*
%TD*%
D11*
%TO.C,C47*%
X137282000Y-154940000D03*
X135382000Y-154940000D03*
%TD*%
%TO.C,C8*%
X58542000Y-142240000D03*
X56642000Y-142240000D03*
%TD*%
D10*
%TO.C,R139*%
X181102000Y-145034000D03*
X182927000Y-145034000D03*
%TD*%
D12*
%TO.C,R166*%
X209597000Y-152146000D03*
X207772000Y-152146000D03*
%TD*%
D10*
%TO.C,R133*%
X173482000Y-157734000D03*
X175307000Y-157734000D03*
%TD*%
D12*
%TO.C,R108*%
X152447000Y-139446000D03*
X150622000Y-139446000D03*
%TD*%
%TO.C,R190*%
X254047000Y-102108000D03*
X252222000Y-102108000D03*
%TD*%
D10*
%TO.C,R69*%
X106172000Y-157734000D03*
X107997000Y-157734000D03*
%TD*%
D11*
%TO.C,C98*%
X26538000Y-88138000D03*
X24638000Y-88138000D03*
%TD*%
%TO.C,C52*%
X148712000Y-142240000D03*
X146812000Y-142240000D03*
%TD*%
%TO.C,C42*%
X124582000Y-142240000D03*
X122682000Y-142240000D03*
%TD*%
D12*
%TO.C,R140*%
X182927000Y-139446000D03*
X181102000Y-139446000D03*
%TD*%
D11*
%TO.C,C92*%
X244724000Y-87122000D03*
X242824000Y-87122000D03*
%TD*%
%TO.C,C45*%
X133472000Y-154940000D03*
X131572000Y-154940000D03*
%TD*%
D12*
%TO.C,R150*%
X190547000Y-152146000D03*
X188722000Y-152146000D03*
%TD*%
D10*
%TO.C,R203*%
X203962000Y-157734000D03*
X205787000Y-157734000D03*
%TD*%
D11*
%TO.C,C28*%
X96642000Y-142240000D03*
X94742000Y-142240000D03*
%TD*%
D10*
%TO.C,R163*%
X207772000Y-145034000D03*
X209597000Y-145034000D03*
%TD*%
D12*
%TO.C,R42*%
X81327000Y-152146000D03*
X79502000Y-152146000D03*
%TD*%
%TO.C,R92*%
X137207000Y-139446000D03*
X135382000Y-139446000D03*
%TD*%
D11*
%TO.C,C72*%
X186812000Y-142240000D03*
X184912000Y-142240000D03*
%TD*%
D10*
%TO.C,R195*%
X24638000Y-85344000D03*
X26463000Y-85344000D03*
%TD*%
D12*
%TO.C,R52*%
X92757000Y-139446000D03*
X90932000Y-139446000D03*
%TD*%
D11*
%TO.C,C33*%
X104262000Y-154940000D03*
X102362000Y-154940000D03*
%TD*%
D12*
%TO.C,R78*%
X115617000Y-152146000D03*
X113792000Y-152146000D03*
%TD*%
D10*
%TO.C,R127*%
X169672000Y-145034000D03*
X171497000Y-145034000D03*
%TD*%
D12*
%TO.C,R82*%
X119427000Y-152146000D03*
X117602000Y-152146000D03*
%TD*%
%TO.C,R90*%
X133397000Y-152146000D03*
X131572000Y-152146000D03*
%TD*%
D10*
%TO.C,R151*%
X192532000Y-145034000D03*
X194357000Y-145034000D03*
%TD*%
D12*
%TO.C,R118*%
X160067000Y-152146000D03*
X158242000Y-152146000D03*
%TD*%
D10*
%TO.C,R149*%
X188722000Y-157734000D03*
X190547000Y-157734000D03*
%TD*%
%TO.C,R175*%
X219202000Y-145034000D03*
X221027000Y-145034000D03*
%TD*%
%TO.C,R47*%
X87122000Y-145034000D03*
X88947000Y-145034000D03*
%TD*%
%TO.C,R89*%
X131572000Y-157734000D03*
X133397000Y-157734000D03*
%TD*%
%TO.C,R41*%
X79502000Y-157734000D03*
X81327000Y-157734000D03*
%TD*%
D12*
%TO.C,R104*%
X148637000Y-139446000D03*
X146812000Y-139446000D03*
%TD*%
D11*
%TO.C,C4*%
X50922000Y-142240000D03*
X49022000Y-142240000D03*
%TD*%
%TO.C,C80*%
X202052000Y-142240000D03*
X200152000Y-142240000D03*
%TD*%
%TO.C,C85*%
X213482000Y-154940000D03*
X211582000Y-154940000D03*
%TD*%
D12*
%TO.C,R40*%
X81327000Y-139446000D03*
X79502000Y-139446000D03*
%TD*%
%TO.C,R36*%
X77517000Y-139446000D03*
X75692000Y-139446000D03*
%TD*%
D10*
%TO.C,R115*%
X158242000Y-145034000D03*
X160067000Y-145034000D03*
%TD*%
D11*
%TO.C,C78*%
X198242000Y-142240000D03*
X196342000Y-142240000D03*
%TD*%
D12*
%TO.C,R58*%
X96567000Y-152146000D03*
X94742000Y-152146000D03*
%TD*%
D11*
%TO.C,C69*%
X179192000Y-154940000D03*
X177292000Y-154940000D03*
%TD*%
D10*
%TO.C,R105*%
X146812000Y-157734000D03*
X148637000Y-157734000D03*
%TD*%
D11*
%TO.C,C87*%
X217292000Y-154940000D03*
X215392000Y-154940000D03*
%TD*%
%TO.C,C40*%
X119502000Y-142240000D03*
X117602000Y-142240000D03*
%TD*%
D12*
%TO.C,R76*%
X115617000Y-139446000D03*
X113792000Y-139446000D03*
%TD*%
D11*
%TO.C,C19*%
X77592000Y-154940000D03*
X75692000Y-154940000D03*
%TD*%
D10*
%TO.C,R31*%
X71835000Y-145034000D03*
X73660000Y-145034000D03*
%TD*%
%TO.C,R119*%
X162052000Y-145034000D03*
X163877000Y-145034000D03*
%TD*%
D11*
%TO.C,C46*%
X137282000Y-142240000D03*
X135382000Y-142240000D03*
%TD*%
D10*
%TO.C,R125*%
X165862000Y-157734000D03*
X167687000Y-157734000D03*
%TD*%
D11*
%TO.C,C27*%
X92832000Y-154940000D03*
X90932000Y-154940000D03*
%TD*%
%TO.C,C5*%
X50922000Y-154940000D03*
X49022000Y-154940000D03*
%TD*%
D12*
%TO.C,R152*%
X194357000Y-139446000D03*
X192532000Y-139446000D03*
%TD*%
%TO.C,R148*%
X190547000Y-139446000D03*
X188722000Y-139446000D03*
%TD*%
%TO.C,R196*%
X26463000Y-90932000D03*
X24638000Y-90932000D03*
%TD*%
D14*
%TO.C,U1*%
X105280000Y-88900000D03*
X105280000Y-90170000D03*
X105280000Y-91440000D03*
X105280000Y-92710000D03*
X105280000Y-93980000D03*
X105280000Y-95250000D03*
X105280000Y-96520000D03*
X100330000Y-96520000D03*
X100330000Y-95250000D03*
X100330000Y-93980000D03*
X100330000Y-92710000D03*
X100330000Y-91440000D03*
X100330000Y-90170000D03*
X100330000Y-88900000D03*
%TD*%
D11*
%TO.C,C70*%
X183002000Y-142240000D03*
X181102000Y-142240000D03*
%TD*%
%TO.C,C62*%
X167762000Y-142240000D03*
X165862000Y-142240000D03*
%TD*%
D12*
%TO.C,R172*%
X217217000Y-139446000D03*
X215392000Y-139446000D03*
%TD*%
%TO.C,R20*%
X62277000Y-139446000D03*
X60452000Y-139446000D03*
%TD*%
D11*
%TO.C,C64*%
X171572000Y-142240000D03*
X169672000Y-142240000D03*
%TD*%
D12*
%TO.C,R202*%
X228647000Y-152146000D03*
X226822000Y-152146000D03*
%TD*%
%TO.C,R170*%
X213407000Y-152146000D03*
X211582000Y-152146000D03*
%TD*%
D10*
%TO.C,R200*%
X101553000Y-107188000D03*
X103378000Y-107188000D03*
%TD*%
D11*
%TO.C,C89*%
X221102000Y-154940000D03*
X219202000Y-154940000D03*
%TD*%
%TO.C,C90*%
X224912000Y-142240000D03*
X223012000Y-142240000D03*
%TD*%
D10*
%TO.C,R59*%
X98552000Y-145034000D03*
X100377000Y-145034000D03*
%TD*%
D13*
%TO.C,C97*%
X30358000Y-88138000D03*
X32258000Y-88138000D03*
%TD*%
D11*
%TO.C,C76*%
X194432000Y-142240000D03*
X192532000Y-142240000D03*
%TD*%
D10*
%TO.C,R55*%
X94742000Y-145034000D03*
X96567000Y-145034000D03*
%TD*%
D12*
%TO.C,R124*%
X167687000Y-139446000D03*
X165862000Y-139446000D03*
%TD*%
%TO.C,R176*%
X221027000Y-139446000D03*
X219202000Y-139446000D03*
%TD*%
D11*
%TO.C,C81*%
X202052000Y-154940000D03*
X200152000Y-154940000D03*
%TD*%
%TO.C,C68*%
X179192000Y-142240000D03*
X177292000Y-142240000D03*
%TD*%
%TO.C,C6*%
X54732000Y-142240000D03*
X52832000Y-142240000D03*
%TD*%
M02*
