M48
;DRILL file {Pcbnew (2013-07-07 BZR 4022)-stable} date 13/10/2017 14:23:48
;FORMAT={-:-/ absolute / inch / decimal}
FMAT,2
INCH,TZ
T1C0.032
T2C0.040
T3C0.045
T4C0.120
%
G90
G05
M72
T1
X0.65Y-3.375
X0.7Y-3.6
X0.7Y-3.8
X0.7Y-4.1
X0.7Y-4.3
X0.7Y-4.6
X0.7Y-4.8
X0.725Y-1.575
X0.8Y-2.55
X0.825Y-1.575
X0.9Y-3.55
X0.9Y-3.85
X0.9Y-4.05
X0.9Y-4.35
X0.9Y-4.55
X0.9Y-4.85
X0.95Y-3.375
X0.975Y-1.575
X1.Y-2.3
X1.Y-3.55
X1.Y-3.85
X1.Y-4.05
X1.Y-4.35
X1.Y-4.55
X1.Y-4.85
X1.075Y-1.575
X1.1Y-2.3
X1.1Y-2.55
X1.1Y-3.55
X1.1Y-3.85
X1.1Y-4.05
X1.1Y-4.35
X1.1Y-4.55
X1.1Y-4.85
X1.15Y-6.45
X1.2Y-3.55
X1.2Y-3.85
X1.2Y-4.05
X1.2Y-4.35
X1.2Y-4.55
X1.2Y-4.85
X1.225Y-1.575
X1.25Y-2.3
X1.25Y-3.25
X1.25Y-3.35
X1.25Y-6.45
X1.3Y-2.65
X1.3Y-2.75
X1.3Y-3.55
X1.3Y-3.85
X1.3Y-4.05
X1.3Y-4.35
X1.3Y-4.55
X1.3Y-4.85
X1.325Y-1.575
X1.35Y-2.3
X1.35Y-3.25
X1.35Y-6.45
X1.4Y-2.65
X1.4Y-3.55
X1.4Y-3.85
X1.4Y-4.05
X1.4Y-4.35
X1.4Y-4.55
X1.4Y-4.85
X1.45Y-6.45
X1.475Y-1.575
X1.5Y-2.3
X1.5Y-3.55
X1.5Y-3.85
X1.5Y-4.05
X1.5Y-4.35
X1.5Y-4.55
X1.5Y-4.85
X1.575Y-1.575
X1.6Y-2.3
X1.6Y-4.05
X1.6Y-4.35
X1.6Y-4.55
X1.6Y-4.85
X1.65Y-3.375
X1.7Y-3.5
X1.7Y-3.875
X1.7Y-4.55
X1.7Y-4.85
X1.8Y-3.5
X1.8Y-3.875
X1.8Y-4.05
X1.8Y-4.35
X1.9Y-3.5
X1.9Y-3.875
X1.9Y-4.05
X1.9Y-4.35
X1.95Y-3.375
X1.95Y-4.55
X1.95Y-5.05
X2.1Y-4.55
X2.1Y-5.05
X2.25Y-4.55
X2.25Y-5.05
X8.6Y-1.9
X8.6Y-2.2
X8.85Y-1.5
X8.85Y-1.9
X8.85Y-2.2
X9.15Y-1.5
X9.5Y-1.5
X9.8Y-1.5
T2
X0.8Y-2.95
X1.1Y-2.95
X1.5Y-2.95
X1.7Y-3.65
X1.7Y-3.75
X1.8Y-2.95
X1.8Y-3.65
X1.8Y-3.75
X9.Y-1.9
X9.Y-2.1
X9.3Y-1.9
X9.3Y-2.1
T3
X1.2Y-6.25
X1.3Y-6.25
X1.4Y-6.25
T4
X0.75Y-2.05
X1.3Y-5.6
X1.8Y-2.
X10.25Y-2.05
T0
M30
