%TF.GenerationSoftware,KiCad,Pcbnew,7.0.9-1.fc38*%
%TF.CreationDate,2023-12-12T04:45:21+10:00*%
%TF.ProjectId,LogicAnalyserSMD,4c6f6769-6341-46e6-916c-79736572534d,0.1*%
%TF.SameCoordinates,Original*%
%TF.FileFunction,Soldermask,Top*%
%TF.FilePolarity,Negative*%
%FSLAX46Y46*%
G04 Gerber Fmt 4.6, Leading zero omitted, Abs format (unit mm)*
G04 Created by KiCad (PCBNEW 7.0.9-1.fc38) date 2023-12-12 04:45:21*
%MOMM*%
%LPD*%
G01*
G04 APERTURE LIST*
G04 Aperture macros list*
%AMRoundRect*
0 Rectangle with rounded corners*
0 $1 Rounding radius*
0 $2 $3 $4 $5 $6 $7 $8 $9 X,Y pos of 4 corners*
0 Add a 4 corners polygon primitive as box body*
4,1,4,$2,$3,$4,$5,$6,$7,$8,$9,$2,$3,0*
0 Add four circle primitives for the rounded corners*
1,1,$1+$1,$2,$3*
1,1,$1+$1,$4,$5*
1,1,$1+$1,$6,$7*
1,1,$1+$1,$8,$9*
0 Add four rect primitives between the rounded corners*
20,1,$1+$1,$2,$3,$4,$5,0*
20,1,$1+$1,$4,$5,$6,$7,0*
20,1,$1+$1,$6,$7,$8,$9,0*
20,1,$1+$1,$8,$9,$2,$3,0*%
G04 Aperture macros list end*
%ADD10RoundRect,0.254000X-1.397000X-3.810000X1.397000X-3.810000X1.397000X3.810000X-1.397000X3.810000X0*%
%ADD11RoundRect,0.254000X-0.889000X-3.810000X0.889000X-3.810000X0.889000X3.810000X-0.889000X3.810000X0*%
%ADD12C,4.572000*%
%ADD13RoundRect,0.504000X0.262500X0.450000X-0.262500X0.450000X-0.262500X-0.450000X0.262500X-0.450000X0*%
%ADD14RoundRect,0.504000X0.475000X-0.250000X0.475000X0.250000X-0.475000X0.250000X-0.475000X-0.250000X0*%
%ADD15RoundRect,0.504000X0.450000X-0.262500X0.450000X0.262500X-0.450000X0.262500X-0.450000X-0.262500X0*%
%ADD16RoundRect,0.504000X-0.262500X-0.450000X0.262500X-0.450000X0.262500X0.450000X-0.262500X0.450000X0*%
%ADD17RoundRect,0.504000X-0.475000X0.250000X-0.475000X-0.250000X0.475000X-0.250000X0.475000X0.250000X0*%
%ADD18RoundRect,0.504000X-0.450000X0.262500X-0.450000X-0.262500X0.450000X-0.262500X0.450000X0.262500X0*%
%ADD19RoundRect,0.504000X0.250000X0.475000X-0.250000X0.475000X-0.250000X-0.475000X0.250000X-0.475000X0*%
%ADD20RoundRect,0.504000X-0.250000X-0.475000X0.250000X-0.475000X0.250000X0.475000X-0.250000X0.475000X0*%
%ADD21RoundRect,0.478118X0.537882X-0.537882X0.537882X0.537882X-0.537882X0.537882X-0.537882X-0.537882X0*%
%ADD22C,2.032000*%
%ADD23RoundRect,0.254000X0.850000X-0.850000X0.850000X0.850000X-0.850000X0.850000X-0.850000X-0.850000X0*%
%ADD24O,2.208000X2.208000*%
%ADD25RoundRect,0.404000X-0.825000X-0.150000X0.825000X-0.150000X0.825000X0.150000X-0.825000X0.150000X0*%
G04 APERTURE END LIST*
D10*
%TO.C,P1*%
X53467000Y-175641000D03*
D11*
X57150000Y-175641000D03*
X60325000Y-175641000D03*
X63500000Y-175641000D03*
X66675000Y-175641000D03*
X69850000Y-175641000D03*
X73025000Y-175641000D03*
X76200000Y-175641000D03*
X79375000Y-175641000D03*
X82550000Y-175641000D03*
X85725000Y-175641000D03*
X88900000Y-175641000D03*
X92075000Y-175641000D03*
X95250000Y-175641000D03*
X98425000Y-175641000D03*
X101600000Y-175641000D03*
X104775000Y-175641000D03*
X107950000Y-175641000D03*
X111125000Y-175641000D03*
X114300000Y-175641000D03*
X117475000Y-175641000D03*
X120650000Y-175641000D03*
X123825000Y-175641000D03*
X127000000Y-175641000D03*
X130175000Y-175641000D03*
X133350000Y-175641000D03*
X136525000Y-175641000D03*
X139700000Y-175641000D03*
X142875000Y-175641000D03*
X146050000Y-175641000D03*
X149225000Y-175641000D03*
X152400000Y-175641000D03*
X155575000Y-175641000D03*
X158750000Y-175641000D03*
X161925000Y-175641000D03*
X165100000Y-175641000D03*
X168275000Y-175641000D03*
X171450000Y-175641000D03*
X174625000Y-175641000D03*
X177800000Y-175641000D03*
X180975000Y-175641000D03*
X184150000Y-175641000D03*
X187325000Y-175641000D03*
X190500000Y-175641000D03*
X193675000Y-175641000D03*
X196850000Y-175641000D03*
X200025000Y-175641000D03*
X203200000Y-175641000D03*
X206375000Y-175641000D03*
D10*
X210058000Y-175641000D03*
%TD*%
D12*
%TO.C,P35*%
X260350000Y-52070000D03*
%TD*%
%TO.C,P34*%
X19050000Y-52070000D03*
%TD*%
D13*
%TO.C,R1*%
X43180000Y-157734000D03*
X41355000Y-157734000D03*
%TD*%
D14*
%TO.C,C41*%
X119380000Y-152654000D03*
X119380000Y-150754000D03*
%TD*%
D15*
%TO.C,R146*%
X186690000Y-147574000D03*
X186690000Y-145749000D03*
%TD*%
%TO.C,R173*%
X217170000Y-157734000D03*
X217170000Y-155909000D03*
%TD*%
D16*
%TO.C,R8*%
X49022000Y-139446000D03*
X50847000Y-139446000D03*
%TD*%
D17*
%TO.C,C100*%
X104140000Y-110490000D03*
X104140000Y-112390000D03*
%TD*%
D15*
%TO.C,R24*%
X66040000Y-127254000D03*
X66040000Y-125429000D03*
%TD*%
%TO.C,R93*%
X137160000Y-157734000D03*
X137160000Y-155909000D03*
%TD*%
D16*
%TO.C,R14*%
X52832000Y-152146000D03*
X54657000Y-152146000D03*
%TD*%
D15*
%TO.C,R142*%
X182880000Y-147574000D03*
X182880000Y-145749000D03*
%TD*%
%TO.C,R103*%
X148590000Y-137414000D03*
X148590000Y-135589000D03*
%TD*%
D14*
%TO.C,C35*%
X107950000Y-152654000D03*
X107950000Y-150754000D03*
%TD*%
%TO.C,C43*%
X127000000Y-152654000D03*
X127000000Y-150754000D03*
%TD*%
D15*
%TO.C,R116*%
X160020000Y-127238000D03*
X160020000Y-125413000D03*
%TD*%
%TO.C,R85*%
X127000000Y-157734000D03*
X127000000Y-155909000D03*
%TD*%
%TO.C,R137*%
X179070000Y-157734000D03*
X179070000Y-155909000D03*
%TD*%
%TO.C,R179*%
X224790000Y-137414000D03*
X224790000Y-135589000D03*
%TD*%
D14*
%TO.C,C29*%
X96520000Y-152654000D03*
X96520000Y-150754000D03*
%TD*%
D15*
%TO.C,R153*%
X194310000Y-157734000D03*
X194310000Y-155909000D03*
%TD*%
%TO.C,R49*%
X88900000Y-157734000D03*
X88900000Y-155909000D03*
%TD*%
%TO.C,R38*%
X77470000Y-147621000D03*
X77470000Y-145796000D03*
%TD*%
D14*
%TO.C,C48*%
X140970000Y-132334000D03*
X140970000Y-130434000D03*
%TD*%
%TO.C,C91*%
X224790000Y-152654000D03*
X224790000Y-150754000D03*
%TD*%
D15*
%TO.C,R51*%
X92710000Y-137414000D03*
X92710000Y-135589000D03*
%TD*%
D14*
%TO.C,C16*%
X73660000Y-132334000D03*
X73660000Y-130434000D03*
%TD*%
%TO.C,C79*%
X198120000Y-152654000D03*
X198120000Y-150754000D03*
%TD*%
D15*
%TO.C,R46*%
X85090000Y-147621000D03*
X85090000Y-145796000D03*
%TD*%
D18*
%TO.C,R199*%
X104140000Y-106172000D03*
X104140000Y-107997000D03*
%TD*%
D16*
%TO.C,R18*%
X56642000Y-152146000D03*
X58467000Y-152146000D03*
%TD*%
D14*
%TO.C,C74*%
X190500000Y-132312500D03*
X190500000Y-130412500D03*
%TD*%
%TO.C,C73*%
X186690000Y-152654000D03*
X186690000Y-150754000D03*
%TD*%
D15*
%TO.C,R135*%
X179070000Y-137414000D03*
X179070000Y-135589000D03*
%TD*%
D14*
%TO.C,C39*%
X115570000Y-152654000D03*
X115570000Y-150754000D03*
%TD*%
D19*
%TO.C,C103*%
X103754000Y-86106000D03*
X101854000Y-86106000D03*
%TD*%
D15*
%TO.C,R201*%
X228600000Y-157734000D03*
X228600000Y-155909000D03*
%TD*%
%TO.C,R26*%
X66040000Y-147621000D03*
X66040000Y-145796000D03*
%TD*%
D13*
%TO.C,R17*%
X58467000Y-157734000D03*
X56642000Y-157734000D03*
%TD*%
D15*
%TO.C,R114*%
X156210000Y-147621000D03*
X156210000Y-145796000D03*
%TD*%
%TO.C,R99*%
X144780000Y-137414000D03*
X144780000Y-135589000D03*
%TD*%
%TO.C,R84*%
X124460000Y-127254000D03*
X124460000Y-125429000D03*
%TD*%
D18*
%TO.C,R194*%
X31750000Y-94187000D03*
X31750000Y-96012000D03*
%TD*%
D14*
%TO.C,C15*%
X69850000Y-152654000D03*
X69850000Y-150754000D03*
%TD*%
%TO.C,C21*%
X81280000Y-152654000D03*
X81280000Y-150754000D03*
%TD*%
%TO.C,C17*%
X73660000Y-152654000D03*
X73660000Y-150754000D03*
%TD*%
D20*
%TO.C,C2*%
X45212000Y-142240000D03*
X47112000Y-142240000D03*
%TD*%
D21*
%TO.C,J3*%
X114300000Y-58420000D03*
D22*
X114300000Y-55880000D03*
X116840000Y-58420000D03*
X116840000Y-55880000D03*
X119380000Y-58420000D03*
X119380000Y-55880000D03*
X121920000Y-58420000D03*
X121920000Y-55880000D03*
X124460000Y-58420000D03*
X124460000Y-55880000D03*
X127000000Y-58420000D03*
X127000000Y-55880000D03*
X129540000Y-58420000D03*
X129540000Y-55880000D03*
X132080000Y-58420000D03*
X132080000Y-55880000D03*
X134620000Y-58420000D03*
X134620000Y-55880000D03*
X137160000Y-58420000D03*
X137160000Y-55880000D03*
X139700000Y-58420000D03*
X139700000Y-55880000D03*
X142240000Y-58420000D03*
X142240000Y-55880000D03*
X144780000Y-58420000D03*
X144780000Y-55880000D03*
X147320000Y-58420000D03*
X147320000Y-55880000D03*
X149860000Y-58420000D03*
X149860000Y-55880000D03*
X152400000Y-58420000D03*
X152400000Y-55880000D03*
X154940000Y-58420000D03*
X154940000Y-55880000D03*
X157480000Y-58420000D03*
X157480000Y-55880000D03*
X160020000Y-58420000D03*
X160020000Y-55880000D03*
X162560000Y-58420000D03*
X162560000Y-55880000D03*
%TD*%
D15*
%TO.C,R67*%
X107950000Y-137414000D03*
X107950000Y-135589000D03*
%TD*%
D18*
%TO.C,R189*%
X254762000Y-95965000D03*
X254762000Y-97790000D03*
%TD*%
D14*
%TO.C,C54*%
X152400000Y-132334000D03*
X152400000Y-130434000D03*
%TD*%
D17*
%TO.C,C96*%
X257810000Y-87075000D03*
X257810000Y-88975000D03*
%TD*%
D14*
%TO.C,C49*%
X140970000Y-152654000D03*
X140970000Y-150754000D03*
%TD*%
D15*
%TO.C,R35*%
X77470000Y-137414000D03*
X77470000Y-135589000D03*
%TD*%
%TO.C,R128*%
X171450000Y-127254000D03*
X171450000Y-125429000D03*
%TD*%
%TO.C,R132*%
X175260000Y-127254000D03*
X175260000Y-125429000D03*
%TD*%
%TO.C,R197*%
X123190000Y-157734000D03*
X123190000Y-155909000D03*
%TD*%
%TO.C,R61*%
X100330000Y-157734000D03*
X100330000Y-155909000D03*
%TD*%
%TO.C,R74*%
X111760000Y-147574000D03*
X111760000Y-145749000D03*
%TD*%
%TO.C,R32*%
X73660000Y-127254000D03*
X73660000Y-125429000D03*
%TD*%
D14*
%TO.C,C18*%
X77470000Y-132334000D03*
X77470000Y-130434000D03*
%TD*%
D15*
%TO.C,R121*%
X163830000Y-157734000D03*
X163830000Y-155909000D03*
%TD*%
D14*
%TO.C,C56*%
X156210000Y-132334000D03*
X156210000Y-130434000D03*
%TD*%
D15*
%TO.C,R25*%
X66040000Y-157734000D03*
X66040000Y-155909000D03*
%TD*%
D14*
%TO.C,C31*%
X100330000Y-152654000D03*
X100330000Y-150754000D03*
%TD*%
D15*
%TO.C,R134*%
X175260000Y-147574000D03*
X175260000Y-145749000D03*
%TD*%
%TO.C,R39*%
X81280000Y-137414000D03*
X81280000Y-135589000D03*
%TD*%
%TO.C,R22*%
X62230000Y-147621000D03*
X62230000Y-145796000D03*
%TD*%
%TO.C,R44*%
X85090000Y-127254000D03*
X85090000Y-125429000D03*
%TD*%
D21*
%TO.C,J6*%
X187960000Y-114300000D03*
D22*
X187960000Y-111760000D03*
X190500000Y-114300000D03*
X190500000Y-111760000D03*
X193040000Y-114300000D03*
X193040000Y-111760000D03*
X195580000Y-114300000D03*
X195580000Y-111760000D03*
X198120000Y-114300000D03*
X198120000Y-111760000D03*
X200660000Y-114300000D03*
X200660000Y-111760000D03*
X203200000Y-114300000D03*
X203200000Y-111760000D03*
X205740000Y-114300000D03*
X205740000Y-111760000D03*
X208280000Y-114300000D03*
X208280000Y-111760000D03*
X210820000Y-114300000D03*
X210820000Y-111760000D03*
X213360000Y-114300000D03*
X213360000Y-111760000D03*
X215900000Y-114300000D03*
X215900000Y-111760000D03*
X218440000Y-114300000D03*
X218440000Y-111760000D03*
X220980000Y-114300000D03*
X220980000Y-111760000D03*
X223520000Y-114300000D03*
X223520000Y-111760000D03*
X226060000Y-114300000D03*
X226060000Y-111760000D03*
X228600000Y-114300000D03*
X228600000Y-111760000D03*
X231140000Y-114300000D03*
X231140000Y-111760000D03*
X233680000Y-114300000D03*
X233680000Y-111760000D03*
X236220000Y-114300000D03*
X236220000Y-111760000D03*
%TD*%
D18*
%TO.C,R184*%
X245110000Y-91393000D03*
X245110000Y-93218000D03*
%TD*%
D14*
%TO.C,C44*%
X133350000Y-132334000D03*
X133350000Y-130434000D03*
%TD*%
D15*
%TO.C,R66*%
X104140000Y-147621000D03*
X104140000Y-145796000D03*
%TD*%
%TO.C,R204*%
X205740000Y-147621000D03*
X205740000Y-145796000D03*
%TD*%
D14*
%TO.C,C101*%
X228600000Y-152654000D03*
X228600000Y-150754000D03*
%TD*%
%TO.C,C83*%
X209550000Y-152654000D03*
X209550000Y-150754000D03*
%TD*%
%TO.C,C13*%
X66040000Y-152654000D03*
X66040000Y-150754000D03*
%TD*%
%TO.C,C34*%
X107950000Y-132334000D03*
X107950000Y-130434000D03*
%TD*%
D15*
%TO.C,R98*%
X140970000Y-147621000D03*
X140970000Y-145796000D03*
%TD*%
%TO.C,R79*%
X119380000Y-137414000D03*
X119380000Y-135589000D03*
%TD*%
D16*
%TO.C,R2*%
X41402000Y-152146000D03*
X43227000Y-152146000D03*
%TD*%
D15*
%TO.C,R144*%
X186690000Y-127254000D03*
X186690000Y-125429000D03*
%TD*%
%TO.C,R95*%
X140970000Y-137414000D03*
X140970000Y-135589000D03*
%TD*%
%TO.C,R83*%
X124460000Y-137414000D03*
X124460000Y-135589000D03*
%TD*%
D17*
%TO.C,C95*%
X254762000Y-100283000D03*
X254762000Y-102183000D03*
%TD*%
D15*
%TO.C,R155*%
X198120000Y-137414000D03*
X198120000Y-135589000D03*
%TD*%
%TO.C,R102*%
X144780000Y-147621000D03*
X144780000Y-145796000D03*
%TD*%
%TO.C,R80*%
X119380000Y-127254000D03*
X119380000Y-125429000D03*
%TD*%
D14*
%TO.C,C58*%
X160020000Y-132334000D03*
X160020000Y-130434000D03*
%TD*%
%TO.C,C36*%
X111760000Y-132334000D03*
X111760000Y-130434000D03*
%TD*%
D15*
%TO.C,R23*%
X66040000Y-137414000D03*
X66040000Y-135589000D03*
%TD*%
%TO.C,R111*%
X156210000Y-137414000D03*
X156210000Y-135589000D03*
%TD*%
%TO.C,R60*%
X100330000Y-127254000D03*
X100330000Y-125429000D03*
%TD*%
D14*
%TO.C,C24*%
X88900000Y-132334000D03*
X88900000Y-130434000D03*
%TD*%
D15*
%TO.C,R30*%
X69850000Y-147621000D03*
X69850000Y-145796000D03*
%TD*%
D14*
%TO.C,C32*%
X104140000Y-132334000D03*
X104140000Y-130434000D03*
%TD*%
D16*
%TO.C,R12*%
X52832000Y-139446000D03*
X54657000Y-139446000D03*
%TD*%
D15*
%TO.C,R122*%
X163830000Y-147621000D03*
X163830000Y-145796000D03*
%TD*%
D20*
%TO.C,C7*%
X52832000Y-154940000D03*
X54732000Y-154940000D03*
%TD*%
D14*
%TO.C,C30*%
X100330000Y-132334000D03*
X100330000Y-130434000D03*
%TD*%
%TO.C,C61*%
X163830000Y-152654000D03*
X163830000Y-150754000D03*
%TD*%
D15*
%TO.C,R81*%
X119380000Y-157734000D03*
X119380000Y-155909000D03*
%TD*%
D21*
%TO.C,J5*%
X180340000Y-58420000D03*
D22*
X180340000Y-55880000D03*
X182880000Y-58420000D03*
X182880000Y-55880000D03*
X185420000Y-58420000D03*
X185420000Y-55880000D03*
X187960000Y-58420000D03*
X187960000Y-55880000D03*
X190500000Y-58420000D03*
X190500000Y-55880000D03*
X193040000Y-58420000D03*
X193040000Y-55880000D03*
X195580000Y-58420000D03*
X195580000Y-55880000D03*
X198120000Y-58420000D03*
X198120000Y-55880000D03*
X200660000Y-58420000D03*
X200660000Y-55880000D03*
X203200000Y-58420000D03*
X203200000Y-55880000D03*
X205740000Y-58420000D03*
X205740000Y-55880000D03*
X208280000Y-58420000D03*
X208280000Y-55880000D03*
X210820000Y-58420000D03*
X210820000Y-55880000D03*
X213360000Y-58420000D03*
X213360000Y-55880000D03*
X215900000Y-58420000D03*
X215900000Y-55880000D03*
X218440000Y-58420000D03*
X218440000Y-55880000D03*
X220980000Y-58420000D03*
X220980000Y-55880000D03*
X223520000Y-58420000D03*
X223520000Y-55880000D03*
X226060000Y-58420000D03*
X226060000Y-55880000D03*
X228600000Y-58420000D03*
X228600000Y-55880000D03*
%TD*%
D15*
%TO.C,R77*%
X115570000Y-157734000D03*
X115570000Y-155909000D03*
%TD*%
D18*
%TO.C,R186*%
X248412000Y-104855000D03*
X248412000Y-106680000D03*
%TD*%
D14*
%TO.C,C99*%
X123190000Y-152654000D03*
X123190000Y-150754000D03*
%TD*%
D13*
%TO.C,R9*%
X50800000Y-157734000D03*
X48975000Y-157734000D03*
%TD*%
D14*
%TO.C,C26*%
X92710000Y-132334000D03*
X92710000Y-130434000D03*
%TD*%
%TO.C,C75*%
X190500000Y-152654000D03*
X190500000Y-150754000D03*
%TD*%
%TO.C,C86*%
X217170000Y-132334000D03*
X217170000Y-130434000D03*
%TD*%
%TO.C,C38*%
X115570000Y-132334000D03*
X115570000Y-130434000D03*
%TD*%
D15*
%TO.C,R110*%
X152400000Y-147621000D03*
X152400000Y-145796000D03*
%TD*%
D14*
%TO.C,C84*%
X213360000Y-132312500D03*
X213360000Y-130412500D03*
%TD*%
%TO.C,C11*%
X62230000Y-152654000D03*
X62230000Y-150754000D03*
%TD*%
D15*
%TO.C,R138*%
X179070000Y-147574000D03*
X179070000Y-145749000D03*
%TD*%
D14*
%TO.C,C66*%
X175260000Y-132312500D03*
X175260000Y-130412500D03*
%TD*%
D18*
%TO.C,R183*%
X245110000Y-82503000D03*
X245110000Y-84328000D03*
%TD*%
D15*
%TO.C,R56*%
X96520000Y-127254000D03*
X96520000Y-125429000D03*
%TD*%
%TO.C,R97*%
X140970000Y-157734000D03*
X140970000Y-155909000D03*
%TD*%
D16*
%TO.C,R6*%
X45212000Y-152146000D03*
X47037000Y-152146000D03*
%TD*%
D18*
%TO.C,R188*%
X251460000Y-91647000D03*
X251460000Y-93472000D03*
%TD*%
D15*
%TO.C,R27*%
X69850000Y-137414000D03*
X69850000Y-135589000D03*
%TD*%
D13*
%TO.C,R7*%
X50847000Y-145034000D03*
X49022000Y-145034000D03*
%TD*%
D14*
%TO.C,C59*%
X160020000Y-152654000D03*
X160020000Y-150754000D03*
%TD*%
D15*
%TO.C,R50*%
X88900000Y-147621000D03*
X88900000Y-145796000D03*
%TD*%
%TO.C,R198*%
X123190000Y-147574000D03*
X123190000Y-145749000D03*
%TD*%
D16*
%TO.C,R16*%
X56642000Y-139446000D03*
X58467000Y-139446000D03*
%TD*%
D15*
%TO.C,R156*%
X198120000Y-127254000D03*
X198120000Y-125429000D03*
%TD*%
%TO.C,R129*%
X171450000Y-157734000D03*
X171450000Y-155909000D03*
%TD*%
%TO.C,R86*%
X127000000Y-147574000D03*
X127000000Y-145749000D03*
%TD*%
%TO.C,R33*%
X73660000Y-157734000D03*
X73660000Y-155909000D03*
%TD*%
%TO.C,R57*%
X96520000Y-157734000D03*
X96520000Y-155909000D03*
%TD*%
D21*
%TO.C,J1*%
X48276803Y-58436803D03*
D22*
X48276803Y-55896803D03*
X50816803Y-58436803D03*
X50816803Y-55896803D03*
X53356803Y-58436803D03*
X53356803Y-55896803D03*
X55896803Y-58436803D03*
X55896803Y-55896803D03*
X58436803Y-58436803D03*
X58436803Y-55896803D03*
X60976803Y-58436803D03*
X60976803Y-55896803D03*
X63516803Y-58436803D03*
X63516803Y-55896803D03*
X66056803Y-58436803D03*
X66056803Y-55896803D03*
X68596803Y-58436803D03*
X68596803Y-55896803D03*
X71136803Y-58436803D03*
X71136803Y-55896803D03*
X73676803Y-58436803D03*
X73676803Y-55896803D03*
X76216803Y-58436803D03*
X76216803Y-55896803D03*
X78756803Y-58436803D03*
X78756803Y-55896803D03*
X81296803Y-58436803D03*
X81296803Y-55896803D03*
X83836803Y-58436803D03*
X83836803Y-55896803D03*
X86376803Y-58436803D03*
X86376803Y-55896803D03*
X88916803Y-58436803D03*
X88916803Y-55896803D03*
X91456803Y-58436803D03*
X91456803Y-55896803D03*
X93996803Y-58436803D03*
X93996803Y-55896803D03*
X96536803Y-58436803D03*
X96536803Y-55896803D03*
%TD*%
D15*
%TO.C,R70*%
X107950000Y-147574000D03*
X107950000Y-145749000D03*
%TD*%
%TO.C,R112*%
X156210000Y-127254000D03*
X156210000Y-125429000D03*
%TD*%
D17*
%TO.C,C93*%
X248412000Y-100267000D03*
X248412000Y-102167000D03*
%TD*%
D15*
%TO.C,R72*%
X111760000Y-127254000D03*
X111760000Y-125429000D03*
%TD*%
%TO.C,R19*%
X62230000Y-137414000D03*
X62230000Y-135589000D03*
%TD*%
%TO.C,R109*%
X152400000Y-157734000D03*
X152400000Y-155909000D03*
%TD*%
D13*
%TO.C,R15*%
X58467000Y-145034000D03*
X56642000Y-145034000D03*
%TD*%
D15*
%TO.C,R96*%
X140970000Y-127254000D03*
X140970000Y-125429000D03*
%TD*%
%TO.C,R177*%
X220980000Y-157734000D03*
X220980000Y-155909000D03*
%TD*%
%TO.C,R65*%
X104140000Y-157734000D03*
X104140000Y-155909000D03*
%TD*%
%TO.C,R28*%
X69850000Y-127254000D03*
X69850000Y-125429000D03*
%TD*%
%TO.C,R43*%
X85090000Y-137414000D03*
X85090000Y-135589000D03*
%TD*%
D17*
%TO.C,C94*%
X251460000Y-87075000D03*
X251460000Y-88975000D03*
%TD*%
D15*
%TO.C,R154*%
X194310000Y-147574000D03*
X194310000Y-145749000D03*
%TD*%
D13*
%TO.C,R3*%
X47037000Y-145034000D03*
X45212000Y-145034000D03*
%TD*%
D15*
%TO.C,R48*%
X88900000Y-127254000D03*
X88900000Y-125429000D03*
%TD*%
%TO.C,R53*%
X92710000Y-157734000D03*
X92710000Y-155909000D03*
%TD*%
D18*
%TO.C,R187*%
X251460000Y-82757000D03*
X251460000Y-84582000D03*
%TD*%
D15*
%TO.C,R73*%
X111760000Y-157734000D03*
X111760000Y-155909000D03*
%TD*%
D14*
%TO.C,C10*%
X62230000Y-132334000D03*
X62230000Y-130434000D03*
%TD*%
D23*
%TO.C,J8*%
X27178000Y-76153000D03*
D24*
X29718000Y-76153000D03*
%TD*%
D16*
%TO.C,R4*%
X45212000Y-139446000D03*
X47037000Y-139446000D03*
%TD*%
D14*
%TO.C,C65*%
X171450000Y-152654000D03*
X171450000Y-150754000D03*
%TD*%
%TO.C,C50*%
X144780000Y-132334000D03*
X144780000Y-130434000D03*
%TD*%
%TO.C,C67*%
X175260000Y-152654000D03*
X175260000Y-150754000D03*
%TD*%
D15*
%TO.C,R29*%
X69850000Y-157734000D03*
X69850000Y-155909000D03*
%TD*%
%TO.C,R45*%
X85090000Y-157734000D03*
X85090000Y-155909000D03*
%TD*%
%TO.C,R136*%
X179070000Y-127254000D03*
X179070000Y-125429000D03*
%TD*%
%TO.C,R113*%
X156210000Y-157734000D03*
X156210000Y-155909000D03*
%TD*%
D23*
%TO.C,J7*%
X245110000Y-74422000D03*
D24*
X247650000Y-74422000D03*
X250190000Y-74422000D03*
X252730000Y-74422000D03*
X255270000Y-74422000D03*
%TD*%
D14*
%TO.C,C102*%
X205740000Y-152654000D03*
X205740000Y-150754000D03*
%TD*%
D15*
%TO.C,R126*%
X167640000Y-147621000D03*
X167640000Y-145796000D03*
%TD*%
D21*
%TO.C,J2*%
X40640000Y-114300000D03*
D22*
X40640000Y-111760000D03*
X43180000Y-114300000D03*
X43180000Y-111760000D03*
X45720000Y-114300000D03*
X45720000Y-111760000D03*
X48260000Y-114300000D03*
X48260000Y-111760000D03*
X50800000Y-114300000D03*
X50800000Y-111760000D03*
X53340000Y-114300000D03*
X53340000Y-111760000D03*
X55880000Y-114300000D03*
X55880000Y-111760000D03*
X58420000Y-114300000D03*
X58420000Y-111760000D03*
X60960000Y-114300000D03*
X60960000Y-111760000D03*
X63500000Y-114300000D03*
X63500000Y-111760000D03*
X66040000Y-114300000D03*
X66040000Y-111760000D03*
X68580000Y-114300000D03*
X68580000Y-111760000D03*
X71120000Y-114300000D03*
X71120000Y-111760000D03*
X73660000Y-114300000D03*
X73660000Y-111760000D03*
X76200000Y-114300000D03*
X76200000Y-111760000D03*
X78740000Y-114300000D03*
X78740000Y-111760000D03*
X81280000Y-114300000D03*
X81280000Y-111760000D03*
X83820000Y-114300000D03*
X83820000Y-111760000D03*
X86360000Y-114300000D03*
X86360000Y-111760000D03*
X88900000Y-114300000D03*
X88900000Y-111760000D03*
%TD*%
D15*
%TO.C,R181*%
X224790000Y-157734000D03*
X224790000Y-155909000D03*
%TD*%
%TO.C,R161*%
X201930000Y-157734000D03*
X201930000Y-155909000D03*
%TD*%
D20*
%TO.C,C1*%
X41402000Y-154940000D03*
X43302000Y-154940000D03*
%TD*%
D15*
%TO.C,R171*%
X217170000Y-137414000D03*
X217170000Y-135589000D03*
%TD*%
%TO.C,R91*%
X137160000Y-137414000D03*
X137160000Y-135589000D03*
%TD*%
D14*
%TO.C,C37*%
X111760000Y-152654000D03*
X111760000Y-150754000D03*
%TD*%
%TO.C,C71*%
X182880000Y-152654000D03*
X182880000Y-150754000D03*
%TD*%
D15*
%TO.C,R168*%
X213360000Y-127254000D03*
X213360000Y-125429000D03*
%TD*%
D14*
%TO.C,C51*%
X144780000Y-152654000D03*
X144780000Y-150754000D03*
%TD*%
D16*
%TO.C,R10*%
X49022000Y-152146000D03*
X50847000Y-152146000D03*
%TD*%
D15*
%TO.C,R130*%
X171450000Y-147574000D03*
X171450000Y-145749000D03*
%TD*%
%TO.C,R141*%
X182880000Y-157734000D03*
X182880000Y-155909000D03*
%TD*%
D14*
%TO.C,C12*%
X66040000Y-132334000D03*
X66040000Y-130434000D03*
%TD*%
D15*
%TO.C,R180*%
X224790000Y-127254000D03*
X224790000Y-125429000D03*
%TD*%
%TO.C,R117*%
X160020000Y-157734000D03*
X160020000Y-155909000D03*
%TD*%
%TO.C,R34*%
X73660000Y-147621000D03*
X73660000Y-145796000D03*
%TD*%
%TO.C,R178*%
X220980000Y-147574000D03*
X220980000Y-145749000D03*
%TD*%
%TO.C,R160*%
X201930000Y-127254000D03*
X201930000Y-125429000D03*
%TD*%
%TO.C,R107*%
X152400000Y-137414000D03*
X152400000Y-135589000D03*
%TD*%
D20*
%TO.C,C9*%
X56642000Y-154940000D03*
X58542000Y-154940000D03*
%TD*%
D15*
%TO.C,R159*%
X201930000Y-137414000D03*
X201930000Y-135589000D03*
%TD*%
%TO.C,R64*%
X104140000Y-127254000D03*
X104140000Y-125429000D03*
%TD*%
D14*
%TO.C,C25*%
X88900000Y-152654000D03*
X88900000Y-150754000D03*
%TD*%
%TO.C,C55*%
X152400000Y-152654000D03*
X152400000Y-150754000D03*
%TD*%
D15*
%TO.C,R37*%
X77470000Y-157734000D03*
X77470000Y-155909000D03*
%TD*%
%TO.C,R68*%
X107950000Y-127254000D03*
X107950000Y-125429000D03*
%TD*%
%TO.C,R167*%
X213360000Y-137414000D03*
X213360000Y-135589000D03*
%TD*%
%TO.C,R145*%
X186690000Y-157734000D03*
X186690000Y-155909000D03*
%TD*%
D13*
%TO.C,R11*%
X54657000Y-145034000D03*
X52832000Y-145034000D03*
%TD*%
D15*
%TO.C,R164*%
X209550000Y-127254000D03*
X209550000Y-125429000D03*
%TD*%
D13*
%TO.C,R5*%
X46990000Y-157734000D03*
X45165000Y-157734000D03*
%TD*%
D14*
%TO.C,C23*%
X85090000Y-152654000D03*
X85090000Y-150754000D03*
%TD*%
D15*
%TO.C,R147*%
X190500000Y-137414000D03*
X190500000Y-135589000D03*
%TD*%
D14*
%TO.C,C20*%
X81280000Y-132334000D03*
X81280000Y-130434000D03*
%TD*%
D15*
%TO.C,R165*%
X209550000Y-157734000D03*
X209550000Y-155909000D03*
%TD*%
%TO.C,R54*%
X92710000Y-147621000D03*
X92710000Y-145796000D03*
%TD*%
%TO.C,R71*%
X111760000Y-137414000D03*
X111760000Y-135589000D03*
%TD*%
%TO.C,R123*%
X167640000Y-137414000D03*
X167640000Y-135589000D03*
%TD*%
%TO.C,R169*%
X213360000Y-157734000D03*
X213360000Y-155909000D03*
%TD*%
%TO.C,R21*%
X62230000Y-157734000D03*
X62230000Y-155909000D03*
%TD*%
D14*
%TO.C,C57*%
X156210000Y-152654000D03*
X156210000Y-150754000D03*
%TD*%
D15*
%TO.C,R94*%
X137160000Y-147574000D03*
X137160000Y-145749000D03*
%TD*%
D18*
%TO.C,R185*%
X248412000Y-95949000D03*
X248412000Y-97774000D03*
%TD*%
D15*
%TO.C,R100*%
X144780000Y-127254000D03*
X144780000Y-125429000D03*
%TD*%
D14*
%TO.C,C63*%
X167640000Y-152654000D03*
X167640000Y-150754000D03*
%TD*%
D15*
%TO.C,R106*%
X148590000Y-147621000D03*
X148590000Y-145796000D03*
%TD*%
%TO.C,R158*%
X198120000Y-147574000D03*
X198120000Y-145749000D03*
%TD*%
%TO.C,R131*%
X175260000Y-137414000D03*
X175260000Y-135589000D03*
%TD*%
%TO.C,R88*%
X133350000Y-127254000D03*
X133350000Y-125429000D03*
%TD*%
D20*
%TO.C,C3*%
X45212000Y-154940000D03*
X47112000Y-154940000D03*
%TD*%
D15*
%TO.C,R75*%
X115570000Y-137414000D03*
X115570000Y-135589000D03*
%TD*%
%TO.C,R87*%
X133350000Y-137414000D03*
X133350000Y-135589000D03*
%TD*%
%TO.C,R101*%
X144780000Y-157734000D03*
X144780000Y-155909000D03*
%TD*%
D14*
%TO.C,C88*%
X220980000Y-132312500D03*
X220980000Y-130412500D03*
%TD*%
D15*
%TO.C,R120*%
X163830000Y-127254000D03*
X163830000Y-125429000D03*
%TD*%
%TO.C,R182*%
X224790000Y-147574000D03*
X224790000Y-145749000D03*
%TD*%
D18*
%TO.C,R191*%
X257810000Y-82757000D03*
X257810000Y-84582000D03*
%TD*%
%TO.C,R192*%
X257810000Y-91647000D03*
X257810000Y-93472000D03*
%TD*%
D14*
%TO.C,C77*%
X194310000Y-152654000D03*
X194310000Y-150754000D03*
%TD*%
%TO.C,C60*%
X163830000Y-132334000D03*
X163830000Y-130434000D03*
%TD*%
D15*
%TO.C,R143*%
X186690000Y-137414000D03*
X186690000Y-135589000D03*
%TD*%
D14*
%TO.C,C22*%
X85090000Y-132334000D03*
X85090000Y-130434000D03*
%TD*%
D15*
%TO.C,R62*%
X100330000Y-147621000D03*
X100330000Y-145796000D03*
%TD*%
D14*
%TO.C,C53*%
X148590000Y-152654000D03*
X148590000Y-150754000D03*
%TD*%
D15*
%TO.C,R157*%
X198120000Y-157734000D03*
X198120000Y-155909000D03*
%TD*%
D18*
%TO.C,R193*%
X31750000Y-85344000D03*
X31750000Y-87169000D03*
%TD*%
D15*
%TO.C,R63*%
X104140000Y-137414000D03*
X104140000Y-135589000D03*
%TD*%
%TO.C,R162*%
X201930000Y-147574000D03*
X201930000Y-145749000D03*
%TD*%
D13*
%TO.C,R13*%
X54610000Y-157734000D03*
X52785000Y-157734000D03*
%TD*%
D14*
%TO.C,C82*%
X209550000Y-132334000D03*
X209550000Y-130434000D03*
%TD*%
%TO.C,C14*%
X69850000Y-132334000D03*
X69850000Y-130434000D03*
%TD*%
D15*
%TO.C,R174*%
X217170000Y-147574000D03*
X217170000Y-145749000D03*
%TD*%
D14*
%TO.C,C47*%
X137160000Y-152654000D03*
X137160000Y-150754000D03*
%TD*%
D20*
%TO.C,C8*%
X56642000Y-142240000D03*
X58542000Y-142240000D03*
%TD*%
D15*
%TO.C,R139*%
X182880000Y-137414000D03*
X182880000Y-135589000D03*
%TD*%
%TO.C,R166*%
X209550000Y-147574000D03*
X209550000Y-145749000D03*
%TD*%
%TO.C,R133*%
X175260000Y-157734000D03*
X175260000Y-155909000D03*
%TD*%
%TO.C,R108*%
X152400000Y-127254000D03*
X152400000Y-125429000D03*
%TD*%
D18*
%TO.C,R190*%
X254762000Y-104855000D03*
X254762000Y-106680000D03*
%TD*%
D15*
%TO.C,R69*%
X107950000Y-157734000D03*
X107950000Y-155909000D03*
%TD*%
D17*
%TO.C,C98*%
X25146000Y-89615000D03*
X25146000Y-91515000D03*
%TD*%
D14*
%TO.C,C52*%
X148590000Y-132334000D03*
X148590000Y-130434000D03*
%TD*%
%TO.C,C42*%
X124460000Y-132334000D03*
X124460000Y-130434000D03*
%TD*%
D15*
%TO.C,R140*%
X182880000Y-127254000D03*
X182880000Y-125429000D03*
%TD*%
D17*
%TO.C,C92*%
X245110000Y-86821000D03*
X245110000Y-88721000D03*
%TD*%
D14*
%TO.C,C45*%
X133350000Y-152654000D03*
X133350000Y-150754000D03*
%TD*%
D15*
%TO.C,R150*%
X190500000Y-147574000D03*
X190500000Y-145749000D03*
%TD*%
%TO.C,R203*%
X205740000Y-157734000D03*
X205740000Y-155909000D03*
%TD*%
D14*
%TO.C,C28*%
X96520000Y-132334000D03*
X96520000Y-130434000D03*
%TD*%
D15*
%TO.C,R163*%
X209550000Y-137414000D03*
X209550000Y-135589000D03*
%TD*%
%TO.C,R42*%
X81280000Y-147621000D03*
X81280000Y-145796000D03*
%TD*%
%TO.C,R92*%
X137160000Y-127254000D03*
X137160000Y-125429000D03*
%TD*%
D14*
%TO.C,C72*%
X186690000Y-132312500D03*
X186690000Y-130412500D03*
%TD*%
D18*
%TO.C,R195*%
X25146000Y-85297000D03*
X25146000Y-87122000D03*
%TD*%
D15*
%TO.C,R52*%
X92710000Y-127254000D03*
X92710000Y-125429000D03*
%TD*%
D14*
%TO.C,C33*%
X104140000Y-152654000D03*
X104140000Y-150754000D03*
%TD*%
D15*
%TO.C,R78*%
X115570000Y-147574000D03*
X115570000Y-145749000D03*
%TD*%
%TO.C,R127*%
X171450000Y-137414000D03*
X171450000Y-135589000D03*
%TD*%
%TO.C,R82*%
X119380000Y-147574000D03*
X119380000Y-145749000D03*
%TD*%
%TO.C,R90*%
X133350000Y-147574000D03*
X133350000Y-145749000D03*
%TD*%
%TO.C,R151*%
X194310000Y-137398000D03*
X194310000Y-135573000D03*
%TD*%
%TO.C,R118*%
X160020000Y-147621000D03*
X160020000Y-145796000D03*
%TD*%
%TO.C,R149*%
X190500000Y-157734000D03*
X190500000Y-155909000D03*
%TD*%
%TO.C,R175*%
X220980000Y-137414000D03*
X220980000Y-135589000D03*
%TD*%
%TO.C,R47*%
X88900000Y-137414000D03*
X88900000Y-135589000D03*
%TD*%
%TO.C,R89*%
X133350000Y-157734000D03*
X133350000Y-155909000D03*
%TD*%
%TO.C,R41*%
X81280000Y-157734000D03*
X81280000Y-155909000D03*
%TD*%
%TO.C,R104*%
X148590000Y-127254000D03*
X148590000Y-125429000D03*
%TD*%
D20*
%TO.C,C4*%
X49022000Y-142240000D03*
X50922000Y-142240000D03*
%TD*%
D14*
%TO.C,C80*%
X201930000Y-132312500D03*
X201930000Y-130412500D03*
%TD*%
%TO.C,C85*%
X213360000Y-152654000D03*
X213360000Y-150754000D03*
%TD*%
D15*
%TO.C,R40*%
X81280000Y-127238000D03*
X81280000Y-125413000D03*
%TD*%
%TO.C,R36*%
X77470000Y-127254000D03*
X77470000Y-125429000D03*
%TD*%
D21*
%TO.C,J4*%
X114300000Y-114300000D03*
D22*
X114300000Y-111760000D03*
X116840000Y-114300000D03*
X116840000Y-111760000D03*
X119380000Y-114300000D03*
X119380000Y-111760000D03*
X121920000Y-114300000D03*
X121920000Y-111760000D03*
X124460000Y-114300000D03*
X124460000Y-111760000D03*
X127000000Y-114300000D03*
X127000000Y-111760000D03*
X129540000Y-114300000D03*
X129540000Y-111760000D03*
X132080000Y-114300000D03*
X132080000Y-111760000D03*
X134620000Y-114300000D03*
X134620000Y-111760000D03*
X137160000Y-114300000D03*
X137160000Y-111760000D03*
X139700000Y-114300000D03*
X139700000Y-111760000D03*
X142240000Y-114300000D03*
X142240000Y-111760000D03*
X144780000Y-114300000D03*
X144780000Y-111760000D03*
X147320000Y-114300000D03*
X147320000Y-111760000D03*
X149860000Y-114300000D03*
X149860000Y-111760000D03*
X152400000Y-114300000D03*
X152400000Y-111760000D03*
X154940000Y-114300000D03*
X154940000Y-111760000D03*
X157480000Y-114300000D03*
X157480000Y-111760000D03*
X160020000Y-114300000D03*
X160020000Y-111760000D03*
X162560000Y-114300000D03*
X162560000Y-111760000D03*
%TD*%
D15*
%TO.C,R115*%
X160020000Y-137414000D03*
X160020000Y-135589000D03*
%TD*%
D14*
%TO.C,C78*%
X198120000Y-132312500D03*
X198120000Y-130412500D03*
%TD*%
D15*
%TO.C,R58*%
X96520000Y-147621000D03*
X96520000Y-145796000D03*
%TD*%
D14*
%TO.C,C69*%
X179070000Y-152654000D03*
X179070000Y-150754000D03*
%TD*%
D15*
%TO.C,R105*%
X148590000Y-157734000D03*
X148590000Y-155909000D03*
%TD*%
D14*
%TO.C,C87*%
X217170000Y-152654000D03*
X217170000Y-150754000D03*
%TD*%
%TO.C,C40*%
X119380000Y-132334000D03*
X119380000Y-130434000D03*
%TD*%
D15*
%TO.C,R76*%
X115570000Y-127254000D03*
X115570000Y-125429000D03*
%TD*%
D14*
%TO.C,C19*%
X77470000Y-152654000D03*
X77470000Y-150754000D03*
%TD*%
D15*
%TO.C,R31*%
X73660000Y-137414000D03*
X73660000Y-135589000D03*
%TD*%
%TO.C,R119*%
X163830000Y-137414000D03*
X163830000Y-135589000D03*
%TD*%
D14*
%TO.C,C46*%
X137160000Y-132334000D03*
X137160000Y-130434000D03*
%TD*%
D15*
%TO.C,R125*%
X167640000Y-157734000D03*
X167640000Y-155909000D03*
%TD*%
D14*
%TO.C,C27*%
X92710000Y-152654000D03*
X92710000Y-150754000D03*
%TD*%
D20*
%TO.C,C5*%
X49022000Y-154940000D03*
X50922000Y-154940000D03*
%TD*%
D15*
%TO.C,R152*%
X194310000Y-127254000D03*
X194310000Y-125429000D03*
%TD*%
%TO.C,R148*%
X190500000Y-127254000D03*
X190500000Y-125429000D03*
%TD*%
D18*
%TO.C,R196*%
X25146000Y-94187000D03*
X25146000Y-96012000D03*
%TD*%
D25*
%TO.C,U1*%
X100330000Y-88900000D03*
X100330000Y-90170000D03*
X100330000Y-91440000D03*
X100330000Y-92710000D03*
X100330000Y-93980000D03*
X100330000Y-95250000D03*
X100330000Y-96520000D03*
X105280000Y-96520000D03*
X105280000Y-95250000D03*
X105280000Y-93980000D03*
X105280000Y-92710000D03*
X105280000Y-91440000D03*
X105280000Y-90170000D03*
X105280000Y-88900000D03*
%TD*%
D14*
%TO.C,C70*%
X182880000Y-132312500D03*
X182880000Y-130412500D03*
%TD*%
%TO.C,C62*%
X167640000Y-132334000D03*
X167640000Y-130434000D03*
%TD*%
D15*
%TO.C,R172*%
X217170000Y-127254000D03*
X217170000Y-125429000D03*
%TD*%
%TO.C,R20*%
X62230000Y-127254000D03*
X62230000Y-125429000D03*
%TD*%
D14*
%TO.C,C64*%
X171450000Y-132312500D03*
X171450000Y-130412500D03*
%TD*%
D15*
%TO.C,R202*%
X228600000Y-147621000D03*
X228600000Y-145796000D03*
%TD*%
%TO.C,R170*%
X213360000Y-147558000D03*
X213360000Y-145733000D03*
%TD*%
D18*
%TO.C,R200*%
X104140000Y-115015000D03*
X104140000Y-116840000D03*
%TD*%
D14*
%TO.C,C89*%
X220980000Y-152654000D03*
X220980000Y-150754000D03*
%TD*%
%TO.C,C90*%
X224790000Y-132312500D03*
X224790000Y-130412500D03*
%TD*%
D15*
%TO.C,R59*%
X100330000Y-137414000D03*
X100330000Y-135589000D03*
%TD*%
D17*
%TO.C,C97*%
X31750000Y-89615000D03*
X31750000Y-91515000D03*
%TD*%
D14*
%TO.C,C76*%
X194310000Y-132312500D03*
X194310000Y-130412500D03*
%TD*%
D15*
%TO.C,R55*%
X96520000Y-137414000D03*
X96520000Y-135589000D03*
%TD*%
%TO.C,R124*%
X167640000Y-127254000D03*
X167640000Y-125429000D03*
%TD*%
%TO.C,R176*%
X220980000Y-127254000D03*
X220980000Y-125429000D03*
%TD*%
D14*
%TO.C,C81*%
X201930000Y-152654000D03*
X201930000Y-150754000D03*
%TD*%
%TO.C,C68*%
X179070000Y-132312500D03*
X179070000Y-130412500D03*
%TD*%
D20*
%TO.C,C6*%
X52832000Y-142240000D03*
X54732000Y-142240000D03*
%TD*%
M02*
