G04 (created by PCBNEW (2013-07-07 BZR 4022)-stable) date 13/10/2017 14:23:44*
%MOIN*%
G04 Gerber Fmt 3.4, Leading zero omitted, Abs format*
%FSLAX34Y34*%
G01*
G70*
G90*
G04 APERTURE LIST*
%ADD10C,0.00590551*%
%ADD11C,0.08*%
%ADD12C,0.09*%
%ADD13R,0.09X0.09*%
%ADD14R,0.37X0.37*%
%ADD15R,0.075X0.075*%
%ADD16C,0.075*%
%ADD17C,0.18*%
%ADD18R,0.13X0.32*%
%ADD19R,0.09X0.32*%
%ADD20R,0.08X0.08*%
%ADD21C,0.095*%
G04 APERTURE END LIST*
G54D10*
G54D11*
X90000Y-21000D03*
X90000Y-19000D03*
X93000Y-21000D03*
X93000Y-19000D03*
G54D12*
X14000Y-62500D03*
G54D13*
X12000Y-62500D03*
G54D12*
X13000Y-62500D03*
G54D14*
X13000Y-56000D03*
G54D15*
X11500Y-64500D03*
G54D16*
X12500Y-64500D03*
G54D15*
X14500Y-64500D03*
G54D16*
X13500Y-64500D03*
G54D17*
X7500Y-20500D03*
X102500Y-20500D03*
G54D18*
X21050Y-69150D03*
G54D19*
X22500Y-69150D03*
X23750Y-69150D03*
X25000Y-69150D03*
X26250Y-69150D03*
X27500Y-69150D03*
X28750Y-69150D03*
X30000Y-69150D03*
X31250Y-69150D03*
X32500Y-69150D03*
X33750Y-69150D03*
X35000Y-69150D03*
X36250Y-69150D03*
X37500Y-69150D03*
X38750Y-69150D03*
X40000Y-69150D03*
X41250Y-69150D03*
X42500Y-69150D03*
X43750Y-69150D03*
X45000Y-69150D03*
X46250Y-69150D03*
X47500Y-69150D03*
X48750Y-69150D03*
X50000Y-69150D03*
X51250Y-69150D03*
X52500Y-69150D03*
X53750Y-69150D03*
X55000Y-69150D03*
X56250Y-69150D03*
X57500Y-69150D03*
X58750Y-69150D03*
X60000Y-69150D03*
X61250Y-69150D03*
X62500Y-69150D03*
X63750Y-69150D03*
X65000Y-69150D03*
X66250Y-69150D03*
X67500Y-69150D03*
X68750Y-69150D03*
X70000Y-69150D03*
X71250Y-69150D03*
X72500Y-69150D03*
X73750Y-69150D03*
X75000Y-69150D03*
X76250Y-69150D03*
X77500Y-69150D03*
X78750Y-69150D03*
X80000Y-69150D03*
X81250Y-69150D03*
G54D18*
X82700Y-69150D03*
G54D16*
X7000Y-36000D03*
X7000Y-38000D03*
X7000Y-46000D03*
X7000Y-48000D03*
X7000Y-41000D03*
X7000Y-43000D03*
G54D18*
X21050Y-20650D03*
G54D19*
X22500Y-20650D03*
X23750Y-20650D03*
X25000Y-20650D03*
X26250Y-20650D03*
X27500Y-20650D03*
X28750Y-20650D03*
X30000Y-20650D03*
X31250Y-20650D03*
X32500Y-20650D03*
X33750Y-20650D03*
X35000Y-20650D03*
X36250Y-20650D03*
X37500Y-20650D03*
X38750Y-20650D03*
X40000Y-20650D03*
X41250Y-20650D03*
X42500Y-20650D03*
X43750Y-20650D03*
X45000Y-20650D03*
X46250Y-20650D03*
X47500Y-20650D03*
X48750Y-20650D03*
X50000Y-20650D03*
X51250Y-20650D03*
X52500Y-20650D03*
X53750Y-20650D03*
X55000Y-20650D03*
X56250Y-20650D03*
X57500Y-20650D03*
X58750Y-20650D03*
X60000Y-20650D03*
X61250Y-20650D03*
X62500Y-20650D03*
X63750Y-20650D03*
X65000Y-20650D03*
X66250Y-20650D03*
X67500Y-20650D03*
X68750Y-20650D03*
X70000Y-20650D03*
X71250Y-20650D03*
X72500Y-20650D03*
X73750Y-20650D03*
X75000Y-20650D03*
X76250Y-20650D03*
X77500Y-20650D03*
X78750Y-20650D03*
X80000Y-20650D03*
X81250Y-20650D03*
G54D18*
X82700Y-20650D03*
G54D15*
X9000Y-38500D03*
G54D16*
X10000Y-38500D03*
X11000Y-38500D03*
X12000Y-38500D03*
X13000Y-38500D03*
X14000Y-38500D03*
X15000Y-38500D03*
X15000Y-35500D03*
X14000Y-35500D03*
X13000Y-35500D03*
X12000Y-35500D03*
X11000Y-35500D03*
X10000Y-35500D03*
X9000Y-35500D03*
G54D15*
X9000Y-43500D03*
G54D16*
X10000Y-43500D03*
X11000Y-43500D03*
X12000Y-43500D03*
X13000Y-43500D03*
X14000Y-43500D03*
X15000Y-43500D03*
X16000Y-43500D03*
X16000Y-40500D03*
X15000Y-40500D03*
X14000Y-40500D03*
X13000Y-40500D03*
X12000Y-40500D03*
X11000Y-40500D03*
X10000Y-40500D03*
X9000Y-40500D03*
G54D17*
X18000Y-20000D03*
G54D15*
X18000Y-43500D03*
G54D16*
X19000Y-43500D03*
G54D15*
X18000Y-40500D03*
G54D16*
X19000Y-40500D03*
G54D15*
X8250Y-15750D03*
G54D16*
X7250Y-15750D03*
G54D15*
X10000Y-23000D03*
G54D16*
X11000Y-23000D03*
G54D15*
X12500Y-23000D03*
G54D16*
X13500Y-23000D03*
G54D15*
X15000Y-23000D03*
G54D16*
X16000Y-23000D03*
G54D15*
X10750Y-15750D03*
G54D16*
X9750Y-15750D03*
G54D15*
X15750Y-15750D03*
G54D16*
X14750Y-15750D03*
G54D15*
X13250Y-15750D03*
G54D16*
X12250Y-15750D03*
G54D20*
X18000Y-36500D03*
G54D11*
X18000Y-37500D03*
G54D20*
X17000Y-36500D03*
G54D11*
X17000Y-37500D03*
G54D16*
X15000Y-48500D03*
X15000Y-45500D03*
X13000Y-48500D03*
X13000Y-45500D03*
X14000Y-45500D03*
X14000Y-48500D03*
X12000Y-48500D03*
X12000Y-45500D03*
X11000Y-48500D03*
X11000Y-45500D03*
X10000Y-48500D03*
X10000Y-45500D03*
X9000Y-48500D03*
X9000Y-45500D03*
G54D21*
X11000Y-29500D03*
X8000Y-29500D03*
X18000Y-29500D03*
X15000Y-29500D03*
G54D16*
X88500Y-22000D03*
X88500Y-19000D03*
G54D11*
X21000Y-45500D03*
X21000Y-50500D03*
X19500Y-45500D03*
X19500Y-50500D03*
X22500Y-50500D03*
X22500Y-45500D03*
G54D16*
X86000Y-22000D03*
X86000Y-19000D03*
X91500Y-15000D03*
X88500Y-15000D03*
X95000Y-15000D03*
X98000Y-15000D03*
X17000Y-45500D03*
X17000Y-48500D03*
X16000Y-45500D03*
X16000Y-48500D03*
X11000Y-25500D03*
X8000Y-25500D03*
G54D15*
X13500Y-32500D03*
G54D16*
X12500Y-32500D03*
X12500Y-33500D03*
X6500Y-33750D03*
X9500Y-33750D03*
X16500Y-33750D03*
X19500Y-33750D03*
G54D15*
X17000Y-35000D03*
G54D16*
X18000Y-35000D03*
X19000Y-35000D03*
G54D15*
X17000Y-38750D03*
G54D16*
X18000Y-38750D03*
X19000Y-38750D03*
G54D15*
X13000Y-27500D03*
G54D16*
X13000Y-26500D03*
X14000Y-26500D03*
M02*
